<?xml version="1.0" encoding="utf-8"?>
<!-- Generator: Adobe Illustrator 25.2.3, SVG Export Plug-In . SVG Version: 6.00 Build 0)  -->
<svg version="1.1" xmlns="http://www.w3.org/2000/svg" xmlns:xlink="http://www.w3.org/1999/xlink" x="0px" y="0px"
	 viewBox="0 0 623 522" style="enable-background:new 0 0 623 522;" xml:space="preserve">
<style type="text/css">
	.st0{fill:#FCFCFC;}
	.st1{filter:url(#shadow);}
	.st2{opacity:0.2;}
	.st3{fill:url(#SVGID_1_);stroke:#000000;}
	.st4{font-family:'ArialMT';}
	.st5{font-size:13px;}
	.st6{fill:url(#SVGID_2_);stroke:#000000;}
	.st7{fill:url(#SVGID_3_);stroke:#000000;}
	.st8{fill:url(#SVGID_4_);stroke:#000000;}
	.st9{fill:url(#SVGID_5_);stroke:#000000;}
	.st10{fill:url(#SVGID_6_);stroke:#000000;}
	.st11{fill:none;stroke:#000000;}
	.st12{fill:url(#SVGID_7_);stroke:#000000;}
	.st13{fill:url(#SVGID_8_);stroke:#000000;}
	.st14{font-size:10px;}
	.st15{fill:url(#SVGID_9_);stroke:#000000;}
	.st16{fill:url(#SVGID_10_);stroke:#000000;}
	.st17{fill:url(#SVGID_11_);stroke:#000000;}
	.st18{fill:url(#SVGID_12_);stroke:#000000;}
	.st19{fill:url(#SVGID_13_);stroke:#000000;}
	.st20{fill:url(#SVGID_14_);stroke:#000000;}
	.st21{fill:url(#SVGID_15_);stroke:#000000;}
	.st22{fill:url(#SVGID_16_);stroke:#000000;}
	.st23{fill:url(#SVGID_17_);stroke:#000000;}
	.st24{fill:url(#SVGID_18_);stroke:#000000;}
	.st25{fill:url(#SVGID_19_);stroke:#000000;}
	.st26{fill:url(#SVGID_20_);stroke:#000000;}
	.st27{fill:url(#SVGID_21_);stroke:#000000;}
	.st28{fill:none;stroke:#000000;stroke-dasharray:5,2;}
	.st29{fill:url(#SVGID_22_);stroke:#000000;}
	.st30{fill:url(#SVGID_23_);stroke:#000000;}
	.st31{fill:url(#SVGID_24_);stroke:#000000;}
	.st32{fill:url(#SVGID_25_);stroke:#000000;}
	.st33{fill:url(#SVGID_26_);stroke:#000000;}
	.st34{fill:url(#SVGID_27_);stroke:#000000;}
	.st35{fill:url(#SVGID_28_);stroke:#000000;}
	.st36{fill:url(#SVGID_29_);stroke:#000000;}
	.st37{fill:url(#SVGID_30_);stroke:#000000;}
	.st38{fill:url(#SVGID_31_);stroke:#000000;}
	.st39{fill:#778899;}
	.st40{font-family:'Verdana';}
	.st41{font-size:6px;}
</style>
<filter  filterRes="100" id="shadow" x="0" y="0">
	<feGaussianBlur  stdDeviation="2 2"></feGaussianBlur>
	<feOffset  dx="2" dy="2"></feOffset>
</filter>
<g id="Camada_2">
	<rect class="st0" width="623" height="522"/>
</g>
<g id="Camada_1" xmlns:svg="http://www.w3.org/2000/svg">
	<g id="graph0" transform="scale(1 1) rotate(0) translate(4 488)">
		<g id="node1">
			<g class="st1">
				<polygon class="st2" points="163,-393.5 164.5,-424.2 163,-468.5 163,-468.5 195.5,-466.3 275,-468.5 275,-468.5 276.5,-452.9 
					275,-393.5 275,-393.5 238.2,-391.3 				"/>
			</g>
			
				<linearGradient id="SVGID_1_" gradientUnits="userSpaceOnUse" x1="-646.2868" y1="310.4048" x2="-645.287" y2="309.405" gradientTransform="matrix(113.5 0 0 -77.24 73517 23506.8574)">
				<stop  offset="0" style="stop-color:#FFFFFF"/>
				<stop  offset="1" style="stop-color:#DCDCDC"/>
			</linearGradient>
			<polygon class="st3" points="163,-393.5 164.5,-414.3 163,-468.5 163,-468.5 180.7,-466.3 275,-468.5 275,-468.5 276.5,-463.9 
				275,-393.5 275,-393.5 276.5,-391.3 			"/>
			<text transform="matrix(1 0 0 1 185.1606 -457.3)" class="st4 st5">CoinsViews</text>
			<g class="st1">
				<line class="st2" x1="163" y1="-453.5" x2="275" y2="-453.5"/>
			</g>
			
				<linearGradient id="SVGID_2_" gradientUnits="userSpaceOnUse" x1="-645.9643" y1="36.25" x2="-644.9643" y2="35.25" gradientTransform="matrix(112 0 0 -1 72539 -417.5)">
				<stop  offset="0" style="stop-color:#FFFFFF"/>
				<stop  offset="1" style="stop-color:#FFFFFF"/>
			</linearGradient>
			<line class="st6" x1="163" y1="-453.5" x2="275" y2="-453.5"/>
			<text transform="matrix(1 0 0 1 185.9414 -442.3)" class="st4 st5">+m_dbview</text>
			<text transform="matrix(1 0 0 1 175.8264 -427.3)" class="st4 st5">+m_cacheview</text>
			<text transform="matrix(1 0 0 1 213.5823 -412.3)" class="st4 st5">...</text>
			<g class="st1">
				<line class="st2" x1="163" y1="-408.5" x2="275" y2="-408.5"/>
			</g>
			
				<linearGradient id="SVGID_3_" gradientUnits="userSpaceOnUse" x1="-645.9643" y1="36.25" x2="-644.9643" y2="35.25" gradientTransform="matrix(112 0 0 -1 72539 -372.5)">
				<stop  offset="0" style="stop-color:#FFFFFF"/>
				<stop  offset="1" style="stop-color:#FFFFFF"/>
			</linearGradient>
			<line class="st7" x1="163" y1="-408.5" x2="275" y2="-408.5"/>
			<text transform="matrix(1 0 0 1 213.5823 -397.3)" class="st4 st5">...</text>
		</g>
		<g id="node2">
			<g class="st1">
				<polygon class="st2" points="138.5,-212.5 140,-232.9 138.5,-287.5 138.5,-287.5 220.4,-285.2 255.5,-287.5 255.5,-287.5 
					257,-238.4 255.5,-212.5 255.5,-212.5 230.8,-210.2 				"/>
			</g>
			
				<linearGradient id="SVGID_4_" gradientUnits="userSpaceOnUse" x1="-646.5272" y1="310.4099" x2="-645.5272" y2="309.4099" gradientTransform="matrix(118.5 0 0 -77.34 76752.5 23719.2598)">
				<stop  offset="0" style="stop-color:#FFFFFF"/>
				<stop  offset="1" style="stop-color:#DCDCDC"/>
			</linearGradient>
			<polygon class="st8" points="138.5,-212.5 140,-221.8 138.5,-287.5 138.5,-287.5 151.1,-285.2 255.5,-287.5 255.5,-287.5 
				257,-251 255.5,-212.5 255.5,-212.5 209.5,-210.2 			"/>
			<text transform="matrix(1 0 0 1 152.687 -276.3)" class="st4 st5">CCoinsViewDB</text>
			<g class="st1">
				<line class="st2" x1="138.5" y1="-272.5" x2="255.5" y2="-272.5"/>
			</g>
			
				<linearGradient id="SVGID_5_" gradientUnits="userSpaceOnUse" x1="-646.2115" y1="36.25" x2="-645.2115" y2="35.25" gradientTransform="matrix(117 0 0 -1 75774.5 -236.5)">
				<stop  offset="0" style="stop-color:#FFFFFF"/>
				<stop  offset="1" style="stop-color:#FFFFFF"/>
			</linearGradient>
			<line class="st9" x1="138.5" y1="-272.5" x2="255.5" y2="-272.5"/>
			<text transform="matrix(1 0 0 1 176.9446 -261.3)" class="st4 st5">+m_db</text>
			<text transform="matrix(1 0 0 1 191.5823 -246.3)" class="st4 st5">...</text>
			<g class="st1">
				<line class="st2" x1="138.5" y1="-242.5" x2="255.5" y2="-242.5"/>
			</g>
			
				<linearGradient id="SVGID_6_" gradientUnits="userSpaceOnUse" x1="-646.2115" y1="36.25" x2="-645.2115" y2="35.25" gradientTransform="matrix(117 0 0 -1 75774.5 -206.5)">
				<stop  offset="0" style="stop-color:#FFFFFF"/>
				<stop  offset="1" style="stop-color:#FFFFFF"/>
			</linearGradient>
			<line class="st10" x1="138.5" y1="-242.5" x2="255.5" y2="-242.5"/>
			<text transform="matrix(1 0 0 1 161.0024 -231.3)" class="st4 st5">BatchWrite()</text>
			<text transform="matrix(1 0 0 1 191.5823 -216.3)" class="st4 st5">...</text>
		</g>
		<g id="edge1">
			<path class="st11" d="M213-381.2c-3.2,26-7.1,57.7-10.2,83.4"/>
			<g class="st1">
				<path class="st11" d="M213-381.2c-3.2,26-7.1,57.7-10.2,83.4"/>
			</g>
			<g class="st1">
				<polygon class="st2" points="213,-381.4 214,-382.1 217.7,-386.9 217.7,-386.9 217,-388.8 214.5,-393.3 214.5,-393.3 
					213.6,-391.8 209.8,-387.9 209.8,-387.9 210.2,-387.3 				"/>
			</g>
			
				<linearGradient id="SVGID_7_" gradientUnits="userSpaceOnUse" x1="-570.3871" y1="290.7351" x2="-569.3871" y2="289.7351" gradientTransform="matrix(7.94 0 0 -11.9489 4738.6748 3080.6235)">
				<stop  offset="0" style="stop-color:#FFFFFF"/>
				<stop  offset="1" style="stop-color:#FFFFFF"/>
			</linearGradient>
			<polygon class="st12" points="213,-381.4 213.3,-381.4 217.7,-386.9 217.7,-386.9 216.4,-389.8 214.5,-393.3 214.5,-393.3 
				214.1,-392.4 209.8,-387.9 209.8,-387.9 212.4,-383.2 			"/>
			<g class="st1">
				<polygon class="st2" points="201.5,-287.6 204.7,-291.8 207.2,-297 207.2,-297 207.3,-296.8 202.1,-292.6 202.1,-292.6 
					202.3,-292.6 202.7,-297.5 202.7,-297.5 202.9,-297.2 202.7,-297.5 202.7,-297.5 202.8,-297.4 202.7,-297.5 202.7,-297.5 
					202.8,-296.3 202.1,-292.6 202.1,-292.6 202.2,-292.6 198.3,-298.1 198.3,-298.1 198.6,-297.6 201.5,-287.6 201.5,-287.6 
					201.7,-287.5 				"/>
			</g>
			
				<linearGradient id="SVGID_8_" gradientUnits="userSpaceOnUse" x1="-579.3864" y1="287.6033" x2="-578.3864" y2="286.6033" gradientTransform="matrix(8.932 0 0 -10.5056 5373.9116 2722.6631)">
				<stop  offset="0" style="stop-color:#969696"/>
				<stop  offset="1" style="stop-color:#000000"/>
			</linearGradient>
			<polygon class="st13" points="201.5,-287.6 205.9,-293.6 207.2,-297 207.2,-297 205.5,-295 202.1,-292.6 202.1,-292.6 
				202.4,-293.2 202.7,-297.5 202.7,-297.5 203.1,-297.3 202.7,-297.5 202.7,-297.5 202.8,-297.4 202.7,-297.5 202.7,-297.5 
				202.8,-296.4 202.1,-292.6 202.1,-292.6 201.7,-293.3 198.3,-298.1 198.3,-298.1 200,-293.3 201.5,-287.6 201.5,-287.6 
				201.5,-287.6 			"/>
			<text transform="matrix(1 0 0 1 194.2213 -303.394)" class="st4 st14">1</text>
		</g>
		<g id="node7">
			<g class="st1">
				<polygon class="st2" points="289.5,-1 291.9,-23.4 289.5,-121 289.5,-121 326.9,-118.3 426.5,-121 426.5,-121 428.9,-13.7 
					426.5,-1 426.5,-1 385.3,1.7 				"/>
			</g>
			
				<linearGradient id="SVGID_9_" gradientUnits="userSpaceOnUse" x1="-647.3502" y1="311.7363" x2="-646.3502" y2="310.7363" gradientTransform="matrix(139.4 0 0 -122.74 90530.2969 38141.3594)">
				<stop  offset="0" style="stop-color:#FFFFFF"/>
				<stop  offset="1" style="stop-color:#DCDCDC"/>
			</linearGradient>
			<polygon class="st15" points="289.5,-1 291.9,-5.4 289.5,-121 289.5,-121 358.7,-118.3 426.5,-121 426.5,-121 428.9,-51.6 
				426.5,-1 426.5,-1 413.7,1.7 			"/>
			<text transform="matrix(1 0 0 1 303.9275 -109.8)" class="st4 st5">CCoinsViewCache</text>
			<g class="st1">
				<line class="st2" x1="289.5" y1="-106" x2="426.5" y2="-106"/>
			</g>
			
				<linearGradient id="SVGID_10_" gradientUnits="userSpaceOnUse" x1="-647.0201" y1="36.25" x2="-646.0201" y2="35.25" gradientTransform="matrix(137 0 0 -1 88965.5 -70)">
				<stop  offset="0" style="stop-color:#FFFFFF"/>
				<stop  offset="1" style="stop-color:#FFFFFF"/>
			</linearGradient>
			<line class="st16" x1="289.5" y1="-106" x2="426.5" y2="-106"/>
			<text transform="matrix(1 0 0 1 324.3955 -94.8)" class="st4 st5">#hashBlock</text>
			<text transform="matrix(1 0 0 1 320.4219 -79.8)" class="st4 st5">#cacheCoins</text>
			<text transform="matrix(1 0 0 1 352.5823 -64.8)" class="st4 st5">...</text>
			<g class="st1">
				<line class="st2" x1="289.5" y1="-61" x2="426.5" y2="-61"/>
			</g>
			
				<linearGradient id="SVGID_11_" gradientUnits="userSpaceOnUse" x1="-647.0201" y1="36.25" x2="-646.0201" y2="35.25" gradientTransform="matrix(137 0 0 -1 88965.5 -25)">
				<stop  offset="0" style="stop-color:#FFFFFF"/>
				<stop  offset="1" style="stop-color:#FFFFFF"/>
			</linearGradient>
			<line class="st17" x1="289.5" y1="-61" x2="426.5" y2="-61"/>
			<text transform="matrix(1 0 0 1 300.9187 -49.8)" class="st4 st5">HaveCoinInCache()</text>
			<text transform="matrix(1 0 0 1 319.3523 -34.8)" class="st4 st5">AccessCoin()</text>
			<text transform="matrix(1 0 0 1 328.7373 -19.8)" class="st4 st5">AddCoin()</text>
			<text transform="matrix(1 0 0 1 352.5823 -4.8)" class="st4 st5">...</text>
		</g>
		<g id="edge8">
			<path class="st11" d="M237.2-381.9c24.2,64.1,67.3,178.1,94.9,251.2"/>
			<g class="st1">
				<path class="st11" d="M237.2-381.9c24.2,64.1,67.3,178.1,94.9,251.2"/>
			</g>
			<g class="st1">
				<polygon class="st2" points="237.1,-382.1 237.6,-383.3 238.7,-389.2 238.7,-389.2 236.8,-390.4 232.8,-393.4 232.8,-393.4 
					232.6,-391.1 231.2,-386.3 231.2,-386.3 231.5,-386.1 				"/>
			</g>
			
				<linearGradient id="SVGID_12_" gradientUnits="userSpaceOnUse" x1="-565.4149" y1="289.2675" x2="-564.4149" y2="288.2675" gradientTransform="matrix(7.484 0 0 -11.2401 4462.7778 2858.0359)">
				<stop  offset="0" style="stop-color:#FFFFFF"/>
				<stop  offset="1" style="stop-color:#FFFFFF"/>
			</linearGradient>
			<polygon class="st18" points="237.1,-382.1 237.3,-382.1 238.7,-389.2 238.7,-389.2 236,-391 232.8,-393.4 232.8,-393.4 
				232.6,-390.7 231.2,-386.3 231.2,-386.3 235.1,-383.5 			"/>
			<g class="st1">
				<polygon class="st2" points="335.7,-121.1 335.9,-121.4 336.4,-132 336.4,-132 335.8,-129.6 333.9,-125.8 333.9,-125.8 
					333.8,-126.4 332.1,-130.4 332.1,-130.4 332.3,-130.3 332.1,-130.4 332.1,-130.4 332.3,-130.3 332.1,-130.4 332.1,-130.4 
					333.4,-127.7 333.9,-125.8 333.9,-125.8 332.3,-126.5 327.9,-128.9 327.9,-128.9 331.7,-125.1 335.7,-121.1 335.7,-121.1 
					335.9,-120.9 				"/>
			</g>
			
				<linearGradient id="SVGID_13_" gradientUnits="userSpaceOnUse" x1="-574.8616" y1="289.2066" x2="-573.8616" y2="288.2066" gradientTransform="matrix(8.42 0 0 -11.1325 5169.7656 3085.5652)">
				<stop  offset="0" style="stop-color:#969696"/>
				<stop  offset="1" style="stop-color:#000000"/>
			</linearGradient>
			<polygon class="st19" points="335.7,-121.1 335.9,-121 336.4,-132 336.4,-132 335.3,-128.3 333.9,-125.8 333.9,-125.8 
				333,-128.9 332.1,-130.4 332.1,-130.4 332.2,-130.4 332.1,-130.4 332.1,-130.4 332.2,-130.4 332.1,-130.4 332.1,-130.4 
				333.4,-127.7 333.9,-125.8 333.9,-125.8 333.2,-126.1 327.9,-128.9 327.9,-128.9 330.9,-125.8 335.7,-121.1 335.7,-121.1 
				336,-120.9 			"/>
			<text transform="matrix(1 0 0 1 319.8602 -132.555)" class="st4 st14">1</text>
		</g>
		<g id="node3">
			<g class="st1">
				<polygon class="st2" points="0,-1 2.4,-61.3 0,-121 0,-121 33.3,-118.9 104,-121 104,-121 106.4,-81.4 104,-1 104,-1 54.2,1.1 
									"/>
			</g>
			
				<linearGradient id="SVGID_14_" gradientUnits="userSpaceOnUse" x1="-645.9111" y1="311.7214" x2="-644.9111" y2="310.7214" gradientTransform="matrix(106.4 0 0 -122.08 68724.8047 37934.1211)">
				<stop  offset="0" style="stop-color:#FFFFFF"/>
				<stop  offset="1" style="stop-color:#DCDCDC"/>
			</linearGradient>
			<polygon class="st20" points="0,-1 2.4,-36 0,-121 0,-121 38.1,-118.9 104,-121 104,-121 106.4,-80.3 104,-1 104,-1 36.7,1.1 			
				"/>
			<text transform="matrix(1 0 0 1 13.4697 -109.8)" class="st4 st5">CDBWrapper</text>
			<g class="st1">
				<line class="st2" x1="0" y1="-106" x2="104" y2="-106"/>
			</g>
			
				<linearGradient id="SVGID_15_" gradientUnits="userSpaceOnUse" x1="-645.5192" y1="36.25" x2="-644.5192" y2="35.25" gradientTransform="matrix(104 0 0 -1 67160 -70)">
				<stop  offset="0" style="stop-color:#FFFFFF"/>
				<stop  offset="1" style="stop-color:#FFFFFF"/>
			</linearGradient>
			<line class="st21" x1="0" y1="-106" x2="104" y2="-106"/>
			<text transform="matrix(1 0 0 1 38.9905 -94.8)" class="st4 st5">-pdb</text>
			<text transform="matrix(1 0 0 1 33.5759 -79.8)" class="st4 st5">-name</text>
			<text transform="matrix(1 0 0 1 46.5823 -64.8)" class="st4 st5">...</text>
			<g class="st1">
				<line class="st2" x1="0" y1="-61" x2="104" y2="-61"/>
			</g>
			
				<linearGradient id="SVGID_16_" gradientUnits="userSpaceOnUse" x1="-645.5192" y1="36.25" x2="-644.5192" y2="35.25" gradientTransform="matrix(104 0 0 -1 67160 -25)">
				<stop  offset="0" style="stop-color:#FFFFFF"/>
				<stop  offset="1" style="stop-color:#FFFFFF"/>
			</linearGradient>
			<line class="st22" x1="0" y1="-61" x2="104" y2="-61"/>
			<text transform="matrix(1 0 0 1 28.3359 -49.8)" class="st4 st5">+Read()</text>
			<text transform="matrix(1 0 0 1 28.8279 -34.8)" class="st4 st5">+Write()</text>
			<text transform="matrix(1 0 0 1 16.0024 -19.8)" class="st4 st5">WriteBatch()</text>
			<text transform="matrix(1 0 0 1 46.5823 -4.8)" class="st4 st5">...</text>
		</g>
		<g id="edge2">
			<path class="st11" d="M160.8-202.3c-17.1,22-37.8,48.7-56.5,72.9"/>
			<g class="st1">
				<path class="st11" d="M160.8-202.3c-17.1,22-37.8,48.7-56.5,72.9"/>
			</g>
			<g class="st1">
				<polygon class="st2" points="161,-202.6 165.6,-203.6 167.8,-204.9 167.8,-204.9 168.6,-209 168.4,-212.1 168.4,-212.1 
					163.7,-209.9 161.5,-209.8 161.5,-209.8 161.6,-209 				"/>
			</g>
			
				<linearGradient id="SVGID_17_" gradientUnits="userSpaceOnUse" x1="-563.8848" y1="284.6843" x2="-562.8848" y2="283.6843" gradientTransform="matrix(7.354 0 0 -9.483 4307.8096 2487.6028)">
				<stop  offset="0" style="stop-color:#FFFFFF"/>
				<stop  offset="1" style="stop-color:#FFFFFF"/>
			</linearGradient>
			<polygon class="st23" points="161,-202.6 162.6,-202.9 167.8,-204.9 167.8,-204.9 168,-204.9 168.4,-212.1 168.4,-212.1 
				164,-210.1 161.5,-209.8 161.5,-209.8 161.7,-208.1 			"/>
			<g class="st1">
				<polygon class="st2" points="98,-121.3 103.2,-123.5 107.7,-126.5 107.7,-126.5 104.5,-125.5 101.1,-125.3 101.1,-125.3 
					102.1,-126.1 104.1,-129.2 104.1,-129.2 104.2,-129.1 104.1,-129.2 104.1,-129.2 104.1,-129.2 104.1,-129.2 104.1,-129.2 
					104.1,-128.9 101.1,-125.3 101.1,-125.3 101.2,-127.4 100.6,-132 100.6,-132 100.5,-130.4 98,-121.3 98,-121.3 98.1,-121.2 				
					"/>
			</g>
			
				<linearGradient id="SVGID_18_" gradientUnits="userSpaceOnUse" x1="-585.2108" y1="288.2735" x2="-584.2108" y2="287.2735" gradientTransform="matrix(9.6844 0 0 -10.8577 5764.2261 2999.3232)">
				<stop  offset="0" style="stop-color:#969696"/>
				<stop  offset="1" style="stop-color:#000000"/>
			</linearGradient>
			<polygon class="st24" points="98,-121.3 99.6,-121.8 107.7,-126.5 107.7,-126.5 107.5,-126.3 101.1,-125.3 101.1,-125.3 
				102.1,-126.1 104.1,-129.2 104.1,-129.2 104.2,-129.2 104.1,-129.2 104.1,-129.2 104.4,-129 104.1,-129.2 104.1,-129.2 
				103.2,-127.4 101.1,-125.3 101.1,-125.3 101.2,-130.5 100.6,-132 100.6,-132 100.6,-130.9 98,-121.3 98,-121.3 98.3,-121.1 			
				"/>
			<text transform="matrix(1 0 0 1 101.3253 -136.662)" class="st4 st14">1</text>
		</g>
		<g id="node4">
			<g class="st1">
				<polygon class="st2" points="265.2,-82.5 234.9,-79.7 122.8,-82.5 122.8,-82.5 123.7,-67.1 122.8,-39.5 122.8,-39.5 
					211.6,-36.5 271.2,-39.5 271.2,-39.5 272.1,-56.5 271.2,-76.5 271.2,-76.5 270.4,-77.3 				"/>
			</g>
			
				<linearGradient id="SVGID_19_" gradientUnits="userSpaceOnUse" x1="-647.6582" y1="307.9572" x2="-646.6582" y2="306.9572" gradientTransform="matrix(149.4049 0 0 -45.97 96886.7266 14074.0801)">
				<stop  offset="0" style="stop-color:#FFFFFF"/>
				<stop  offset="1" style="stop-color:#F5DEB3"/>
			</linearGradient>
			<polygon class="st25" points="265.2,-82.5 255.4,-79.7 122.8,-82.5 122.8,-82.5 123.8,-67.4 122.8,-39.5 122.8,-39.5 
				241.3,-36.5 271.2,-39.5 271.2,-39.5 272.2,-60.3 271.2,-76.5 271.2,-76.5 270.2,-77.5 			"/>
			<g class="st1">
				<line class="st2" x1="265.2" y1="-82.5" x2="265.2" y2="-76.5"/>
			</g>
			
				<linearGradient id="SVGID_20_" gradientUnits="userSpaceOnUse" x1="-4.25" y1="267.4167" x2="-3.25" y2="266.4167" gradientTransform="matrix(1 0 0 -6 269.25 1523.5)">
				<stop  offset="0" style="stop-color:#FFFFFF"/>
				<stop  offset="1" style="stop-color:#FFFFFF"/>
			</linearGradient>
			<line class="st26" x1="265.2" y1="-82.5" x2="265.2" y2="-76.5"/>
			<g class="st1">
				<line class="st2" x1="271.2" y1="-76.5" x2="265.2" y2="-76.5"/>
			</g>
			
				<linearGradient id="SVGID_21_" gradientUnits="userSpaceOnUse" x1="-543.75" y1="36.25" x2="-542.75" y2="35.25" gradientTransform="matrix(6 0 0 -1 3529.25 -40.5)">
				<stop  offset="0" style="stop-color:#FFFFFF"/>
				<stop  offset="1" style="stop-color:#FFFFFF"/>
			</linearGradient>
			<line class="st27" x1="271.2" y1="-76.5" x2="265.2" y2="-76.5"/>
			<text transform="matrix(1 0 0 1 134.8596 -57.3)" class="st4 st5">chainstate/ (LevelDB)</text>
		</g>
		<g id="edge3">
			<path class="st28" d="M197-212.1c0,38.7,0,98.2,0,129.4"/>
			<g class="st1">
				<path class="st28" d="M197-212.1c0,38.7,0,98.2,0,129.4"/>
			</g>
			<text transform="matrix(1 0 0 1 171.2635 -97.7476)" class="st4 st14">stores in</text>
		</g>
		<g id="node5">
			<g class="st1">
				<polygon class="st2" points="304.5,-378.5 306.6,-422.4 304.5,-483.5 304.5,-483.5 323.9,-480.9 435.5,-483.5 435.5,-483.5 
					437.6,-473.6 435.5,-378.5 435.5,-378.5 425.6,-375.9 				"/>
			</g>
			
				<linearGradient id="SVGID_22_" gradientUnits="userSpaceOnUse" x1="-647.1293" y1="311.419" x2="-646.1293" y2="310.419" gradientTransform="matrix(133.1 0 0 -107.62 86437.7031 33031.1797)">
				<stop  offset="0" style="stop-color:#FFFFFF"/>
				<stop  offset="1" style="stop-color:#DCDCDC"/>
			</linearGradient>
			<polygon class="st29" points="304.5,-378.5 306.6,-452.8 304.5,-483.5 304.5,-483.5 352.5,-480.9 435.5,-483.5 435.5,-483.5 
				437.6,-416.5 435.5,-378.5 435.5,-378.5 389.8,-375.9 			"/>
			<text transform="matrix(1 0 0 1 334.7166 -472.3)" class="st4 st5">CCoinsView</text>
			<g class="st1">
				<line class="st2" x1="304.5" y1="-468.5" x2="435.5" y2="-468.5"/>
			</g>
			
				<linearGradient id="SVGID_23_" gradientUnits="userSpaceOnUse" x1="-646.8034" y1="36.25" x2="-645.8034" y2="35.25" gradientTransform="matrix(131 0 0 -1 85068.5 -432.5)">
				<stop  offset="0" style="stop-color:#FFFFFF"/>
				<stop  offset="1" style="stop-color:#FFFFFF"/>
			</linearGradient>
			<line class="st30" x1="304.5" y1="-468.5" x2="435.5" y2="-468.5"/>
			<text transform="matrix(1 0 0 1 338.03 -457.3)" class="st4 st5">+GetCoin()</text>
			<text transform="matrix(1 0 0 1 333.3328 -442.3)" class="st4 st5">+HaveCoin()</text>
			<text transform="matrix(1 0 0 1 322.4973 -427.3)" class="st4 st5">+GetBestBlock()</text>
			<text transform="matrix(1 0 0 1 316.7146 -412.3)" class="st4 st5">+GetHeadBlocks()</text>
			<text transform="matrix(1 0 0 1 330.2065 -397.3)" class="st4 st5">+BatchWrite()</text>
			<text transform="matrix(1 0 0 1 364.5823 -382.3)" class="st4 st5">...</text>
		</g>
		<g id="edge4">
			<path class="st11" d="M312.9-371c-26.6,27.5-57.4,59.4-80.6,83.4"/>
			<g class="st1">
				<path class="st11" d="M312.9-371c-26.6,27.5-57.4,59.4-80.6,83.4"/>
			</g>
			<g class="st1">
				<polygon class="st2" points="310.5,-373.5 314.1,-374.7 320,-378.2 320,-378.2 319.8,-377 315.5,-368.6 315.5,-368.6 
					314.9,-369.2 				"/>
			</g>
			
				<linearGradient id="SVGID_24_" gradientUnits="userSpaceOnUse" x1="-584.827" y1="285.2322" x2="-583.827" y2="284.2322" gradientTransform="matrix(9.6642 0 0 -9.623 5963.5435 2365.4011)">
				<stop  offset="0" style="stop-color:#FFFFFF"/>
				<stop  offset="1" style="stop-color:#FFFFFF"/>
			</linearGradient>
			<polygon class="st31" points="310.5,-373.5 311.8,-373.7 320,-378.2 320,-378.2 320.2,-378 315.5,-368.6 315.5,-368.6 
				313.1,-370.9 			"/>
		</g>
		<g id="node6">
			<g class="st1">
				<polygon class="st2" points="312.5,-232 313.3,-245.1 312.5,-268 312.5,-268 320.1,-265.2 451.5,-268 451.5,-268 452.2,-266.9 
					451.5,-232 451.5,-232 396,-229.2 				"/>
			</g>
			
				<linearGradient id="SVGID_25_" gradientUnits="userSpaceOnUse" x1="-647.3481" y1="306.8471" x2="-646.3481" y2="305.8471" gradientTransform="matrix(139.7736 0 0 -38.78 90796.8594 11630.9199)">
				<stop  offset="0" style="stop-color:#FFFFFF"/>
				<stop  offset="1" style="stop-color:#DCDCDC"/>
			</linearGradient>
			<polygon class="st32" points="312.5,-232 313.2,-231.7 312.5,-268 312.5,-268 316.7,-265.2 451.5,-268 451.5,-268 452.3,-263.3 
				451.5,-232 451.5,-232 399,-229.2 			"/>
			<text transform="matrix(1 0 0 1 325.0361 -246.3)" class="st4 st5">CCoinsViewBacked</text>
		</g>
		<g id="edge5">
			<path class="st11" d="M374.2-368c2.4,35.3,5.2,77,6.7,99.8"/>
			<g class="st1">
				<path class="st11" d="M374.2-368c2.4,35.3,5.2,77,6.7,99.8"/>
			</g>
			<g class="st1">
				<polygon class="st2" points="370.6,-368 371.9,-370.8 373.5,-378.2 373.5,-378.2 374.8,-375.5 377.6,-368.5 377.6,-368.5 
					376.4,-368.2 				"/>
			</g>
			
				<linearGradient id="SVGID_26_" gradientUnits="userSpaceOnUse" x1="-559.3649" y1="286.6562" x2="-558.3649" y2="285.6562" gradientTransform="matrix(6.984 0 0 -10.2224 4276.2017 2553.6113)">
				<stop  offset="0" style="stop-color:#FFFFFF"/>
				<stop  offset="1" style="stop-color:#FFFFFF"/>
			</linearGradient>
			<polygon class="st33" points="370.6,-368 371.5,-369.8 373.5,-378.2 373.5,-378.2 376.7,-371.1 377.6,-368.5 377.6,-368.5 
				375.3,-368 			"/>
		</g>
		<g id="edge6">
			<path class="st11" d="M378.5-221.7c-3.4,26.3-8.6,67-12.9,100.7"/>
			<g class="st1">
				<path class="st11" d="M378.5-221.7c-3.4,26.3-8.6,67-12.9,100.7"/>
			</g>
			<g class="st1">
				<polygon class="st2" points="375,-222.3 376.6,-224.4 379.8,-231.7 379.8,-231.7 380.3,-230.3 382,-221.4 382,-221.4 
					376.3,-221.8 				"/>
			</g>
			
				<linearGradient id="SVGID_27_" gradientUnits="userSpaceOnUse" x1="-558.7266" y1="287.1213" x2="-557.7266" y2="286.1213" gradientTransform="matrix(6.943 0 0 -10.365 4253.8926 2744.864)">
				<stop  offset="0" style="stop-color:#FFFFFF"/>
				<stop  offset="1" style="stop-color:#FFFFFF"/>
			</linearGradient>
			<polygon class="st34" points="375,-222.3 375.8,-223 379.8,-231.7 379.8,-231.7 380.8,-228.3 382,-221.4 382,-221.4 377,-221.5 
							"/>
		</g>
		<g id="node8">
			<g class="st1">
				<polygon class="st2" points="445,-31 446.2,-55 445,-91 445,-91 522.1,-87.6 615,-91 615,-91 616.2,-85.4 615,-31 615,-31 
					568.6,-27.6 				"/>
			</g>
			
				<linearGradient id="SVGID_28_" gradientUnits="userSpaceOnUse" x1="-648.2033" y1="309.6268" x2="-647.2033" y2="308.6268" gradientTransform="matrix(171.2 0 0 -63.4 111419.4062 19538.5996)">
				<stop  offset="0" style="stop-color:#FFFFFF"/>
				<stop  offset="1" style="stop-color:#DCDCDC"/>
			</linearGradient>
			<polygon class="st35" points="445,-31 446.2,-61.9 445,-91 445,-91 544.5,-87.6 615,-91 615,-91 616.2,-70.3 615,-31 615,-31 
				470.5,-27.6 			"/>
			<text transform="matrix(1 0 0 1 467.2629 -79.8)" class="st4 st5">CCoinsViewMemPool</text>
			<g class="st1">
				<line class="st2" x1="445" y1="-76" x2="615" y2="-76"/>
			</g>
			
				<linearGradient id="SVGID_29_" gradientUnits="userSpaceOnUse" x1="-647.9382" y1="36.25" x2="-646.9382" y2="35.25" gradientTransform="matrix(170 0 0 -1 110637 -40)">
				<stop  offset="0" style="stop-color:#FFFFFF"/>
				<stop  offset="1" style="stop-color:#FFFFFF"/>
			</linearGradient>
			<line class="st36" x1="445" y1="-76" x2="615" y2="-76"/>
			<text transform="matrix(1 0 0 1 499.6519 -64.8)" class="st4 st5">#mempool</text>
			<g class="st1">
				<line class="st2" x1="445" y1="-61" x2="615" y2="-61"/>
			</g>
			
				<linearGradient id="SVGID_30_" gradientUnits="userSpaceOnUse" x1="-647.9382" y1="36.25" x2="-646.9382" y2="35.25" gradientTransform="matrix(170 0 0 -1 110637 -25)">
				<stop  offset="0" style="stop-color:#FFFFFF"/>
				<stop  offset="1" style="stop-color:#FFFFFF"/>
			</linearGradient>
			<line class="st37" x1="445" y1="-61" x2="615" y2="-61"/>
			<text transform="matrix(1 0 0 1 459.1379 -49.8)" class="st4 st5">+CCoinsViewMemPool()</text>
			<text transform="matrix(1 0 0 1 498.03 -34.8)" class="st4 st5">+GetCoin()</text>
		</g>
		<g id="edge7">
			<path class="st11" d="M402.1-223.6C429.5-189,478.3-127.4,507-91"/>
			<g class="st1">
				<path class="st11" d="M402.1-223.6C429.5-189,478.3-127.4,507-91"/>
			</g>
			<g class="st1">
				<polygon class="st2" points="399.1,-221.7 399.2,-221.9 395.7,-231.7 395.7,-231.7 397.3,-230.6 404.6,-226.1 404.6,-226.1 
					402.6,-224 				"/>
			</g>
			
				<linearGradient id="SVGID_31_" gradientUnits="userSpaceOnUse" x1="-579.6509" y1="286.194" x2="-578.6509" y2="285.194" gradientTransform="matrix(8.951 0 0 -10.014 5583.7227 2634.6506)">
				<stop  offset="0" style="stop-color:#FFFFFF"/>
				<stop  offset="1" style="stop-color:#FFFFFF"/>
			</linearGradient>
			<polygon class="st38" points="399.1,-221.7 397.5,-227.2 395.7,-231.7 395.7,-231.7 397.8,-230.3 404.6,-226.1 404.6,-226.1 
				403.9,-225.1 			"/>
		</g>
	</g>
	<text transform="matrix(1 0 0 1 526 512)" class="st39 st40 st41">CREATED WITH YUML</text>
</g>
</svg>
