<?xml version="1.0" encoding="utf-8"?>
<!-- Generator: Adobe Illustrator 25.2.3, SVG Export Plug-In . SVG Version: 6.00 Build 0)  -->
<svg version="1.1" xmlns="http://www.w3.org/2000/svg" xmlns:xlink="http://www.w3.org/1999/xlink" x="0px" y="0px"
	 viewBox="0 0 617 746" style="enable-background:new 0 0 617 746;" xml:space="preserve">
<style type="text/css">
	.st0{fill:#FFFFFF;}
	.st1{filter:url(#shadow);}
	.st2{opacity:0.2;}
	.st3{fill:url(#SVGID_1_);stroke:#000000;}
	.st4{font-family:'ArialMT';}
	.st5{font-size:13px;}
	.st6{fill:url(#SVGID_2_);stroke:#000000;}
	.st7{fill:url(#SVGID_3_);stroke:#000000;}
	.st8{fill:url(#SVGID_4_);stroke:#000000;}
	.st9{fill:url(#SVGID_5_);stroke:#000000;}
	.st10{fill:url(#SVGID_6_);stroke:#000000;}
	.st11{fill:none;stroke:#000000;}
	.st12{fill:url(#SVGID_7_);stroke:#000000;}
	.st13{fill:url(#SVGID_8_);stroke:#000000;}
	.st14{font-size:10px;}
	.st15{fill:url(#SVGID_9_);stroke:#000000;}
	.st16{fill:url(#SVGID_10_);stroke:#000000;}
	.st17{fill:url(#SVGID_11_);stroke:#000000;}
	.st18{fill:url(#SVGID_12_);stroke:#000000;}
	.st19{fill:url(#SVGID_13_);stroke:#000000;}
	.st20{fill:url(#SVGID_14_);stroke:#000000;}
	.st21{fill:url(#SVGID_15_);stroke:#000000;}
	.st22{fill:url(#SVGID_16_);stroke:#000000;}
	.st23{fill:none;stroke:#000000;stroke-dasharray:5,2;}
	.st24{fill:url(#SVGID_17_);stroke:#000000;}
	.st25{fill:url(#SVGID_18_);stroke:#000000;}
	.st26{fill:url(#SVGID_19_);stroke:#000000;}
	.st27{fill:url(#SVGID_20_);stroke:#000000;}
	.st28{fill:url(#SVGID_21_);stroke:#000000;}
	.st29{fill:url(#SVGID_22_);stroke:#000000;}
	.st30{fill:url(#SVGID_23_);stroke:#000000;}
	.st31{fill:url(#SVGID_24_);stroke:#000000;}
	.st32{fill:url(#SVGID_25_);stroke:#000000;}
	.st33{fill:url(#SVGID_26_);stroke:#000000;}
	.st34{fill:url(#SVGID_27_);stroke:#000000;}
	.st35{fill:url(#SVGID_28_);stroke:#000000;}
	.st36{fill:url(#SVGID_29_);stroke:#000000;}
	.st37{fill:url(#SVGID_30_);stroke:#000000;}
	.st38{fill:url(#SVGID_31_);stroke:#000000;}
	.st39{fill:url(#SVGID_32_);stroke:#000000;}
	.st40{fill:url(#SVGID_33_);stroke:#000000;}
	.st41{fill:url(#SVGID_34_);stroke:#000000;}
	.st42{fill:url(#SVGID_35_);stroke:#000000;}
	.st43{fill:url(#SVGID_36_);stroke:#000000;}
</style>
<filter  filterRes="100" id="shadow" x="0" y="0">
	<feGaussianBlur  stdDeviation="2 2"></feGaussianBlur>
	<feOffset  dx="2" dy="2"></feOffset>
</filter>
<g id="Camada_2">
	<rect x="-23.5" y="-16.1" class="st0" width="656.6" height="762.1"/>
</g>
<g id="Camada_1" xmlns:svg="http://www.w3.org/2000/svg">
	<g id="graph0" transform="scale(1 1) rotate(0) translate(4 712)">
		<g id="node1">
			<g class="st1">
				<polygon class="st2" points="28.5,-624.5 30,-650.5 28.5,-699.5 28.5,-699.5 72.8,-696.8 163.5,-699.5 163.5,-699.5 165,-688.3 
					163.5,-624.5 163.5,-624.5 100.7,-621.8 				"/>
			</g>
			
				<linearGradient id="SVGID_1_" gradientUnits="userSpaceOnUse" x1="-650.2249" y1="199.8695" x2="-649.2249" y2="198.8695" gradientTransform="matrix(136.5 0 0 -77.7 88785 14829.9023)">
				<stop  offset="0" style="stop-color:#FFFFFF"/>
				<stop  offset="1" style="stop-color:#DCDCDC"/>
			</linearGradient>
			<polygon class="st3" points="28.5,-624.5 30,-624.3 28.5,-699.5 28.5,-699.5 69.5,-696.8 163.5,-699.5 163.5,-699.5 165,-675.4 
				163.5,-624.5 163.5,-624.5 151.7,-621.8 			"/>
			<text transform="matrix(1 0 0 1 44.3364 -688.3)" class="st4 st5">PeerManagerImpl</text>
			<g class="st1">
				<line class="st2" x1="28.5" y1="-684.5" x2="163.5" y2="-684.5"/>
			</g>
			
				<linearGradient id="SVGID_2_" gradientUnits="userSpaceOnUse" x1="-649.9278" y1="36.25" x2="-648.9278" y2="35.25" gradientTransform="matrix(135 0 0 -1 87802.5 -648.5)">
				<stop  offset="0" style="stop-color:#FFFFFF"/>
				<stop  offset="1" style="stop-color:#FFFFFF"/>
			</linearGradient>
			<line class="st6" x1="28.5" y1="-684.5" x2="163.5" y2="-684.5"/>
			<text transform="matrix(1 0 0 1 56.6223 -673.3)" class="st4 st5">-m_chainman</text>
			<text transform="matrix(1 0 0 1 90.5823 -658.3)" class="st4 st5">...</text>
			<g class="st1">
				<line class="st2" x1="28.5" y1="-654.5" x2="163.5" y2="-654.5"/>
			</g>
			
				<linearGradient id="SVGID_3_" gradientUnits="userSpaceOnUse" x1="-649.9278" y1="36.25" x2="-648.9278" y2="35.25" gradientTransform="matrix(135 0 0 -1 87802.5 -618.5)">
				<stop  offset="0" style="stop-color:#FFFFFF"/>
				<stop  offset="1" style="stop-color:#FFFFFF"/>
			</linearGradient>
			<line class="st7" x1="28.5" y1="-654.5" x2="163.5" y2="-654.5"/>
			<text transform="matrix(1 0 0 1 38.0205 -643.3)" class="st4 st5">+ProcessMessage()</text>
			<text transform="matrix(1 0 0 1 90.5823 -628.3)" class="st4 st5">...</text>
		</g>
		<g id="node2">
			<g class="st1">
				<polygon class="st2" points="-0.5,-390.5 2.2,-473.6 -0.5,-525.5 -0.5,-525.5 28.2,-521.6 192.5,-525.5 192.5,-525.5 
					195.2,-479.1 192.5,-390.5 192.5,-390.5 153.9,-386.6 				"/>
			</g>
			
				<linearGradient id="SVGID_4_" gradientUnits="userSpaceOnUse" x1="-651.67" y1="200.808" x2="-650.67" y2="199.808" gradientTransform="matrix(195.7 0 0 -138.86 127532 27358.2168)">
				<stop  offset="0" style="stop-color:#FFFFFF"/>
				<stop  offset="1" style="stop-color:#DCDCDC"/>
			</linearGradient>
			<polygon class="st8" points="-0.5,-390.5 2.2,-407.5 -0.5,-525.5 -0.5,-525.5 119.7,-521.6 192.5,-525.5 192.5,-525.5 
				195.2,-498.5 192.5,-390.5 192.5,-390.5 194.1,-386.6 			"/>
			<text transform="matrix(1 0 0 1 39.271 -514.3)" class="st4 st5">ChainstateManager</text>
			<g class="st1">
				<line class="st2" x1="-0.5" y1="-510.5" x2="192.5" y2="-510.5"/>
			</g>
			
				<linearGradient id="SVGID_5_" gradientUnits="userSpaceOnUse" x1="-651.377" y1="36.25" x2="-650.377" y2="35.25" gradientTransform="matrix(193 0 0 -1 125763.5 -474.5)">
				<stop  offset="0" style="stop-color:#FFFFFF"/>
				<stop  offset="1" style="stop-color:#FFFFFF"/>
			</linearGradient>
			<line class="st9" x1="-0.5" y1="-510.5" x2="192.5" y2="-510.5"/>
			<text transform="matrix(1 0 0 1 42.886 -499.3)" class="st4 st5">-m_ibd_chainstate</text>
			<text transform="matrix(1 0 0 1 25.1792 -484.3)" class="st4 st5">-m_snapshot_chainstate</text>
			<text transform="matrix(1 0 0 1 34.5801 -469.3)" class="st4 st5">-m_active_chainstate</text>
			<text transform="matrix(1 0 0 1 90.5823 -454.3)" class="st4 st5">...</text>
			<g class="st1">
				<line class="st2" x1="-0.5" y1="-450.5" x2="192.5" y2="-450.5"/>
			</g>
			
				<linearGradient id="SVGID_6_" gradientUnits="userSpaceOnUse" x1="-651.377" y1="36.25" x2="-650.377" y2="35.25" gradientTransform="matrix(193 0 0 -1 125763.5 -414.5)">
				<stop  offset="0" style="stop-color:#FFFFFF"/>
				<stop  offset="1" style="stop-color:#FFFFFF"/>
			</linearGradient>
			<line class="st10" x1="-0.5" y1="-450.5" x2="192.5" y2="-450.5"/>
			<text transform="matrix(1 0 0 1 39.0996 -439.3)" class="st4 st5">+ActiveChainstate()</text>
			<text transform="matrix(1 0 0 1 35.4973 -424.3)" class="st4 st5">+ProcessNewBlock()</text>
			<text transform="matrix(1 0 0 1 10.9287 -409.3)" class="st4 st5">+ProcessNewBlockHeaders()</text>
			<text transform="matrix(1 0 0 1 90.5823 -394.3)" class="st4 st5">...</text>
		</g>
		<g id="edge1">
			<path class="st11" d="M96-612.2c0,23,0,50.9,0,76.6"/>
			<g class="st1">
				<path class="st11" d="M96-612.2c0,23,0,50.9,0,76.6"/>
			</g>
			<g class="st1">
				<polygon class="st2" points="96,-612.4 98.4,-615.2 100,-618.4 100,-618.4 99.8,-618.8 96,-624.4 96,-624.4 94.8,-621.8 
					92,-618.4 92,-618.4 92.4,-618 				"/>
			</g>
			
				<linearGradient id="SVGID_7_" gradientUnits="userSpaceOnUse" x1="-573.623" y1="188.1687" x2="-572.623" y2="187.1687" gradientTransform="matrix(8 0 0 -12 4681 1633.5811)">
				<stop  offset="0" style="stop-color:#FFFFFF"/>
				<stop  offset="1" style="stop-color:#FFFFFF"/>
			</linearGradient>
			<polygon class="st12" points="96,-612.4 97.4,-613.8 100,-618.4 100,-618.4 99.5,-619.3 96,-624.4 96,-624.4 95,-622.2 
				92,-618.4 92,-618.4 94.2,-615.4 			"/>
			<g class="st1">
				<polygon class="st2" points="96,-525.5 98,-528.9 100.5,-535.5 100.5,-535.5 100.1,-534.7 96,-530.5 96,-530.5 96.1,-530.8 
					96,-535.5 96,-535.5 96.1,-535.5 96,-535.5 96,-535.5 96.1,-535.5 96,-535.5 96,-535.5 96.3,-533.2 96,-530.5 96,-530.5 
					95.4,-531.2 91.5,-535.5 91.5,-535.5 92.3,-534 96,-525.5 96,-525.5 96,-525.5 				"/>
			</g>
			
				<linearGradient id="SVGID_8_" gradientUnits="userSpaceOnUse" x1="-582.5392" y1="185.6805" x2="-581.5392" y2="184.6805" gradientTransform="matrix(8.9999 0 0 -10.0936 5335.4351 1337.3665)">
				<stop  offset="0" style="stop-color:#969696"/>
				<stop  offset="1" style="stop-color:#000000"/>
			</linearGradient>
			<polygon class="st13" points="96,-525.5 99.8,-532.5 100.5,-535.5 100.5,-535.5 97.6,-531.4 96,-530.5 96,-530.5 96.1,-530.8 
				96,-535.5 96,-535.5 96.2,-535.4 96,-535.5 96,-535.5 96.1,-535.4 96,-535.5 96,-535.5 96.1,-535.1 96,-530.5 96,-530.5 
				93.9,-532.8 91.5,-535.5 91.5,-535.5 91.9,-534.9 96,-525.5 96,-525.5 96.1,-525.4 			"/>
			<text transform="matrix(1 0 0 1 86.3788 -540.628)" class="st4 st14">1</text>
			<text transform="matrix(1 0 0 1 80.8771 -601.925)" class="st4 st14">send data</text>
		</g>
		<g id="node3">
			<g class="st1">
				<polygon class="st2" points="12,-134.5 15.3,-217.5 12,-299.5 12,-299.5 79.4,-296.1 180,-299.5 180,-299.5 183.3,-288.7 
					180,-134.5 180,-134.5 179.4,-131.1 				"/>
			</g>
			
				<linearGradient id="SVGID_9_" gradientUnits="userSpaceOnUse" x1="-651.1995" y1="201.0142" x2="-650.1995" y2="200.0142" gradientTransform="matrix(171.3 0 0 -168.36 111562.5 33543.2188)">
				<stop  offset="0" style="stop-color:#FFFFFF"/>
				<stop  offset="1" style="stop-color:#DCDCDC"/>
			</linearGradient>
			<polygon class="st15" points="12,-134.5 15.3,-222.9 12,-299.5 12,-299.5 40.1,-296.1 180,-299.5 180,-299.5 183.3,-203.8 
				180,-134.5 180,-134.5 168.2,-131.1 			"/>
			<text transform="matrix(1 0 0 1 59.1455 -288.3)" class="st4 st5">CChainState</text>
			<g class="st1">
				<line class="st2" x1="12" y1="-284.5" x2="180" y2="-284.5"/>
			</g>
			
				<linearGradient id="SVGID_10_" gradientUnits="userSpaceOnUse" x1="-650.875" y1="36.25" x2="-649.875" y2="35.25" gradientTransform="matrix(168 0 0 -1 109401 -248.5)">
				<stop  offset="0" style="stop-color:#FFFFFF"/>
				<stop  offset="1" style="stop-color:#FFFFFF"/>
			</linearGradient>
			<line class="st16" x1="12" y1="-284.5" x2="180" y2="-284.5"/>
			<text transform="matrix(1 0 0 1 48.3132 -273.3)" class="st4 st5">#m_coins_views</text>
			<text transform="matrix(1 0 0 1 90.5823 -258.3)" class="st4 st5">...</text>
			<g class="st1">
				<line class="st2" x1="12" y1="-254.5" x2="180" y2="-254.5"/>
			</g>
			
				<linearGradient id="SVGID_11_" gradientUnits="userSpaceOnUse" x1="-650.875" y1="36.25" x2="-649.875" y2="35.25" gradientTransform="matrix(168 0 0 -1 109401 -218.5)">
				<stop  offset="0" style="stop-color:#FFFFFF"/>
				<stop  offset="1" style="stop-color:#FFFFFF"/>
			</linearGradient>
			<line class="st17" x1="12" y1="-254.5" x2="180" y2="-254.5"/>
			<text transform="matrix(1 0 0 1 37.3 -243.3)" class="st4 st5">+FlushStateToDisk()</text>
			<text transform="matrix(1 0 0 1 34.7642 -228.3)" class="st4 st5">+ActivateBestChain()</text>
			<text transform="matrix(1 0 0 1 52.1091 -213.3)" class="st4 st5">+AcceptBlock()</text>
			<text transform="matrix(1 0 0 1 39.8264 -198.3)" class="st4 st5">+DisconnectBlock()</text>
			<text transform="matrix(1 0 0 1 47.7705 -183.3)" class="st4 st5">+ConnectBlock()</text>
			<text transform="matrix(1 0 0 1 23.0242 -168.3)" class="st4 st5">-ActivateBestChainStep()</text>
			<text transform="matrix(1 0 0 1 56.5081 -153.3)" class="st4 st5">-ConnectTip()</text>
			<text transform="matrix(1 0 0 1 90.5823 -138.3)" class="st4 st5">...</text>
		</g>
		<g id="edge2">
			<path class="st11" d="M96-378.3c0,21.9,0,45.9,0,68.5"/>
			<g class="st1">
				<path class="st11" d="M96-378.3c0,21.9,0,45.9,0,68.5"/>
			</g>
			<g class="st1">
				<polygon class="st2" points="96,-378.4 97.2,-379.6 100,-384.4 100,-384.4 98.7,-386.6 96,-390.4 96,-390.4 94.8,-388 
					92,-384.4 92,-384.4 96.1,-378.7 				"/>
			</g>
			
				<linearGradient id="SVGID_12_" gradientUnits="userSpaceOnUse" x1="-573.6205" y1="188.1711" x2="-572.6205" y2="187.1711" gradientTransform="matrix(8 0 0 -12 4681 1867.575)">
				<stop  offset="0" style="stop-color:#FFFFFF"/>
				<stop  offset="1" style="stop-color:#FFFFFF"/>
			</linearGradient>
			<polygon class="st18" points="96,-378.4 96.3,-378.5 100,-384.4 100,-384.4 97.5,-388.4 96,-390.4 96,-390.4 93.2,-385.1 
				92,-384.4 92,-384.4 93,-383 			"/>
			<g class="st1">
				<polygon class="st2" points="96,-299.5 98.5,-303.7 100.5,-309.5 100.5,-309.5 100.6,-309.3 96,-304.5 96,-304.5 96.2,-306 
					96,-309.5 96,-309.5 96.1,-309.5 96,-309.5 96,-309.5 96.4,-309.2 96,-309.5 96,-309.5 96.3,-305.2 96,-304.5 96,-304.5 
					93.7,-307.1 91.5,-309.5 91.5,-309.5 93.6,-305.3 96,-299.5 96,-299.5 96.1,-299.4 				"/>
			</g>
			
				<linearGradient id="SVGID_13_" gradientUnits="userSpaceOnUse" x1="-582.5386" y1="185.6761" x2="-581.5386" y2="184.6761" gradientTransform="matrix(8.9999 0 0 -10.0905 5335.4351 1562.7479)">
				<stop  offset="0" style="stop-color:#969696"/>
				<stop  offset="1" style="stop-color:#000000"/>
			</linearGradient>
			<polygon class="st19" points="96,-299.5 98.7,-304.2 100.5,-309.5 100.5,-309.5 98.2,-306.1 96,-304.5 96,-304.5 96.4,-307.1 
				96,-309.5 96,-309.5 96.1,-309.4 96,-309.5 96,-309.5 96.3,-309.3 96,-309.5 96,-309.5 96.2,-308.2 96,-304.5 96,-304.5 
				93,-307.8 91.5,-309.5 91.5,-309.5 92.3,-308.1 96,-299.5 96,-299.5 96.1,-299.4 			"/>
			<text transform="matrix(1 0 0 1 86.3788 -314.623)" class="st4 st14">2</text>
		</g>
		<g id="node4">
			<g class="st1">
				<polygon class="st2" points="164.2,-43.5 165.2,-40.7 21.8,-43.5 21.8,-43.5 22.9,-19 21.8,-0.5 21.8,-0.5 71.9,2.5 170.2,-0.5 
					170.2,-0.5 171.2,-21.9 170.2,-37.5 170.2,-37.5 168.1,-39.7 				"/>
			</g>
			
				<linearGradient id="SVGID_14_" gradientUnits="userSpaceOnUse" x1="-650.6355" y1="198.3937" x2="-649.6355" y2="197.3937" gradientTransform="matrix(149.3195 0 0 -45.97 97175.0469 9076.4404)">
				<stop  offset="0" style="stop-color:#FFFFFF"/>
				<stop  offset="1" style="stop-color:#F5DEB3"/>
			</linearGradient>
			<polygon class="st20" points="164.2,-43.5 137.9,-40.7 21.8,-43.5 21.8,-43.5 22.9,-7.9 21.8,-0.5 21.8,-0.5 47.4,2.5 
				170.2,-0.5 170.2,-0.5 171.1,-6.1 170.2,-37.5 170.2,-37.5 170,-37.8 			"/>
			<g class="st1">
				<line class="st2" x1="164.2" y1="-43.5" x2="164.2" y2="-37.5"/>
			</g>
			
				<linearGradient id="SVGID_15_" gradientUnits="userSpaceOnUse" x1="-4.25" y1="174.0833" x2="-3.25" y2="173.0833" gradientTransform="matrix(1 0 0 -6 168.25 1002.5)">
				<stop  offset="0" style="stop-color:#FFFFFF"/>
				<stop  offset="1" style="stop-color:#FFFFFF"/>
			</linearGradient>
			<line class="st21" x1="164.2" y1="-43.5" x2="164.2" y2="-37.5"/>
			<g class="st1">
				<line class="st2" x1="170.2" y1="-37.5" x2="164.2" y2="-37.5"/>
			</g>
			
				<linearGradient id="SVGID_16_" gradientUnits="userSpaceOnUse" x1="-546.25" y1="36.25" x2="-545.25" y2="35.25" gradientTransform="matrix(6 0 0 -1 3443.25 -1.5)">
				<stop  offset="0" style="stop-color:#FFFFFF"/>
				<stop  offset="1" style="stop-color:#FFFFFF"/>
			</linearGradient>
			<line class="st22" x1="170.2" y1="-37.5" x2="164.2" y2="-37.5"/>
			<text transform="matrix(1 0 0 1 33.8596 -18.3)" class="st4 st5">chainstate/ (LevelDB)</text>
		</g>
		<g id="edge3">
			<path class="st23" d="M96-134.4c0,33.3,0,69.1,0,90.9"/>
			<g class="st1">
				<path class="st23" d="M96-134.4c0,33.3,0,69.1,0,90.9"/>
			</g>
			<text transform="matrix(1 0 0 1 70.2631 -58.6497)" class="st4 st14">stores in</text>
		</g>
		<g id="node5">
			<g class="st1">
				<polygon class="st2" points="243.5,-617 245.3,-642.7 243.5,-707 243.5,-707 260,-703.9 396.5,-707 396.5,-707 398.3,-633.5 
					396.5,-617 396.5,-617 399.1,-613.9 				"/>
			</g>
			
				<linearGradient id="SVGID_17_" gradientUnits="userSpaceOnUse" x1="-650.7892" y1="200.2215" x2="-649.7892" y2="199.2215" gradientTransform="matrix(154.8 0 0 -93.06 100986.4922 17925.1191)">
				<stop  offset="0" style="stop-color:#FFFFFF"/>
				<stop  offset="1" style="stop-color:#DCDCDC"/>
			</linearGradient>
			<polygon class="st24" points="243.5,-617 245.3,-619.5 243.5,-707 243.5,-707 287.7,-703.9 396.5,-707 396.5,-707 398.3,-653 
				396.5,-617 396.5,-617 365.6,-613.9 			"/>
			<text transform="matrix(1 0 0 1 265.8069 -695.8)" class="st4 st5">validation.cpp (file)</text>
			<g class="st1">
				<line class="st2" x1="243.5" y1="-692" x2="396.5" y2="-692"/>
			</g>
			
				<linearGradient id="SVGID_18_" gradientUnits="userSpaceOnUse" x1="-650.4951" y1="36.25" x2="-649.4951" y2="35.25" gradientTransform="matrix(153 0 0 -1 99807.5 -656)">
				<stop  offset="0" style="stop-color:#FFFFFF"/>
				<stop  offset="1" style="stop-color:#FFFFFF"/>
			</linearGradient>
			<line class="st25" x1="243.5" y1="-692" x2="396.5" y2="-692"/>
			<text transform="matrix(1 0 0 1 271.5991 -680.8)" class="st4 st5">DumpMempool()</text>
			<text transform="matrix(1 0 0 1 274.4778 -665.8)" class="st4 st5">LoadMempool()</text>
			<text transform="matrix(1 0 0 1 265.2261 -650.8)" class="st4 st5">WriteBlockToDisk()</text>
			<text transform="matrix(1 0 0 1 256.4346 -635.8)" class="st4 st5">ReadBlockFromDisk()</text>
			<text transform="matrix(1 0 0 1 314.5823 -620.8)" class="st4 st5">...</text>
		</g>
		<g id="node6">
			<g class="st1">
				<polygon class="st2" points="210.5,-440 211.2,-439.5 210.5,-476 210.5,-476 275.1,-473.9 317.5,-476 317.5,-476 318.4,-446.9 
					317.5,-440 317.5,-440 313.8,-437.9 				"/>
			</g>
			
				<linearGradient id="SVGID_19_" gradientUnits="userSpaceOnUse" x1="-648.9492" y1="197.6598" x2="-647.9492" y2="196.6598" gradientTransform="matrix(107.806 0 0 -38.14 70172.4297 7062.2832)">
				<stop  offset="0" style="stop-color:#FFFFFF"/>
				<stop  offset="1" style="stop-color:#DCDCDC"/>
			</linearGradient>
			<polygon class="st26" points="210.5,-440 211.6,-467.5 210.5,-476 210.5,-476 233.6,-473.9 317.5,-476 317.5,-476 318.3,-467.4 
				317.5,-440 317.5,-440 316.4,-437.9 			"/>
			<text transform="matrix(1 0 0 1 224.6318 -454.3)" class="st4 st5">CTxMemPool</text>
		</g>
		<g id="edge4">
			<path class="st23" d="M307.7-616.7c-11,39.8-26.9,97-36.2,130.5"/>
			<g class="st1">
				<path class="st23" d="M307.7-616.7c-11,39.8-26.9,97-36.2,130.5"/>
			</g>
			<g class="st1">
				<polygon class="st2" points="268.8,-476.2 272.4,-479.8 275.8,-484.7 275.8,-484.7 275.7,-484.4 270.1,-481.1 270.1,-481.1 
					270.3,-481.1 271.5,-485.9 271.5,-485.9 271.5,-485.8 271.5,-485.9 271.5,-485.9 271.5,-485.9 271.5,-485.9 271.5,-485.9 
					270.8,-481.2 270.1,-481.1 270.1,-481.1 269.9,-481.8 267.1,-487.1 267.1,-487.1 267.6,-485.3 268.8,-476.2 268.8,-476.2 
					268.9,-476.1 				"/>
			</g>
			
				<linearGradient id="SVGID_20_" gradientUnits="userSpaceOnUse" x1="-579.9464" y1="186.7073" x2="-578.9464" y2="185.7073" gradientTransform="matrix(8.673 0 0 -10.8598 5296.9307 1540.5989)">
				<stop  offset="0" style="stop-color:#969696"/>
				<stop  offset="1" style="stop-color:#000000"/>
			</linearGradient>
			<polygon class="st27" points="268.8,-476.2 270.2,-477.3 275.8,-484.7 275.8,-484.7 272.6,-481.9 270.1,-481.1 270.1,-481.1 
				270.7,-482.3 271.5,-485.9 271.5,-485.9 271.5,-485.9 271.5,-485.9 271.5,-485.9 271.5,-485.7 271.5,-485.9 271.5,-485.9 
				270.8,-481.8 270.1,-481.1 270.1,-481.1 268.9,-483.8 267.1,-487.1 267.1,-487.1 267.5,-485.9 268.8,-476.2 268.8,-476.2 
				268.8,-476.2 			"/>
			<text transform="matrix(1 0 0 1 298.7205 -593.032)" class="st4 st14">uses</text>
		</g>
		<g id="node11">
			<g class="st1">
				<polygon class="st2" points="342,-440 342.8,-443.2 342,-476 342,-476 380.9,-474.6 412,-476 412,-476 412.7,-474.3 412,-440 
					412,-440 410.8,-438.6 				"/>
			</g>
			
				<linearGradient id="SVGID_21_" gradientUnits="userSpaceOnUse" x1="-645.8267" y1="197.5673" x2="-644.8267" y2="196.5673" gradientTransform="matrix(71.012 0 0 -37.4 46203.8555 6912.7988)">
				<stop  offset="0" style="stop-color:#FFFFFF"/>
				<stop  offset="1" style="stop-color:#DCDCDC"/>
			</linearGradient>
			<polygon class="st28" points="342,-440 342.9,-453 342,-476 342,-476 363.5,-474.6 412,-476 412,-476 413,-450 412,-440 
				412,-440 409.2,-438.6 			"/>
			<text transform="matrix(1 0 0 1 356.4114 -454.3)" class="st4 st5">CBlock</text>
		</g>
		<g id="edge8">
			<path class="st23" d="M332.5-616.7c11.2,39.8,27.4,97,36.8,130.5"/>
			<g class="st1">
				<path class="st23" d="M332.5-616.7c11.2,39.8,27.4,97,36.8,130.5"/>
			</g>
			<g class="st1">
				<polygon class="st2" points="372.1,-476.2 373.3,-480.7 373.8,-487.1 373.8,-487.1 373.8,-486.8 370.8,-481 370.8,-481 
					370.4,-483.1 369.4,-485.9 369.4,-485.9 369.6,-485.8 369.4,-485.9 369.4,-485.9 369.7,-485.7 369.4,-485.9 369.4,-485.9 
					370.6,-482.6 370.8,-481 370.8,-481 370.3,-481.3 365.1,-484.6 365.1,-484.6 366.5,-483 372.1,-476.2 372.1,-476.2 
					372.2,-476.2 				"/>
			</g>
			
				<linearGradient id="SVGID_22_" gradientUnits="userSpaceOnUse" x1="-579.6412" y1="187.0935" x2="-578.6412" y2="186.0935" gradientTransform="matrix(8.661 0 0 -10.9927 5387.0522 1567.4447)">
				<stop  offset="0" style="stop-color:#969696"/>
				<stop  offset="1" style="stop-color:#000000"/>
			</linearGradient>
			<polygon class="st29" points="372.1,-476.2 372.4,-476.1 373.8,-487.1 373.8,-487.1 372.1,-482.6 370.8,-481 370.8,-481 
				370.7,-481.7 369.4,-485.9 369.4,-485.9 369.6,-485.7 369.4,-485.9 369.4,-485.9 369.5,-485.8 369.4,-485.9 369.4,-485.9 
				369.7,-485.4 370.8,-481 370.8,-481 368.5,-482.4 365.1,-484.6 365.1,-484.6 369,-480 372.1,-476.2 372.1,-476.2 372.2,-476.2 
							"/>
			<text transform="matrix(1 0 0 1 333.6345 -596.74)" class="st4 st14">uses</text>
		</g>
		<g id="node7">
			<g class="st1">
				<polygon class="st2" points="305.2,-238.5 283.1,-236.6 210.8,-238.5 210.8,-238.5 211.7,-230.8 210.8,-195.5 210.8,-195.5 
					213.6,-193.5 311.2,-195.5 311.2,-195.5 312.1,-209.6 311.2,-232.5 311.2,-232.5 310,-233.8 				"/>
			</g>
			
				<linearGradient id="SVGID_23_" gradientUnits="userSpaceOnUse" x1="-648.5789" y1="198.3063" x2="-647.5789" y2="197.3063" gradientTransform="matrix(101.2966 0 0 -45.01 65909 8687.5186)">
				<stop  offset="0" style="stop-color:#FFFFFF"/>
				<stop  offset="1" style="stop-color:#F5DEB3"/>
			</linearGradient>
			<polygon class="st30" points="305.2,-238.5 270.9,-236.6 210.8,-238.5 210.8,-238.5 211.8,-214.5 210.8,-195.5 210.8,-195.5 
				219.5,-193.5 311.2,-195.5 311.2,-195.5 312,-199.7 311.2,-232.5 311.2,-232.5 307.9,-235.8 			"/>
			<g class="st1">
				<line class="st2" x1="305.2" y1="-238.5" x2="305.2" y2="-232.5"/>
			</g>
			
				<linearGradient id="SVGID_24_" gradientUnits="userSpaceOnUse" x1="-4.25" y1="174.0833" x2="-3.25" y2="173.0833" gradientTransform="matrix(1 0 0 -6 309.25 807.5)">
				<stop  offset="0" style="stop-color:#FFFFFF"/>
				<stop  offset="1" style="stop-color:#FFFFFF"/>
			</linearGradient>
			<line class="st31" x1="305.2" y1="-238.5" x2="305.2" y2="-232.5"/>
			<g class="st1">
				<line class="st2" x1="311.2" y1="-232.5" x2="305.2" y2="-232.5"/>
			</g>
			
				<linearGradient id="SVGID_25_" gradientUnits="userSpaceOnUse" x1="-546.25" y1="36.25" x2="-545.25" y2="35.25" gradientTransform="matrix(6 0 0 -1 3584.25 -196.5)">
				<stop  offset="0" style="stop-color:#FFFFFF"/>
				<stop  offset="1" style="stop-color:#FFFFFF"/>
			</linearGradient>
			<line class="st32" x1="311.2" y1="-232.5" x2="305.2" y2="-232.5"/>
			<text transform="matrix(1 0 0 1 223.425 -213.3)" class="st4 st5">mempool.dat</text>
		</g>
		<g id="edge5">
			<path class="st23" d="M263.8-439.8c-0.5,42.9-1.9,154.7-2.5,201.1"/>
			<g class="st1">
				<path class="st23" d="M263.8-439.8c-0.5,42.9-1.9,154.7-2.5,201.1"/>
			</g>
			<text transform="matrix(1 0 0 1 235.7595 -253.882)" class="st4 st14">stores in</text>
		</g>
		<g id="node8">
			<g class="st1">
				<polygon class="st2" points="477,-644 477.9,-661.4 477,-680 477,-680 509.1,-677.9 581,-680 581,-680 581.9,-658.2 581,-644 
					581,-644 577.7,-641.9 				"/>
			</g>
			
				<linearGradient id="SVGID_26_" gradientUnits="userSpaceOnUse" x1="-648.7783" y1="197.6524" x2="-647.7783" y2="196.6524" gradientTransform="matrix(104.8308 0 0 -38.08 68490.1797 6846.1636)">
				<stop  offset="0" style="stop-color:#FFFFFF"/>
				<stop  offset="1" style="stop-color:#DCDCDC"/>
			</linearGradient>
			<polygon class="st33" points="477,-644 477.9,-661.6 477,-680 477,-680 483,-677.9 581,-680 581,-680 581.8,-668.5 581,-644 
				581,-644 559.6,-641.9 			"/>
			<text transform="matrix(1 0 0 1 490.4697 -658.3)" class="st4 st5">CDBWrapper</text>
		</g>
		<g id="node9">
			<g class="st1">
				<polygon class="st2" points="461,-428 462.2,-433.4 461,-488 461,-488 467.8,-485.3 597,-488 597,-488 598.2,-462.7 597,-428 
					597,-428 533.9,-425.3 				"/>
			</g>
			
				<linearGradient id="SVGID_27_" gradientUnits="userSpaceOnUse" x1="-650.2465" y1="199.362" x2="-649.2465" y2="198.362" gradientTransform="matrix(137.2 0 0 -62.72 89676.0078 12015.4404)">
				<stop  offset="0" style="stop-color:#FFFFFF"/>
				<stop  offset="1" style="stop-color:#DCDCDC"/>
			</linearGradient>
			<polygon class="st34" points="461,-428 462.2,-473.2 461,-488 461,-488 531.3,-485.3 597,-488 597,-488 598.2,-483.5 597,-428 
				597,-428 545.3,-425.3 			"/>
			<text transform="matrix(1 0 0 1 486.2581 -476.8)" class="st4 st5">CBlockTreeDB</text>
			<g class="st1">
				<line class="st2" x1="461" y1="-473" x2="597" y2="-473"/>
			</g>
			
				<linearGradient id="SVGID_28_" gradientUnits="userSpaceOnUse" x1="-649.9633" y1="36.25" x2="-648.9633" y2="35.25" gradientTransform="matrix(136 0 0 -1 88890 -437)">
				<stop  offset="0" style="stop-color:#FFFFFF"/>
				<stop  offset="1" style="stop-color:#FFFFFF"/>
			</linearGradient>
			<line class="st35" x1="461" y1="-473" x2="597" y2="-473"/>
			<text transform="matrix(1 0 0 1 523.5823 -461.8)" class="st4 st5">...</text>
			<g class="st1">
				<line class="st2" x1="461" y1="-458" x2="597" y2="-458"/>
			</g>
			
				<linearGradient id="SVGID_29_" gradientUnits="userSpaceOnUse" x1="-649.9633" y1="36.25" x2="-648.9633" y2="35.25" gradientTransform="matrix(136 0 0 -1 88890 -422)">
				<stop  offset="0" style="stop-color:#FFFFFF"/>
				<stop  offset="1" style="stop-color:#FFFFFF"/>
			</linearGradient>
			<line class="st36" x1="461" y1="-458" x2="597" y2="-458"/>
			<text transform="matrix(1 0 0 1 474.7561 -446.8)" class="st4 st5">+WriteBatchSync()</text>
			<text transform="matrix(1 0 0 1 523.5823 -431.8)" class="st4 st5">...</text>
		</g>
		<g id="edge6">
			<path class="st11" d="M529-633.4c0,38.1,0,106.5,0,145.4"/>
			<g class="st1">
				<path class="st11" d="M529-633.4c0,38.1,0,106.5,0,145.4"/>
			</g>
			<g class="st1">
				<polygon class="st2" points="525.5,-633.8 527.2,-637.3 529,-643.8 529,-643.8 530.1,-641.2 532.5,-633.8 532.5,-633.8 
					532.4,-633.6 				"/>
			</g>
			
				<linearGradient id="SVGID_30_" gradientUnits="userSpaceOnUse" x1="-562.1192" y1="185.6673" x2="-561.1192" y2="184.6673" gradientTransform="matrix(7 0 0 -10.2383 4459.5 1258.3672)">
				<stop  offset="0" style="stop-color:#FFFFFF"/>
				<stop  offset="1" style="stop-color:#FFFFFF"/>
			</linearGradient>
			<polygon class="st37" points="525.5,-633.8 527.2,-637.2 529,-643.8 529,-643.8 529.4,-643.1 532.5,-633.8 532.5,-633.8 
				531,-633.5 			"/>
		</g>
		<g id="node10">
			<g class="st1">
				<polygon class="st2" points="603,-238.5 510.5,-235.4 449,-238.5 449,-238.5 450,-225.8 449,-195.5 449,-195.5 490.9,-192.3 
					609,-195.5 609,-195.5 609.8,-204.2 609,-232.5 609,-232.5 608.9,-232.6 				"/>
			</g>
			
				<linearGradient id="SVGID_31_" gradientUnits="userSpaceOnUse" x1="-650.9437" y1="198.4137" x2="-649.9437" y2="197.4137" gradientTransform="matrix(160.7621 0 0 -46.2 105097.2031 8927.8994)">
				<stop  offset="0" style="stop-color:#FFFFFF"/>
				<stop  offset="1" style="stop-color:#F5DEB3"/>
			</linearGradient>
			<polygon class="st38" points="603,-238.5 555.3,-235.4 449,-238.5 449,-238.5 450,-217 449,-195.5 449,-195.5 466.8,-192.3 
				609,-195.5 609,-195.5 609.8,-196.8 609,-232.5 609,-232.5 605.8,-235.8 			"/>
			<g class="st1">
				<line class="st2" x1="603" y1="-238.5" x2="603" y2="-232.5"/>
			</g>
			
				<linearGradient id="SVGID_32_" gradientUnits="userSpaceOnUse" x1="-4.25" y1="174.0833" x2="-3.25" y2="173.0833" gradientTransform="matrix(1 0 0 -6 607 807.5)">
				<stop  offset="0" style="stop-color:#FFFFFF"/>
				<stop  offset="1" style="stop-color:#FFFFFF"/>
			</linearGradient>
			<line class="st39" x1="603" y1="-238.5" x2="603" y2="-232.5"/>
			<g class="st1">
				<line class="st2" x1="609" y1="-232.5" x2="603" y2="-232.5"/>
			</g>
			
				<linearGradient id="SVGID_33_" gradientUnits="userSpaceOnUse" x1="-546.25" y1="36.25" x2="-545.25" y2="35.25" gradientTransform="matrix(6 0 0 -1 3882 -196.5)">
				<stop  offset="0" style="stop-color:#FFFFFF"/>
				<stop  offset="1" style="stop-color:#FFFFFF"/>
			</linearGradient>
			<line class="st40" x1="609" y1="-232.5" x2="603" y2="-232.5"/>
			<text transform="matrix(1 0 0 1 462.5273 -213.3)" class="st4 st5">blocks/index (LevelDB)</text>
		</g>
		<g id="edge7">
			<path class="st23" d="M529-427.7c0,49,0,146.3,0,188.9"/>
			<g class="st1">
				<path class="st23" d="M529-427.7c0,49,0,146.3,0,188.9"/>
			</g>
			<text transform="matrix(1 0 0 1 503.2634 -253.872)" class="st4 st14">stores in</text>
		</g>
		<g id="node12">
			<g class="st1">
				<polygon class="st2" points="424.2,-238.5 390.6,-236.6 329.8,-238.5 329.8,-238.5 330.9,-210.9 329.8,-195.5 329.8,-195.5 
					342,-193.5 430.2,-195.5 430.2,-195.5 431.1,-210.7 430.2,-232.5 430.2,-232.5 429,-233.7 				"/>
			</g>
			
				<linearGradient id="SVGID_34_" gradientUnits="userSpaceOnUse" x1="-648.5956" y1="198.3057" x2="-647.5956" y2="197.3057" gradientTransform="matrix(101.55 0 0 -45.01 66193.9688 8687.5186)">
				<stop  offset="0" style="stop-color:#FFFFFF"/>
				<stop  offset="1" style="stop-color:#F5DEB3"/>
			</linearGradient>
			<polygon class="st41" points="424.2,-238.5 415.2,-236.6 329.8,-238.5 329.8,-238.5 330.8,-213.7 329.8,-195.5 329.8,-195.5 
				385.5,-193.5 430.2,-195.5 430.2,-195.5 431.3,-225.6 430.2,-232.5 430.2,-232.5 429.5,-233.3 			"/>
			<g class="st1">
				<line class="st2" x1="424.2" y1="-238.5" x2="424.2" y2="-232.5"/>
			</g>
			
				<linearGradient id="SVGID_35_" gradientUnits="userSpaceOnUse" x1="-4.25" y1="174.0833" x2="-3.25" y2="173.0833" gradientTransform="matrix(1 0 0 -6 428.25 807.5)">
				<stop  offset="0" style="stop-color:#FFFFFF"/>
				<stop  offset="1" style="stop-color:#FFFFFF"/>
			</linearGradient>
			<line class="st42" x1="424.2" y1="-238.5" x2="424.2" y2="-232.5"/>
			<g class="st1">
				<line class="st2" x1="430.2" y1="-232.5" x2="424.2" y2="-232.5"/>
			</g>
			
				<linearGradient id="SVGID_36_" gradientUnits="userSpaceOnUse" x1="-546.25" y1="36.25" x2="-545.25" y2="35.25" gradientTransform="matrix(6 0 0 -1 3703.25 -196.5)">
				<stop  offset="0" style="stop-color:#FFFFFF"/>
				<stop  offset="1" style="stop-color:#FFFFFF"/>
			</linearGradient>
			<line class="st43" x1="430.2" y1="-232.5" x2="424.2" y2="-232.5"/>
			<text transform="matrix(1 0 0 1 342.7932 -213.3)" class="st4 st5">blocks/ (.dat)</text>
		</g>
		<g id="edge9">
			<path class="st23" d="M377.2-439.8c0.5,42.9,1.9,154.7,2.5,201.1"/>
			<g class="st1">
				<path class="st23" d="M377.2-439.8c0.5,42.9,1.9,154.7,2.5,201.1"/>
			</g>
			<text transform="matrix(1 0 0 1 353.7675 -253.71)" class="st4 st14">stores in</text>
		</g>
	</g>
</g>
</svg>
