<?xml version="1.0" encoding="utf-8"?>
<!-- Generator: Adobe Illustrator 25.2.3, SVG Export Plug-In . SVG Version: 6.00 Build 0)  -->
<svg version="1.1" xmlns="http://www.w3.org/2000/svg" xmlns:xlink="http://www.w3.org/1999/xlink" x="0px" y="0px"
	 viewBox="0 0 494 1412" style="enable-background:new 0 0 494 1412;" xml:space="preserve">
<style type="text/css">
	.st0{fill:#FFFFFF;}
	.st1{filter:url(#shadow);}
	.st2{opacity:0.2;}
	.st3{fill:url(#SVGID_1_);stroke:#000000;}
	.st4{font-family:'ArialMT';}
	.st5{font-size:13px;}
	.st6{fill:url(#SVGID_2_);stroke:#000000;}
	.st7{fill:url(#SVGID_3_);stroke:#000000;}
	.st8{fill:url(#SVGID_4_);stroke:#000000;}
	.st9{fill:url(#SVGID_5_);stroke:#000000;}
	.st10{fill:url(#SVGID_6_);stroke:#000000;}
	.st11{fill:none;stroke:#000000;}
	.st12{fill:url(#SVGID_7_);stroke:#000000;}
	.st13{fill:url(#SVGID_8_);stroke:#000000;}
	.st14{font-size:10px;}
	.st15{fill:url(#SVGID_9_);stroke:#000000;}
	.st16{fill:url(#SVGID_10_);stroke:#000000;}
	.st17{fill:url(#SVGID_11_);stroke:#000000;}
	.st18{fill:url(#SVGID_12_);stroke:#000000;}
	.st19{fill:url(#SVGID_13_);stroke:#000000;}
	.st20{fill:url(#SVGID_14_);stroke:#000000;}
	.st21{fill:url(#SVGID_15_);stroke:#000000;}
	.st22{fill:url(#SVGID_16_);stroke:#000000;}
	.st23{fill:url(#SVGID_17_);stroke:#000000;}
	.st24{fill:url(#SVGID_18_);stroke:#000000;}
	.st25{fill:url(#SVGID_19_);stroke:#000000;}
	.st26{fill:url(#SVGID_20_);stroke:#000000;}
	.st27{fill:url(#SVGID_21_);stroke:#000000;}
	.st28{fill:url(#SVGID_22_);stroke:#000000;}
	.st29{fill:url(#SVGID_23_);stroke:#000000;}
	.st30{fill:url(#SVGID_24_);stroke:#000000;}
	.st31{fill:url(#SVGID_25_);stroke:#000000;}
	.st32{fill:url(#SVGID_26_);stroke:#000000;}
	.st33{fill:url(#SVGID_27_);stroke:#000000;}
	.st34{fill:url(#SVGID_28_);stroke:#000000;}
	.st35{fill:url(#SVGID_29_);stroke:#000000;}
	.st36{fill:url(#SVGID_30_);stroke:#000000;}
	.st37{fill:url(#SVGID_31_);stroke:#000000;}
	.st38{fill:none;stroke:#000000;stroke-dasharray:5,2;}
	.st39{fill:url(#SVGID_32_);stroke:#000000;}
	.st40{fill:url(#SVGID_33_);stroke:#000000;}
	.st41{fill:url(#SVGID_34_);stroke:#000000;}
	.st42{fill:url(#SVGID_35_);stroke:#000000;}
	.st43{fill:url(#SVGID_36_);stroke:#000000;}
	.st44{fill:url(#SVGID_37_);stroke:#000000;}
	.st45{fill:url(#SVGID_38_);stroke:#000000;}
	.st46{fill:url(#SVGID_39_);stroke:#000000;}
	.st47{fill:url(#SVGID_40_);stroke:#000000;}
	.st48{fill:url(#SVGID_41_);stroke:#000000;}
	.st49{fill:url(#SVGID_42_);stroke:#000000;}
	.st50{fill:url(#SVGID_43_);stroke:#000000;}
	.st51{fill:url(#SVGID_44_);stroke:#000000;}
	.st52{fill:url(#SVGID_45_);stroke:#000000;}
	.st53{fill:url(#SVGID_46_);stroke:#000000;}
	.st54{fill:url(#SVGID_47_);stroke:#000000;}
	.st55{fill:url(#SVGID_48_);stroke:#000000;}
	.st56{fill:url(#SVGID_49_);stroke:#000000;}
	.st57{fill:url(#SVGID_50_);stroke:#000000;}
</style>
<filter  filterRes="100" id="shadow" x="0" y="0">
	<feGaussianBlur  stdDeviation="2 2"></feGaussianBlur>
	<feOffset  dx="2" dy="2"></feOffset>
</filter>
<g id="Camada_2">
	<rect class="st0" width="494" height="1412"/>
</g>
<g id="Camada_1" xmlns:svg="http://www.w3.org/2000/svg">
	<g id="graph0" transform="scale(1 1) rotate(0) translate(4 1378)">
		<g id="node1">
			<g class="st1">
				<polygon class="st2" points="84.5,-1290.5 86,-1354.9 84.5,-1365.5 84.5,-1365.5 128.9,-1362.8 219.5,-1365.5 219.5,-1365.5 
					221,-1348.2 219.5,-1290.5 219.5,-1290.5 199,-1287.8 				"/>
			</g>
			
				<linearGradient id="SVGID_1_" gradientUnits="userSpaceOnUse" x1="-710.778" y1="-129.8576" x2="-709.778" y2="-130.8576" gradientTransform="matrix(136.5 0 0 -77.7 97106.5 -11455.8936)">
				<stop  offset="0" style="stop-color:#FFFFFF"/>
				<stop  offset="1" style="stop-color:#DCDCDC"/>
			</linearGradient>
			<polygon class="st3" points="84.5,-1290.5 86,-1290.1 84.5,-1365.5 84.5,-1365.5 156.8,-1362.8 219.5,-1365.5 219.5,-1365.5 
				221,-1319.7 219.5,-1290.5 219.5,-1290.5 215.9,-1287.8 			"/>
			<text transform="matrix(1 0 0 1 100.3364 -1354.3)" class="st4 st5">PeerManagerImpl</text>
			<g class="st1">
				<line class="st2" x1="84.5" y1="-1350.5" x2="219.5" y2="-1350.5"/>
			</g>
			
				<linearGradient id="SVGID_2_" gradientUnits="userSpaceOnUse" x1="-710.476" y1="34.25" x2="-709.476" y2="33.25" gradientTransform="matrix(135 0 0 -1 96032.5 -1316.5)">
				<stop  offset="0" style="stop-color:#FFFFFF"/>
				<stop  offset="1" style="stop-color:#FFFFFF"/>
			</linearGradient>
			<line class="st6" x1="84.5" y1="-1350.5" x2="219.5" y2="-1350.5"/>
			<text transform="matrix(1 0 0 1 112.6223 -1339.3)" class="st4 st5">-m_chainman</text>
			<text transform="matrix(1 0 0 1 146.5823 -1324.3)" class="st4 st5">...</text>
			<g class="st1">
				<line class="st2" x1="84.5" y1="-1320.5" x2="219.5" y2="-1320.5"/>
			</g>
			
				<linearGradient id="SVGID_3_" gradientUnits="userSpaceOnUse" x1="-710.476" y1="34.25" x2="-709.476" y2="33.25" gradientTransform="matrix(135 0 0 -1 96032.5 -1286.5)">
				<stop  offset="0" style="stop-color:#FFFFFF"/>
				<stop  offset="1" style="stop-color:#FFFFFF"/>
			</linearGradient>
			<line class="st7" x1="84.5" y1="-1320.5" x2="219.5" y2="-1320.5"/>
			<text transform="matrix(1 0 0 1 94.0205 -1309.3)" class="st4 st5">+ProcessMessage()</text>
			<text transform="matrix(1 0 0 1 146.5823 -1294.3)" class="st4 st5">...</text>
		</g>
		<g id="node2">
			<g class="st1">
				<polygon class="st2" points="55.5,-1056.5 58.2,-1072.1 55.5,-1191.5 55.5,-1191.5 118.8,-1187.6 248.5,-1191.5 248.5,-1191.5 
					251.2,-1143.6 248.5,-1056.5 248.5,-1056.5 124.6,-1052.6 				"/>
			</g>
			
				<linearGradient id="SVGID_4_" gradientUnits="userSpaceOnUse" x1="-712.3583" y1="-130.8011" x2="-711.3583" y2="-131.8011" gradientTransform="matrix(195.7 0 0 -138.86 139464.7031 -19355.0176)">
				<stop  offset="0" style="stop-color:#FFFFFF"/>
				<stop  offset="1" style="stop-color:#DCDCDC"/>
			</linearGradient>
			<polygon class="st8" points="55.5,-1056.5 58.2,-1100.2 55.5,-1191.5 55.5,-1191.5 98.9,-1187.6 248.5,-1191.5 248.5,-1191.5 
				251.2,-1127.3 248.5,-1056.5 248.5,-1056.5 160.3,-1052.6 			"/>
			<text transform="matrix(1 0 0 1 95.271 -1180.3)" class="st4 st5">ChainstateManager</text>
			<g class="st1">
				<line class="st2" x1="55.5" y1="-1176.5" x2="248.5" y2="-1176.5"/>
			</g>
			
				<linearGradient id="SVGID_5_" gradientUnits="userSpaceOnUse" x1="-712.0609" y1="34.25" x2="-711.0609" y2="33.25" gradientTransform="matrix(193 0 0 -1 137531.5 -1142.5)">
				<stop  offset="0" style="stop-color:#FFFFFF"/>
				<stop  offset="1" style="stop-color:#FFFFFF"/>
			</linearGradient>
			<line class="st9" x1="55.5" y1="-1176.5" x2="248.5" y2="-1176.5"/>
			<text transform="matrix(1 0 0 1 98.886 -1165.3)" class="st4 st5">-m_ibd_chainstate</text>
			<text transform="matrix(1 0 0 1 81.1792 -1150.3)" class="st4 st5">-m_snapshot_chainstate</text>
			<text transform="matrix(1 0 0 1 90.5801 -1135.3)" class="st4 st5">-m_active_chainstate</text>
			<text transform="matrix(1 0 0 1 146.5823 -1120.3)" class="st4 st5">...</text>
			<g class="st1">
				<line class="st2" x1="55.5" y1="-1116.5" x2="248.5" y2="-1116.5"/>
			</g>
			
				<linearGradient id="SVGID_6_" gradientUnits="userSpaceOnUse" x1="-712.0609" y1="34.25" x2="-711.0609" y2="33.25" gradientTransform="matrix(193 0 0 -1 137531.5 -1082.5)">
				<stop  offset="0" style="stop-color:#FFFFFF"/>
				<stop  offset="1" style="stop-color:#FFFFFF"/>
			</linearGradient>
			<line class="st10" x1="55.5" y1="-1116.5" x2="248.5" y2="-1116.5"/>
			<text transform="matrix(1 0 0 1 95.0996 -1105.3)" class="st4 st5">+ActiveChainstate()</text>
			<text transform="matrix(1 0 0 1 91.4973 -1090.3)" class="st4 st5">+ProcessNewBlock()</text>
			<text transform="matrix(1 0 0 1 66.9287 -1075.3)" class="st4 st5">+ProcessNewBlockHeaders()</text>
			<text transform="matrix(1 0 0 1 146.5823 -1060.3)" class="st4 st5">...</text>
		</g>
		<g id="edge1">
			<path class="st11" d="M152-1278.2c0,23,0,50.9,0,76.6"/>
			<g class="st1">
				<path class="st11" d="M152-1278.2c0,23,0,50.9,0,76.6"/>
			</g>
			<g class="st1">
				<polygon class="st2" points="152,-1278.4 152.3,-1278.4 156,-1284.4 156,-1284.4 156.1,-1284.4 152,-1290.4 152,-1290.4 
					151.5,-1289.2 148,-1284.4 148,-1284.4 148.7,-1283.4 				"/>
			</g>
			
				<linearGradient id="SVGID_7_" gradientUnits="userSpaceOnUse" x1="-626.9964" y1="-118.1631" x2="-625.9964" y2="-119.1631" gradientTransform="matrix(8 0 0 -12 5164 -2708.4199)">
				<stop  offset="0" style="stop-color:#FFFFFF"/>
				<stop  offset="1" style="stop-color:#FFFFFF"/>
			</linearGradient>
			<polygon class="st12" points="152,-1278.4 152.9,-1279.3 156,-1284.4 156,-1284.4 154.6,-1286.7 152,-1290.4 152,-1290.4 
				149.4,-1285.7 148,-1284.4 148,-1284.4 149.9,-1281.9 			"/>
			<g class="st1">
				<polygon class="st2" points="152,-1191.5 152.3,-1191.4 156.5,-1201.5 156.5,-1201.5 155.9,-1200.4 152,-1196.5 152,-1196.5 
					152.3,-1198.9 152,-1201.5 152,-1201.5 152.3,-1201.2 152,-1201.5 152,-1201.5 152,-1201.5 152,-1201.5 152,-1201.5 
					152.1,-1200.9 152,-1196.5 152,-1196.5 152,-1196.5 147.5,-1201.5 147.5,-1201.5 149.6,-1197.2 152,-1191.5 152,-1191.5 
					152.1,-1191.4 				"/>
			</g>
			
				<linearGradient id="SVGID_8_" gradientUnits="userSpaceOnUse" x1="-636.7619" y1="-115.4063" x2="-635.7619" y2="-116.4063" gradientTransform="matrix(9 0 0 -10.0809 5879.5 -2366.2131)">
				<stop  offset="0" style="stop-color:#969696"/>
				<stop  offset="1" style="stop-color:#000000"/>
			</linearGradient>
			<polygon class="st13" points="152,-1191.5 152.8,-1192.4 156.5,-1201.5 156.5,-1201.5 156.2,-1200.8 152,-1196.5 152,-1196.5 
				152.3,-1198.4 152,-1201.5 152,-1201.5 152,-1201.5 152,-1201.5 152,-1201.5 152,-1201.5 152,-1201.5 152,-1201.5 152.2,-1200 
				152,-1196.5 152,-1196.5 151.5,-1197.1 147.5,-1201.5 147.5,-1201.5 149.4,-1197.7 152,-1191.5 152,-1191.5 152.1,-1191.4 			"/>
			<text transform="matrix(1 0 0 1 142.3793 -1206.63)" class="st4 st14">1</text>
			<text transform="matrix(1 0 0 1 136.8771 -1267.9301)" class="st4 st14">send data</text>
		</g>
		<g id="node3">
			<g class="st1">
				<polygon class="st2" points="68,-800.5 71.3,-820 68,-965.5 68,-965.5 91.3,-962.1 236,-965.5 236,-965.5 239.3,-959.4 
					236,-800.5 236,-800.5 146.8,-797.1 				"/>
			</g>
			
				<linearGradient id="SVGID_9_" gradientUnits="userSpaceOnUse" x1="-711.8434" y1="-131.0138" x2="-710.8434" y2="-132.0138" gradientTransform="matrix(171.3 0 0 -168.36 122006.8047 -23023.0176)">
				<stop  offset="0" style="stop-color:#FFFFFF"/>
				<stop  offset="1" style="stop-color:#DCDCDC"/>
			</linearGradient>
			<polygon class="st15" points="68,-800.5 71.3,-935.1 68,-965.5 68,-965.5 74.5,-962.1 236,-965.5 236,-965.5 239.3,-918.6 
				236,-800.5 236,-800.5 210,-797.1 			"/>
			<text transform="matrix(1 0 0 1 115.1455 -954.3)" class="st4 st5">CChainState</text>
			<g class="st1">
				<line class="st2" x1="68" y1="-950.5" x2="236" y2="-950.5"/>
			</g>
			
				<linearGradient id="SVGID_10_" gradientUnits="userSpaceOnUse" x1="-711.5119" y1="34.25" x2="-710.5119" y2="33.25" gradientTransform="matrix(168 0 0 -1 119644 -916.5)">
				<stop  offset="0" style="stop-color:#FFFFFF"/>
				<stop  offset="1" style="stop-color:#FFFFFF"/>
			</linearGradient>
			<line class="st16" x1="68" y1="-950.5" x2="236" y2="-950.5"/>
			<text transform="matrix(1 0 0 1 104.3132 -939.3)" class="st4 st5">#m_coins_views</text>
			<text transform="matrix(1 0 0 1 146.5823 -924.3)" class="st4 st5">...</text>
			<g class="st1">
				<line class="st2" x1="68" y1="-920.5" x2="236" y2="-920.5"/>
			</g>
			
				<linearGradient id="SVGID_11_" gradientUnits="userSpaceOnUse" x1="-711.5119" y1="34.25" x2="-710.5119" y2="33.25" gradientTransform="matrix(168 0 0 -1 119644 -886.5)">
				<stop  offset="0" style="stop-color:#FFFFFF"/>
				<stop  offset="1" style="stop-color:#FFFFFF"/>
			</linearGradient>
			<line class="st17" x1="68" y1="-920.5" x2="236" y2="-920.5"/>
			<text transform="matrix(1 0 0 1 93.3 -909.3)" class="st4 st5">+FlushStateToDisk()</text>
			<text transform="matrix(1 0 0 1 90.7642 -894.3)" class="st4 st5">+ActivateBestChain()</text>
			<text transform="matrix(1 0 0 1 108.1091 -879.3)" class="st4 st5">+AcceptBlock()</text>
			<text transform="matrix(1 0 0 1 95.8264 -864.3)" class="st4 st5">+DisconnectBlock()</text>
			<text transform="matrix(1 0 0 1 103.7705 -849.3)" class="st4 st5">+ConnectBlock()</text>
			<text transform="matrix(1 0 0 1 79.0242 -834.3)" class="st4 st5">-ActivateBestChainStep()</text>
			<text transform="matrix(1 0 0 1 112.5081 -819.3)" class="st4 st5">-ConnectTip()</text>
			<text transform="matrix(1 0 0 1 146.5823 -804.3)" class="st4 st5">...</text>
		</g>
		<g id="edge2">
			<path class="st11" d="M152-1044.3c0,21.9,0,45.9,0,68.5"/>
			<g class="st1">
				<path class="st11" d="M152-1044.3c0,21.9,0,45.9,0,68.5"/>
			</g>
			<g class="st1">
				<polygon class="st2" points="152,-1044.4 153.4,-1045.9 156,-1050.4 156,-1050.4 154.5,-1052.8 152,-1056.4 152,-1056.4 
					150,-1052.5 148,-1050.4 148,-1050.4 148.1,-1050.3 				"/>
			</g>
			
				<linearGradient id="SVGID_12_" gradientUnits="userSpaceOnUse" x1="-628.0242" y1="-118.1695" x2="-627.0242" y2="-119.1695" gradientTransform="matrix(8.0929 0 0 -12 5230.5024 -2474.4302)">
				<stop  offset="0" style="stop-color:#FFFFFF"/>
				<stop  offset="1" style="stop-color:#FFFFFF"/>
			</linearGradient>
			<polygon class="st18" points="152,-1044.4 152.3,-1044.5 156,-1050.4 156,-1050.4 156.1,-1050.4 152,-1056.4 152,-1056.4 
				151.4,-1055 148,-1050.4 148,-1050.4 149.2,-1048.7 			"/>
			<g class="st1">
				<polygon class="st2" points="152,-965.5 152.6,-966.1 156.5,-975.5 156.5,-975.5 156.3,-974.9 152,-970.5 152,-970.5 
					152.3,-973.7 152,-975.5 152,-975.5 152,-975.5 152,-975.5 152,-975.5 152.2,-975.4 152,-975.5 152,-975.5 152.1,-975.1 
					152,-970.5 152,-970.5 151.6,-971.1 147.5,-975.5 147.5,-975.5 148,-974.8 152,-965.5 152,-965.5 152.2,-965.4 				"/>
			</g>
			
				<linearGradient id="SVGID_13_" gradientUnits="userSpaceOnUse" x1="-636.7573" y1="-115.7069" x2="-635.7573" y2="-116.7069" gradientTransform="matrix(9 0 0 -10.2713 5879.5 -2165.3418)">
				<stop  offset="0" style="stop-color:#969696"/>
				<stop  offset="1" style="stop-color:#000000"/>
			</linearGradient>
			<polygon class="st19" points="152,-965.5 153,-966.9 156.5,-975.5 156.5,-975.5 154.6,-972.6 152,-970.5 152,-970.5 
				152.2,-971.5 152,-975.5 152,-975.5 152.1,-975.4 152,-975.5 152,-975.5 152.1,-975.4 152,-975.5 152,-975.5 152.3,-973.4 
				152,-970.5 152,-970.5 150.6,-972.1 147.5,-975.5 147.5,-975.5 148,-974.7 152,-965.5 152,-965.5 152.4,-965.3 			"/>
			<text transform="matrix(1 0 0 1 142.3793 -980.623)" class="st4 st14">2</text>
		</g>
		<g id="node4">
			<g class="st1">
				<polygon class="st2" points="104.5,-649 105.7,-654 104.5,-709 104.5,-709 144.4,-707.1 199.5,-709 199.5,-709 200.7,-703.8 
					199.5,-649 199.5,-649 189.6,-647.1 				"/>
			</g>
			
				<linearGradient id="SVGID_14_" gradientUnits="userSpaceOnUse" x1="-708.5942" y1="-129.3137" x2="-707.5942" y2="-130.3137" gradientTransform="matrix(96.2 0 0 -61.9 68271.6953 -8713.8027)">
				<stop  offset="0" style="stop-color:#FFFFFF"/>
				<stop  offset="1" style="stop-color:#DCDCDC"/>
			</linearGradient>
			<polygon class="st20" points="104.5,-649 105.7,-657.3 104.5,-709 104.5,-709 154.5,-707.1 199.5,-709 199.5,-709 200.7,-686.3 
				199.5,-649 199.5,-649 175.9,-647.1 			"/>
			<text transform="matrix(1 0 0 1 118.1606 -697.8)" class="st4 st5">CoinsViews</text>
			<g class="st1">
				<line class="st2" x1="104.5" y1="-694" x2="199.5" y2="-694"/>
			</g>
			
				<linearGradient id="SVGID_15_" gradientUnits="userSpaceOnUse" x1="-708.2552" y1="34.25" x2="-707.2552" y2="33.25" gradientTransform="matrix(95 0 0 -1 67412.5 -660)">
				<stop  offset="0" style="stop-color:#FFFFFF"/>
				<stop  offset="1" style="stop-color:#FFFFFF"/>
			</linearGradient>
			<line class="st21" x1="104.5" y1="-694" x2="199.5" y2="-694"/>
			<text transform="matrix(1 0 0 1 118.9414 -682.8)" class="st4 st5">+m_dbview</text>
			<text transform="matrix(1 0 0 1 146.5823 -667.8)" class="st4 st5">...</text>
			<g class="st1">
				<line class="st2" x1="104.5" y1="-664" x2="199.5" y2="-664"/>
			</g>
			
				<linearGradient id="SVGID_16_" gradientUnits="userSpaceOnUse" x1="-708.2552" y1="34.25" x2="-707.2552" y2="33.25" gradientTransform="matrix(95 0 0 -1 67412.5 -630)">
				<stop  offset="0" style="stop-color:#FFFFFF"/>
				<stop  offset="1" style="stop-color:#FFFFFF"/>
			</linearGradient>
			<line class="st22" x1="104.5" y1="-664" x2="199.5" y2="-664"/>
			<text transform="matrix(1 0 0 1 146.5823 -652.8)" class="st4 st5">...</text>
		</g>
		<g id="edge3">
			<path class="st11" d="M152-788.2c0,24.2,0,49,0,68.7"/>
			<g class="st1">
				<path class="st11" d="M152-788.2c0,24.2,0,49,0,68.7"/>
			</g>
			<g class="st1">
				<polygon class="st2" points="152,-788.4 153.9,-790.6 156,-794.4 156,-794.4 155.9,-794.7 152,-800.4 152,-800.4 149.8,-796.2 
					148,-794.4 148,-794.4 150.9,-790.3 				"/>
			</g>
			
				<linearGradient id="SVGID_17_" gradientUnits="userSpaceOnUse" x1="-626.9962" y1="-118.1628" x2="-625.9962" y2="-119.1628" gradientTransform="matrix(8 0 0 -12 5164 -2218.4209)">
				<stop  offset="0" style="stop-color:#FFFFFF"/>
				<stop  offset="1" style="stop-color:#FFFFFF"/>
			</linearGradient>
			<polygon class="st23" points="152,-788.4 155.6,-792.7 156,-794.4 156,-794.4 154.3,-797.1 152,-800.4 152,-800.4 151.6,-799.2 
				148,-794.4 148,-794.4 150,-791.6 			"/>
			<g class="st1">
				<polygon class="st2" points="152,-709.4 156.1,-716.8 156.5,-719.4 156.5,-719.4 153.4,-714.9 152,-714.4 152,-714.4 
					152.2,-715.5 152,-719.4 152,-719.4 152.2,-719.1 152,-719.4 152,-719.4 152.2,-719.2 152,-719.4 152,-719.4 152.2,-717.9 
					152,-714.4 152,-714.4 150.1,-716.5 147.5,-719.4 147.5,-719.4 149.1,-716.2 152,-709.4 152,-709.4 152.1,-709.2 				"/>
			</g>
			
				<linearGradient id="SVGID_18_" gradientUnits="userSpaceOnUse" x1="-636.7602" y1="-115.5189" x2="-635.7602" y2="-116.5189" gradientTransform="matrix(9 0 0 -10.1514 5879.5 -1893.3835)">
				<stop  offset="0" style="stop-color:#969696"/>
				<stop  offset="1" style="stop-color:#000000"/>
			</linearGradient>
			<polygon class="st24" points="152,-709.4 154.1,-712.8 156.5,-719.4 156.5,-719.4 152.6,-713.9 152,-714.4 152,-714.4 
				152.4,-717.6 152,-719.4 152,-719.4 152.1,-719.3 152,-719.4 152,-719.4 152,-719.4 152,-719.4 152,-719.4 152.1,-719.3 
				152,-714.4 152,-714.4 151.4,-715.1 147.5,-719.4 147.5,-719.4 148.5,-717.6 152,-709.4 152,-709.4 152.2,-709.2 			"/>
			<text transform="matrix(1 0 0 1 142.3793 -724.488)" class="st4 st14">1</text>
		</g>
		<g id="node5">
			<g class="st1">
				<polygon class="st2" points="93.5,-482.5 95,-521.7 93.5,-557.5 93.5,-557.5 192.6,-555.2 210.5,-557.5 210.5,-557.5 
					212,-546.7 210.5,-482.5 210.5,-482.5 124.8,-480.2 				"/>
			</g>
			
				<linearGradient id="SVGID_19_" gradientUnits="userSpaceOnUse" x1="-709.9872" y1="-129.8492" x2="-708.9872" y2="-130.8492" gradientTransform="matrix(118.5 0 0 -77.34 84227.5 -10600.3799)">
				<stop  offset="0" style="stop-color:#FFFFFF"/>
				<stop  offset="1" style="stop-color:#DCDCDC"/>
			</linearGradient>
			<polygon class="st25" points="93.5,-482.5 95,-485.9 93.5,-557.5 93.5,-557.5 100.4,-555.2 210.5,-557.5 210.5,-557.5 
				212,-554.8 210.5,-482.5 210.5,-482.5 198.7,-480.2 			"/>
			<text transform="matrix(1 0 0 1 107.687 -546.3)" class="st4 st5">CCoinsViewDB</text>
			<g class="st1">
				<line class="st2" x1="93.5" y1="-542.5" x2="210.5" y2="-542.5"/>
			</g>
			
				<linearGradient id="SVGID_20_" gradientUnits="userSpaceOnUse" x1="-709.6646" y1="34.25" x2="-708.6646" y2="33.25" gradientTransform="matrix(117 0 0 -1 83153.5 -508.5)">
				<stop  offset="0" style="stop-color:#FFFFFF"/>
				<stop  offset="1" style="stop-color:#FFFFFF"/>
			</linearGradient>
			<line class="st26" x1="93.5" y1="-542.5" x2="210.5" y2="-542.5"/>
			<text transform="matrix(1 0 0 1 131.9446 -531.3)" class="st4 st5">+m_db</text>
			<text transform="matrix(1 0 0 1 146.5823 -516.3)" class="st4 st5">...</text>
			<g class="st1">
				<line class="st2" x1="93.5" y1="-512.5" x2="210.5" y2="-512.5"/>
			</g>
			
				<linearGradient id="SVGID_21_" gradientUnits="userSpaceOnUse" x1="-709.6646" y1="34.25" x2="-708.6646" y2="33.25" gradientTransform="matrix(117 0 0 -1 83153.5 -478.5)">
				<stop  offset="0" style="stop-color:#FFFFFF"/>
				<stop  offset="1" style="stop-color:#FFFFFF"/>
			</linearGradient>
			<line class="st27" x1="93.5" y1="-512.5" x2="210.5" y2="-512.5"/>
			<text transform="matrix(1 0 0 1 116.0024 -501.3)" class="st4 st5">BatchWrite()</text>
			<text transform="matrix(1 0 0 1 146.5823 -486.3)" class="st4 st5">...</text>
		</g>
		<g id="edge4">
			<path class="st11" d="M152-636.7c0,21.1,0,47,0,68.9"/>
			<g class="st1">
				<path class="st11" d="M152-636.7c0,21.1,0,47,0,68.9"/>
			</g>
			<g class="st1">
				<polygon class="st2" points="152,-636.8 155,-640.5 156,-642.8 156,-642.8 155.1,-644.3 152,-648.8 152,-648.8 151.1,-646.8 
					148,-642.8 148,-642.8 149.3,-641 				"/>
			</g>
			
				<linearGradient id="SVGID_22_" gradientUnits="userSpaceOnUse" x1="-626.9968" y1="-118.1635" x2="-625.9968" y2="-119.1635" gradientTransform="matrix(8 0 0 -12 5164 -2066.8369)">
				<stop  offset="0" style="stop-color:#FFFFFF"/>
				<stop  offset="1" style="stop-color:#FFFFFF"/>
			</linearGradient>
			<polygon class="st28" points="152,-636.8 155.5,-641.1 156,-642.8 156,-642.8 154.4,-645.4 152,-648.8 152,-648.8 151.3,-647.3 
				148,-642.8 148,-642.8 148.8,-641.7 			"/>
			<g class="st1">
				<polygon class="st2" points="152,-557.8 153.3,-559.5 156.5,-567.8 156.5,-567.8 155.6,-566.3 152,-562.8 152,-562.8 
					152.2,-563.8 152,-567.8 152,-567.8 152,-567.7 152,-567.8 152,-567.8 152.2,-567.5 152,-567.8 152,-567.8 152.2,-566.2 
					152,-562.8 152,-562.8 150.9,-564 147.5,-567.8 147.5,-567.8 150.3,-562.1 152,-557.8 152,-557.8 152.1,-557.5 				"/>
			</g>
			
				<linearGradient id="SVGID_23_" gradientUnits="userSpaceOnUse" x1="-636.7589" y1="-115.5992" x2="-635.7589" y2="-116.5992" gradientTransform="matrix(9 0 0 -10.2023 5879.5 -1748.4547)">
				<stop  offset="0" style="stop-color:#969696"/>
				<stop  offset="1" style="stop-color:#000000"/>
			</linearGradient>
			<polygon class="st29" points="152,-557.8 155.8,-564.7 156.5,-567.8 156.5,-567.8 154.8,-565.2 152,-562.8 152,-562.8 
				152.4,-565.5 152,-567.8 152,-567.8 152.3,-567.6 152,-567.8 152,-567.8 152,-567.8 152,-567.8 152,-567.8 152.2,-565.7 
				152,-562.8 152,-562.8 150.5,-564.4 147.5,-567.8 147.5,-567.8 150.8,-561 152,-557.8 152,-557.8 152.2,-557.6 			"/>
			<text transform="matrix(1 0 0 1 142.3793 -572.849)" class="st4 st14">1</text>
		</g>
		<g id="node6">
			<g class="st1">
				<polygon class="st2" points="28,-286.5 30.1,-289.4 28,-391.5 28,-391.5 104,-389.4 132,-391.5 132,-391.5 134.1,-385.6 
					132,-286.5 132,-286.5 71,-284.4 				"/>
			</g>
			
				<linearGradient id="SVGID_24_" gradientUnits="userSpaceOnUse" x1="-709.2894" y1="-130.4498" x2="-708.2894" y2="-131.4498" gradientTransform="matrix(106.1 0 0 -107.08 75283.6016 -14360.0586)">
				<stop  offset="0" style="stop-color:#FFFFFF"/>
				<stop  offset="1" style="stop-color:#DCDCDC"/>
			</linearGradient>
			<polygon class="st30" points="28,-286.5 30.1,-316.8 28,-391.5 28,-391.5 41.6,-389.4 132,-391.5 132,-391.5 134.1,-374.2 
				132,-286.5 132,-286.5 72.6,-284.4 			"/>
			<text transform="matrix(1 0 0 1 41.4697 -380.3)" class="st4 st5">CDBWrapper</text>
			<g class="st1">
				<line class="st2" x1="28" y1="-376.5" x2="132" y2="-376.5"/>
			</g>
			
				<linearGradient id="SVGID_25_" gradientUnits="userSpaceOnUse" x1="-708.9039" y1="34.25" x2="-707.9039" y2="33.25" gradientTransform="matrix(104 0 0 -1 73780 -342.5)">
				<stop  offset="0" style="stop-color:#FFFFFF"/>
				<stop  offset="1" style="stop-color:#FFFFFF"/>
			</linearGradient>
			<line class="st31" x1="28" y1="-376.5" x2="132" y2="-376.5"/>
			<text transform="matrix(1 0 0 1 46.7605 -365.3)" class="st4 st5">-pdb,-name</text>
			<text transform="matrix(1 0 0 1 74.5823 -350.3)" class="st4 st5">...</text>
			<g class="st1">
				<line class="st2" x1="28" y1="-346.5" x2="132" y2="-346.5"/>
			</g>
			
				<linearGradient id="SVGID_26_" gradientUnits="userSpaceOnUse" x1="-708.9039" y1="34.25" x2="-707.9039" y2="33.25" gradientTransform="matrix(104 0 0 -1 73780 -312.5)">
				<stop  offset="0" style="stop-color:#FFFFFF"/>
				<stop  offset="1" style="stop-color:#FFFFFF"/>
			</linearGradient>
			<line class="st32" x1="28" y1="-346.5" x2="132" y2="-346.5"/>
			<text transform="matrix(1 0 0 1 56.3359 -335.3)" class="st4 st5">+Read()</text>
			<text transform="matrix(1 0 0 1 56.8279 -320.3)" class="st4 st5">+Write()</text>
			<text transform="matrix(1 0 0 1 44.0024 -305.3)" class="st4 st5">WriteBatch()</text>
			<text transform="matrix(1 0 0 1 74.5823 -290.3)" class="st4 st5">...</text>
		</g>
		<g id="edge5">
			<path class="st11" d="M132.7-471.1c-8.7,21.6-19,47.3-28.3,70.3"/>
			<g class="st1">
				<path class="st11" d="M132.7-471.1c-8.7,21.6-19,47.3-28.3,70.3"/>
			</g>
			<g class="st1">
				<polygon class="st2" points="132.8,-471.2 133.3,-471.3 138.7,-475.3 138.7,-475.3 138.1,-480.4 137.3,-482.3 137.3,-482.3 
					136,-481.1 131.3,-478.3 131.3,-478.3 131.9,-476.3 				"/>
			</g>
			
				<linearGradient id="SVGID_27_" gradientUnits="userSpaceOnUse" x1="-620.069" y1="-117.0894" x2="-619.069" y2="-118.0894" gradientTransform="matrix(7.422 0 0 -11.133 4733.4561 -1785.9004)">
				<stop  offset="0" style="stop-color:#FFFFFF"/>
				<stop  offset="1" style="stop-color:#FFFFFF"/>
			</linearGradient>
			<polygon class="st33" points="132.8,-471.2 134.4,-471.9 138.7,-475.3 138.7,-475.3 138.4,-478.3 137.3,-482.3 137.3,-482.3 
				137,-481.9 131.3,-478.3 131.3,-478.3 132.4,-474.5 			"/>
			<g class="st1">
				<polygon class="st2" points="100.7,-391.5 101.3,-391.7 108.6,-399.1 108.6,-399.1 105,-396.7 102.6,-396.2 102.6,-396.2 
					103.4,-397.4 104.5,-400.8 104.5,-400.8 104.7,-400.7 104.5,-400.8 104.5,-400.8 104.5,-400.8 104.5,-400.8 104.5,-400.8 
					104.3,-399.7 102.6,-396.2 102.6,-396.2 102.3,-397.4 100.3,-402.5 100.3,-402.5 100.5,-401.8 100.7,-391.5 100.7,-391.5 
					100.8,-391.4 				"/>
			</g>
			
				<linearGradient id="SVGID_28_" gradientUnits="userSpaceOnUse" x1="-630.7915" y1="-117.0234" x2="-629.7915" y2="-118.0234" gradientTransform="matrix(8.35 0 0 -11.039 5366.8848 -1693.6392)">
				<stop  offset="0" style="stop-color:#969696"/>
				<stop  offset="1" style="stop-color:#000000"/>
			</linearGradient>
			<polygon class="st34" points="100.7,-391.5 101.7,-392 108.6,-399.1 108.6,-399.1 107.9,-398.5 102.6,-396.2 102.6,-396.2 
				103.4,-397.3 104.5,-400.8 104.5,-400.8 104.5,-400.8 104.5,-400.8 104.5,-400.8 104.7,-400.5 104.5,-400.8 104.5,-400.8 
				104.2,-399.5 102.6,-396.2 102.6,-396.2 102.4,-396.9 100.3,-402.5 100.3,-402.5 101,-396.6 100.7,-391.5 100.7,-391.5 
				100.8,-391.5 			"/>
			<text transform="matrix(1 0 0 1 98.6152 -407.823)" class="st4 st14">1</text>
		</g>
		<g id="node7">
			<g class="st1">
				<polygon class="st2" points="293.2,-360.5 287.1,-357.6 150.8,-360.5 150.8,-360.5 151.8,-336.3 150.8,-317.5 150.8,-317.5 
					188.5,-314.5 299.2,-317.5 299.2,-317.5 300.1,-325.9 299.2,-354.5 299.2,-354.5 298.8,-355 				"/>
			</g>
			
				<linearGradient id="SVGID_29_" gradientUnits="userSpaceOnUse" x1="-711.231" y1="-128.3844" x2="-710.231" y2="-129.3844" gradientTransform="matrix(149.4408 0 0 -45.97 106438.3828 -6262.54)">
				<stop  offset="0" style="stop-color:#FFFFFF"/>
				<stop  offset="1" style="stop-color:#F5DEB3"/>
			</linearGradient>
			<polygon class="st35" points="293.2,-360.5 187.6,-357.6 150.8,-360.5 150.8,-360.5 151.7,-351.6 150.8,-317.5 150.8,-317.5 
				172.9,-314.5 299.2,-317.5 299.2,-317.5 300.2,-342.1 299.2,-354.5 299.2,-354.5 299,-354.8 			"/>
			<g class="st1">
				<line class="st2" x1="293.2" y1="-360.5" x2="293.2" y2="-354.5"/>
			</g>
			
				<linearGradient id="SVGID_30_" gradientUnits="userSpaceOnUse" x1="-4.25" y1="-104.5833" x2="-3.25" y2="-105.5833" gradientTransform="matrix(1 0 0 -6 297.25 -986.5)">
				<stop  offset="0" style="stop-color:#FFFFFF"/>
				<stop  offset="1" style="stop-color:#FFFFFF"/>
			</linearGradient>
			<line class="st36" x1="293.2" y1="-360.5" x2="293.2" y2="-354.5"/>
			<g class="st1">
				<line class="st2" x1="299.2" y1="-354.5" x2="293.2" y2="-354.5"/>
			</g>
			
				<linearGradient id="SVGID_31_" gradientUnits="userSpaceOnUse" x1="-597.0833" y1="34.25" x2="-596.0833" y2="33.25" gradientTransform="matrix(6 0 0 -1 3877.25 -320.5)">
				<stop  offset="0" style="stop-color:#FFFFFF"/>
				<stop  offset="1" style="stop-color:#FFFFFF"/>
			</linearGradient>
			<line class="st37" x1="299.2" y1="-354.5" x2="293.2" y2="-354.5"/>
			<text transform="matrix(1 0 0 1 162.8596 -335.3)" class="st4 st5">chainstate/ (LevelDB)</text>
		</g>
		<g id="edge6">
			<path class="st38" d="M166.9-482.3c15,36.7,37.5,91.9,49.6,121.6"/>
			<g class="st1">
				<path class="st38" d="M166.9-482.3c15,36.7,37.5,91.9,49.6,121.6"/>
			</g>
			<text transform="matrix(1 0 0 1 184.2305 -371.819)" class="st4 st14">stores in</text>
		</g>
		<g id="node11">
			<g class="st1">
				<polygon class="st2" points="12,-135 13.2,-149.6 12,-195 12,-195 50.7,-192.3 148,-195 148,-195 149.2,-179.5 148,-135 
					148,-135 70.6,-132.3 				"/>
			</g>
			
				<linearGradient id="SVGID_32_" gradientUnits="userSpaceOnUse" x1="-710.8018" y1="-129.3447" x2="-709.8018" y2="-130.3447" gradientTransform="matrix(137.2 0 0 -62.72 97535.1953 -8308.04)">
				<stop  offset="0" style="stop-color:#FFFFFF"/>
				<stop  offset="1" style="stop-color:#DCDCDC"/>
			</linearGradient>
			<polygon class="st39" points="12,-135 13.2,-139.3 12,-195 12,-195 19,-192.3 148,-195 148,-195 149.2,-169.3 148,-135 148,-135 
				107.8,-132.3 			"/>
			<text transform="matrix(1 0 0 1 37.2581 -183.8)" class="st4 st5">CBlockTreeDB</text>
			<g class="st1">
				<line class="st2" x1="12" y1="-180" x2="148" y2="-180"/>
			</g>
			
				<linearGradient id="SVGID_33_" gradientUnits="userSpaceOnUse" x1="-710.5147" y1="34.25" x2="-709.5147" y2="33.25" gradientTransform="matrix(136 0 0 -1 96676 -146)">
				<stop  offset="0" style="stop-color:#FFFFFF"/>
				<stop  offset="1" style="stop-color:#FFFFFF"/>
			</linearGradient>
			<line class="st40" x1="12" y1="-180" x2="148" y2="-180"/>
			<text transform="matrix(1 0 0 1 74.5823 -168.8)" class="st4 st5">...</text>
			<g class="st1">
				<line class="st2" x1="12" y1="-165" x2="148" y2="-165"/>
			</g>
			
				<linearGradient id="SVGID_34_" gradientUnits="userSpaceOnUse" x1="-710.5147" y1="34.25" x2="-709.5147" y2="33.25" gradientTransform="matrix(136 0 0 -1 96676 -131)">
				<stop  offset="0" style="stop-color:#FFFFFF"/>
				<stop  offset="1" style="stop-color:#FFFFFF"/>
			</linearGradient>
			<line class="st41" x1="12" y1="-165" x2="148" y2="-165"/>
			<text transform="matrix(1 0 0 1 25.7561 -153.8)" class="st4 st5">+WriteBatchSync()</text>
			<text transform="matrix(1 0 0 1 74.5823 -138.8)" class="st4 st5">...</text>
		</g>
		<g id="edge9">
			<path class="st11" d="M80-276.4c0,27.7,0,59.1,0,81.3"/>
			<g class="st1">
				<path class="st11" d="M80-276.4c0,27.7,0,59.1,0,81.3"/>
			</g>
			<g class="st1">
				<polygon class="st2" points="76.5,-276.4 77.4,-278 80,-286.4 80,-286.4 81.4,-283.1 83.5,-276.4 83.5,-276.4 81.6,-276.1 				
					"/>
			</g>
			
				<linearGradient id="SVGID_35_" gradientUnits="userSpaceOnUse" x1="-614.4033" y1="-116.0094" x2="-613.4033" y2="-117.0094" gradientTransform="matrix(7 0 0 -10.3053 4376.5 -1480.6974)">
				<stop  offset="0" style="stop-color:#FFFFFF"/>
				<stop  offset="1" style="stop-color:#FFFFFF"/>
			</linearGradient>
			<polygon class="st42" points="76.5,-276.4 78.5,-280.8 80,-286.4 80,-286.4 81.1,-283.8 83.5,-276.4 83.5,-276.4 80,-276.1 			
				"/>
		</g>
		<g id="node8">
			<g class="st1">
				<polygon class="st2" points="298.5,-1283 300.3,-1312.3 298.5,-1373 298.5,-1373 316.6,-1369.9 451.5,-1373 451.5,-1373 
					453.3,-1312.8 451.5,-1283 451.5,-1283 392.9,-1279.9 				"/>
			</g>
			
				<linearGradient id="SVGID_36_" gradientUnits="userSpaceOnUse" x1="-711.3952" y1="-130.2109" x2="-710.3952" y2="-131.2109" gradientTransform="matrix(154.8 0 0 -93.0601 110423.2891 -13490.9277)">
				<stop  offset="0" style="stop-color:#FFFFFF"/>
				<stop  offset="1" style="stop-color:#DCDCDC"/>
			</linearGradient>
			<polygon class="st43" points="298.5,-1283 300.3,-1321.5 298.5,-1373 298.5,-1373 348.8,-1369.9 451.5,-1373 451.5,-1373 
				453.3,-1311.2 451.5,-1283 451.5,-1283 400.6,-1279.9 			"/>
			<text transform="matrix(1 0 0 1 320.8069 -1361.8)" class="st4 st5">validation.cpp (file)</text>
			<g class="st1">
				<line class="st2" x1="298.5" y1="-1358" x2="451.5" y2="-1358"/>
			</g>
			
				<linearGradient id="SVGID_37_" gradientUnits="userSpaceOnUse" x1="-711.0964" y1="34.25" x2="-710.0964" y2="33.25" gradientTransform="matrix(153 0 0 -1 109134.5 -1324)">
				<stop  offset="0" style="stop-color:#FFFFFF"/>
				<stop  offset="1" style="stop-color:#FFFFFF"/>
			</linearGradient>
			<line class="st44" x1="298.5" y1="-1358" x2="451.5" y2="-1358"/>
			<text transform="matrix(1 0 0 1 326.5991 -1346.8)" class="st4 st5">DumpMempool()</text>
			<text transform="matrix(1 0 0 1 329.4778 -1331.8)" class="st4 st5">LoadMempool()</text>
			<text transform="matrix(1 0 0 1 320.2261 -1316.8)" class="st4 st5">WriteBlockToDisk()</text>
			<text transform="matrix(1 0 0 1 311.4346 -1301.8)" class="st4 st5">ReadBlockFromDisk()</text>
			<text transform="matrix(1 0 0 1 369.5823 -1286.8)" class="st4 st5">...</text>
		</g>
		<g id="node9">
			<g class="st1">
				<polygon class="st2" points="266.5,-1106 267.4,-1123.6 266.5,-1142 266.5,-1142 277.1,-1139.9 373.5,-1142 373.5,-1142 
					374.5,-1118.5 373.5,-1106 373.5,-1106 348.9,-1103.9 				"/>
			</g>
			
				<linearGradient id="SVGID_38_" gradientUnits="userSpaceOnUse" x1="-709.3796" y1="-127.6353" x2="-708.3796" y2="-128.6353" gradientTransform="matrix(107.7467 0 0 -38.14 76701.1172 -6010.4819)">
				<stop  offset="0" style="stop-color:#FFFFFF"/>
				<stop  offset="1" style="stop-color:#DCDCDC"/>
			</linearGradient>
			<polygon class="st45" points="266.5,-1106 267.6,-1135 266.5,-1142 266.5,-1142 350.3,-1139.9 373.5,-1142 373.5,-1142 
				374.2,-1138.1 373.5,-1106 373.5,-1106 324.1,-1103.9 			"/>
			<text transform="matrix(1 0 0 1 280.6318 -1120.3)" class="st4 st5">CTxMemPool</text>
		</g>
		<g id="edge7">
			<path class="st38" d="M362.9-1282.7c-10.8,39.8-26.4,97-35.5,130.5"/>
			<g class="st1">
				<path class="st38" d="M362.9-1282.7c-10.8,39.8-26.4,97-35.5,130.5"/>
			</g>
			<g class="st1">
				<polygon class="st2" points="324.7,-1142.2 326.6,-1143.8 331.7,-1150.7 331.7,-1150.7 330.2,-1149.3 326,-1147.1 326,-1147.1 
					327.8,-1151.3 327.3,-1151.9 327.3,-1151.9 327.4,-1151.8 327.3,-1151.9 327.3,-1151.9 327.6,-1151.7 327.3,-1151.9 
					327.3,-1151.9 327.4,-1151.5 326,-1147.1 326,-1147.1 325,-1149.4 323,-1153.1 323,-1153.1 323.8,-1149.6 324.7,-1142.2 
					324.7,-1142.2 324.7,-1142.2 				"/>
			</g>
			
				<linearGradient id="SVGID_39_" gradientUnits="userSpaceOnUse" x1="-634.0122" y1="-116.8337" x2="-633.0122" y2="-117.8337" gradientTransform="matrix(8.684 0 0 -10.9437 5828.7153 -2431.6416)">
				<stop  offset="0" style="stop-color:#969696"/>
				<stop  offset="1" style="stop-color:#000000"/>
			</linearGradient>
			<polygon class="st46" points="324.7,-1142.2 325.6,-1142.8 331.7,-1150.7 331.7,-1150.7 329,-1148.5 326,-1147.1 326,-1147.1 
				327.2,-1150 327.3,-1151.9 327.3,-1151.9 327.6,-1151.7 327.3,-1151.9 327.3,-1151.9 327.4,-1151.8 327.3,-1151.9 327.3,-1151.9 
				327.2,-1150.4 326,-1147.1 326,-1147.1 324.7,-1150 323,-1153.1 323,-1153.1 323.5,-1151.1 324.7,-1142.2 324.7,-1142.2 
				324.8,-1142.1 			"/>
			<text transform="matrix(1 0 0 1 354.0315 -1259.04)" class="st4 st14">uses</text>
		</g>
		<g id="node13">
			<g class="st1">
				<polygon class="st2" points="395,-1106 395.8,-1108.1 395,-1142 395,-1142 404.4,-1140.6 465,-1142 465,-1142 465.9,-1122.2 
					465,-1106 465,-1106 463.2,-1104.6 				"/>
			</g>
			
				<linearGradient id="SVGID_40_" gradientUnits="userSpaceOnUse" x1="-705.9294" y1="-127.5548" x2="-704.9294" y2="-128.5548" gradientTransform="matrix(70.7479 0 0 -37.4 50338.5156 -5912.8032)">
				<stop  offset="0" style="stop-color:#FFFFFF"/>
				<stop  offset="1" style="stop-color:#DCDCDC"/>
			</linearGradient>
			<polygon class="st47" points="395,-1106 395.9,-1117.5 395,-1142 395,-1142 402.7,-1140.6 465,-1142 465,-1142 465.7,-1138.7 
				465,-1106 465,-1106 463.2,-1104.6 			"/>
			<text transform="matrix(1 0 0 1 409.4114 -1120.3)" class="st4 st5">CBlock</text>
		</g>
		<g id="edge11">
			<path class="st38" d="M387.1-1282.7c10.8,39.8,26.4,97,35.5,130.5"/>
			<g class="st1">
				<path class="st38" d="M387.1-1282.7c10.8,39.8,26.4,97,35.5,130.5"/>
			</g>
			<g class="st1">
				<polygon class="st2" points="425.3,-1142.2 425.6,-1142.6 427,-1153.1 427,-1153.1 426.6,-1151.7 424,-1147.1 424,-1147.1 
					424.1,-1147.1 422.7,-1151.9 422.7,-1151.9 422.8,-1151.8 422.7,-1151.9 422.7,-1151.9 422.8,-1151.7 422.7,-1151.9 
					422.7,-1151.9 423.2,-1150.4 424,-1147.1 424,-1147.1 423.8,-1147.1 418.3,-1150.7 418.3,-1150.7 418.7,-1150.3 425.3,-1142.2 
					425.3,-1142.2 425.3,-1142.2 				"/>
			</g>
			
				<linearGradient id="SVGID_41_" gradientUnits="userSpaceOnUse" x1="-633.8568" y1="-116.677" x2="-632.8568" y2="-117.677" gradientTransform="matrix(8.6885 0 0 -10.9736 5927.3091 -2435.5894)">
				<stop  offset="0" style="stop-color:#969696"/>
				<stop  offset="1" style="stop-color:#000000"/>
			</linearGradient>
			<polygon class="st48" points="425.3,-1142.2 426.1,-1144.8 427,-1153.1 427,-1153.1 427,-1152.6 424,-1147.1 424,-1147.1 
				423.7,-1148.6 422.7,-1151.9 422.7,-1151.9 422.8,-1151.7 422.7,-1151.9 422.7,-1151.9 422.7,-1151.8 422.7,-1151.9 
				422.7,-1151.9 424.1,-1147.9 424,-1147.1 424,-1147.1 423.1,-1147.6 418.3,-1150.7 418.3,-1150.7 421.2,-1147.3 425.3,-1142.2 
				425.3,-1142.2 425.4,-1142.1 			"/>
			<text transform="matrix(1 0 0 1 388.0465 -1262.63)" class="st4 st14">uses</text>
		</g>
		<g id="node10">
			<g class="st1">
				<polygon class="st2" points="361.2,-904.5 318.8,-902.6 266.8,-904.5 266.8,-904.5 267.8,-886.9 266.8,-861.5 266.8,-861.5 
					304.8,-859.5 367.2,-861.5 367.2,-861.5 368.3,-889.4 367.2,-898.5 367.2,-898.5 364.8,-900.9 				"/>
			</g>
			
				<linearGradient id="SVGID_42_" gradientUnits="userSpaceOnUse" x1="-708.9785" y1="-128.3176" x2="-707.9785" y2="-129.3176" gradientTransform="matrix(101.3213 0 0 -45.01 72100.7734 -6679.8213)">
				<stop  offset="0" style="stop-color:#FFFFFF"/>
				<stop  offset="1" style="stop-color:#F5DEB3"/>
			</linearGradient>
			<polygon class="st49" points="361.2,-904.5 350.4,-902.6 266.8,-904.5 266.8,-904.5 267.9,-868.3 266.8,-861.5 266.8,-861.5 
				288.8,-859.5 367.2,-861.5 367.2,-861.5 368.1,-868 367.2,-898.5 367.2,-898.5 364.6,-901.1 			"/>
			<g class="st1">
				<line class="st2" x1="361.2" y1="-904.5" x2="361.2" y2="-898.5"/>
			</g>
			
				<linearGradient id="SVGID_43_" gradientUnits="userSpaceOnUse" x1="-4.25" y1="-104.5833" x2="-3.25" y2="-105.5833" gradientTransform="matrix(1 0 0 -6 365.25 -1530.5)">
				<stop  offset="0" style="stop-color:#FFFFFF"/>
				<stop  offset="1" style="stop-color:#FFFFFF"/>
			</linearGradient>
			<line class="st50" x1="361.2" y1="-904.5" x2="361.2" y2="-898.5"/>
			<g class="st1">
				<line class="st2" x1="367.2" y1="-898.5" x2="361.2" y2="-898.5"/>
			</g>
			
				<linearGradient id="SVGID_44_" gradientUnits="userSpaceOnUse" x1="-597.0833" y1="34.25" x2="-596.0833" y2="33.25" gradientTransform="matrix(6 0 0 -1 3945.25 -864.5)">
				<stop  offset="0" style="stop-color:#FFFFFF"/>
				<stop  offset="1" style="stop-color:#FFFFFF"/>
			</linearGradient>
			<line class="st51" x1="367.2" y1="-898.5" x2="361.2" y2="-898.5"/>
			<text transform="matrix(1 0 0 1 279.425 -879.3)" class="st4 st5">mempool.dat</text>
		</g>
		<g id="edge8">
			<path class="st38" d="M319.8-1105.8c-0.5,42.9-1.9,154.7-2.5,201.1"/>
			<g class="st1">
				<path class="st38" d="M319.8-1105.8c-0.5,42.9-1.9,154.7-2.5,201.1"/>
			</g>
			<text transform="matrix(1 0 0 1 291.7595 -919.882)" class="st4 st14">stores in</text>
		</g>
		<g id="node12">
			<g class="st1">
				<polygon class="st2" points="154,-43.5 42.7,-40.4 0,-43.5 0,-43.5 0.9,-35.5 0,-0.5 0,-0.5 19,2.7 160,-0.5 160,-0.5 
					160.9,-12.8 160,-37.5 160,-37.5 159.1,-38.4 				"/>
			</g>
			
				<linearGradient id="SVGID_45_" gradientUnits="userSpaceOnUse" x1="-711.5654" y1="-128.4002" x2="-710.5654" y2="-129.4002" gradientTransform="matrix(160.7997 0 0 -46.2 114420.5703 -5975.8999)">
				<stop  offset="0" style="stop-color:#FFFFFF"/>
				<stop  offset="1" style="stop-color:#F5DEB3"/>
			</linearGradient>
			<polygon class="st52" points="154,-43.5 125.3,-40.4 0,-43.5 0,-43.5 0.9,-28.8 0,-0.5 0,-0.5 37.4,2.7 160,-0.5 160,-0.5 
				160.8,-4.8 160,-37.5 160,-37.5 159.9,-37.6 			"/>
			<g class="st1">
				<line class="st2" x1="154" y1="-43.5" x2="154" y2="-37.5"/>
			</g>
			
				<linearGradient id="SVGID_46_" gradientUnits="userSpaceOnUse" x1="-4.25" y1="-104.5833" x2="-3.25" y2="-105.5833" gradientTransform="matrix(1 0 0 -6 158 -669.5)">
				<stop  offset="0" style="stop-color:#FFFFFF"/>
				<stop  offset="1" style="stop-color:#FFFFFF"/>
			</linearGradient>
			<line class="st53" x1="154" y1="-43.5" x2="154" y2="-37.5"/>
			<g class="st1">
				<line class="st2" x1="160" y1="-37.5" x2="154" y2="-37.5"/>
			</g>
			
				<linearGradient id="SVGID_47_" gradientUnits="userSpaceOnUse" x1="-597.0833" y1="34.25" x2="-596.0833" y2="33.25" gradientTransform="matrix(6 0 0 -1 3738 -3.5)">
				<stop  offset="0" style="stop-color:#FFFFFF"/>
				<stop  offset="1" style="stop-color:#FFFFFF"/>
			</linearGradient>
			<line class="st54" x1="160" y1="-37.5" x2="154" y2="-37.5"/>
			<text transform="matrix(1 0 0 1 13.5273 -18.3)" class="st4 st5">blocks/index (LevelDB)</text>
		</g>
		<g id="edge10">
			<path class="st38" d="M80-134.8c0,27.3,0,67.2,0,91.3"/>
			<g class="st1">
				<path class="st38" d="M80-134.8c0,27.3,0,67.2,0,91.3"/>
			</g>
			<text transform="matrix(1 0 0 1 54.2631 -58.6035)" class="st4 st14">stores in</text>
		</g>
		<g id="node14">
			<g class="st1">
				<polygon class="st2" points="480.2,-904.5 459.8,-902.6 385.8,-904.5 385.8,-904.5 386.8,-883.6 385.8,-861.5 385.8,-861.5 
					450.2,-859.5 486.2,-861.5 486.2,-861.5 487,-862.1 486.2,-898.5 486.2,-898.5 485.4,-899.4 				"/>
			</g>
			
				<linearGradient id="SVGID_48_" gradientUnits="userSpaceOnUse" x1="-708.9875" y1="-128.3179" x2="-707.9875" y2="-129.3179" gradientTransform="matrix(101.4473 0 0 -45.01 72309.9922 -6679.8213)">
				<stop  offset="0" style="stop-color:#FFFFFF"/>
				<stop  offset="1" style="stop-color:#F5DEB3"/>
			</linearGradient>
			<polygon class="st55" points="480.2,-904.5 425.2,-902.6 385.8,-904.5 385.8,-904.5 386.9,-878.7 385.8,-861.5 385.8,-861.5 
				464.1,-859.5 486.2,-861.5 486.2,-861.5 487.2,-881.3 486.2,-898.5 486.2,-898.5 486.4,-898.4 			"/>
			<g class="st1">
				<line class="st2" x1="480.2" y1="-904.5" x2="480.2" y2="-898.5"/>
			</g>
			
				<linearGradient id="SVGID_49_" gradientUnits="userSpaceOnUse" x1="-4.25" y1="-104.5833" x2="-3.25" y2="-105.5833" gradientTransform="matrix(1 0 0 -6 484.25 -1530.5)">
				<stop  offset="0" style="stop-color:#FFFFFF"/>
				<stop  offset="1" style="stop-color:#FFFFFF"/>
			</linearGradient>
			<line class="st56" x1="480.2" y1="-904.5" x2="480.2" y2="-898.5"/>
			<g class="st1">
				<line class="st2" x1="486.2" y1="-898.5" x2="480.2" y2="-898.5"/>
			</g>
			
				<linearGradient id="SVGID_50_" gradientUnits="userSpaceOnUse" x1="-597.0833" y1="34.25" x2="-596.0833" y2="33.25" gradientTransform="matrix(6 0 0 -1 4064.25 -864.5)">
				<stop  offset="0" style="stop-color:#FFFFFF"/>
				<stop  offset="1" style="stop-color:#FFFFFF"/>
			</linearGradient>
			<line class="st57" x1="486.2" y1="-898.5" x2="480.2" y2="-898.5"/>
			<text transform="matrix(1 0 0 1 398.7932 -879.3)" class="st4 st5">blocks/ (.dat)</text>
		</g>
		<g id="edge12">
			<path class="st38" d="M430.4-1105.8c1.1,42.9,3.9,154.7,5,201.1"/>
			<g class="st1">
				<path class="st38" d="M430.4-1105.8c1.1,42.9,3.9,154.7,5,201.1"/>
			</g>
			<text transform="matrix(1 0 0 1 409.2736 -919.62)" class="st4 st14">stores in</text>
		</g>
	</g>
</g>
</svg>
