<?xml version="1.0" encoding="utf-8"?>
<!-- Generator: Adobe Illustrator 25.2.3, SVG Export Plug-In . SVG Version: 6.00 Build 0)  -->
<svg version="1.1" xmlns="http://www.w3.org/2000/svg" xmlns:xlink="http://www.w3.org/1999/xlink" x="0px" y="0px"
	 viewBox="0 0 512 792" style="enable-background:new 0 0 512 792;" xml:space="preserve">
<style type="text/css">
	.st0{fill:#FFFFFF;}
	.st1{filter:url(#shadow);}
	.st2{opacity:0.2;}
	.st3{fill:url(#SVGID_1_);stroke:#000000;}
	.st4{font-family:'ArialMT';}
	.st5{font-size:13px;}
	.st6{fill:url(#SVGID_2_);stroke:#000000;}
	.st7{fill:url(#SVGID_3_);stroke:#000000;}
	.st8{fill:url(#SVGID_4_);stroke:#000000;}
	.st9{fill:url(#SVGID_5_);stroke:#000000;}
	.st10{fill:url(#SVGID_6_);stroke:#000000;}
	.st11{fill:none;stroke:#000000;}
	.st12{fill:url(#SVGID_7_);stroke:#000000;}
	.st13{fill:url(#SVGID_8_);stroke:#000000;}
	.st14{font-size:10px;}
	.st15{fill:url(#SVGID_9_);stroke:#000000;}
	.st16{fill:url(#SVGID_10_);stroke:#000000;}
	.st17{fill:url(#SVGID_11_);stroke:#000000;}
	.st18{fill:none;stroke:#000000;stroke-dasharray:5,2;}
	.st19{fill:url(#SVGID_12_);stroke:#000000;}
	.st20{fill:url(#SVGID_13_);stroke:#000000;}
	.st21{fill:url(#SVGID_14_);stroke:#000000;}
	.st22{fill:url(#SVGID_15_);stroke:#000000;}
	.st23{fill:url(#SVGID_16_);stroke:#000000;}
	.st24{fill:url(#SVGID_17_);stroke:#000000;}
	.st25{fill:url(#SVGID_18_);stroke:#000000;}
	.st26{fill:url(#SVGID_19_);stroke:#000000;}
	.st27{fill:url(#SVGID_20_);stroke:#000000;}
	.st28{fill:url(#SVGID_21_);stroke:#000000;}
	.st29{fill:url(#SVGID_22_);stroke:#000000;}
	.st30{fill:url(#SVGID_23_);stroke:#000000;}
	.st31{fill:url(#SVGID_24_);stroke:#000000;}
	.st32{fill:url(#SVGID_25_);stroke:#000000;}
	.st33{fill:url(#SVGID_26_);stroke:#000000;}
	.st34{fill:url(#SVGID_27_);stroke:#000000;}
	.st35{fill:url(#SVGID_28_);stroke:#000000;}
	.st36{fill:url(#SVGID_29_);stroke:#000000;}
	.st37{fill:url(#SVGID_30_);stroke:#000000;}
	.st38{fill:url(#SVGID_31_);stroke:#000000;}
	.st39{fill:url(#SVGID_32_);stroke:#000000;}
	.st40{fill:url(#SVGID_33_);stroke:#000000;}
	.st41{fill:url(#SVGID_34_);stroke:#000000;}
	.st42{fill:url(#SVGID_35_);stroke:#000000;}
	.st43{fill:url(#SVGID_36_);stroke:#000000;}
	.st44{fill:url(#SVGID_37_);stroke:#000000;}
</style>
<filter  filterRes="100" id="shadow" x="0" y="0">
	<feGaussianBlur  stdDeviation="2 2"></feGaussianBlur>
	<feOffset  dx="2" dy="2"></feOffset>
</filter>
<g id="Camada_2">
	<rect y="-12.5" class="st0" width="523.6" height="814.3"/>
</g>
<g id="Camada_1" xmlns:svg="http://www.w3.org/2000/svg">
	<g id="graph0" transform="scale(1 1) rotate(0) translate(4 758)">
		<g id="node1">
			<g class="st1">
				<polygon class="st2" points="109.5,-678.5 111,-689.7 109.5,-753.5 109.5,-753.5 152.9,-751.2 226.5,-753.5 226.5,-753.5 
					228,-727.4 226.5,-678.5 226.5,-678.5 185.1,-676.2 				"/>
			</g>
			
				<linearGradient id="SVGID_1_" gradientUnits="userSpaceOnUse" x1="-701.0631" y1="177.1554" x2="-700.0631" y2="176.1554" gradientTransform="matrix(118.5 0 0 -77.34 83186 12947.3652)">
				<stop  offset="0" style="stop-color:#FFFFFF"/>
				<stop  offset="1" style="stop-color:#DCDCDC"/>
			</linearGradient>
			<polygon class="st3" points="109.5,-678.5 111,-744.8 109.5,-753.5 109.5,-753.5 115.9,-751.2 226.5,-753.5 226.5,-753.5 
				228,-697.4 226.5,-678.5 226.5,-678.5 194,-676.2 			"/>
			<text transform="matrix(1 0 0 1 123.687 -742.3)" class="st4 st5">CCoinsViewDB</text>
			<g class="st1">
				<line class="st2" x1="109.5" y1="-738.5" x2="226.5" y2="-738.5"/>
			</g>
			
				<linearGradient id="SVGID_2_" gradientUnits="userSpaceOnUse" x1="-700.7415" y1="36.25" x2="-699.7415" y2="35.25" gradientTransform="matrix(117 0 0 -1 82125.5 -702.5)">
				<stop  offset="0" style="stop-color:#FFFFFF"/>
				<stop  offset="1" style="stop-color:#FFFFFF"/>
			</linearGradient>
			<line class="st6" x1="109.5" y1="-738.5" x2="226.5" y2="-738.5"/>
			<text transform="matrix(1 0 0 1 147.9446 -727.3)" class="st4 st5">+m_db</text>
			<text transform="matrix(1 0 0 1 162.5823 -712.3)" class="st4 st5">...</text>
			<g class="st1">
				<line class="st2" x1="109.5" y1="-708.5" x2="226.5" y2="-708.5"/>
			</g>
			
				<linearGradient id="SVGID_3_" gradientUnits="userSpaceOnUse" x1="-700.7415" y1="36.25" x2="-699.7415" y2="35.25" gradientTransform="matrix(117 0 0 -1 82125.5 -672.5)">
				<stop  offset="0" style="stop-color:#FFFFFF"/>
				<stop  offset="1" style="stop-color:#FFFFFF"/>
			</linearGradient>
			<line class="st7" x1="109.5" y1="-708.5" x2="226.5" y2="-708.5"/>
			<text transform="matrix(1 0 0 1 132.0024 -697.3)" class="st4 st5">BatchWrite()</text>
			<text transform="matrix(1 0 0 1 162.5823 -682.3)" class="st4 st5">...</text>
		</g>
		<g id="node2">
			<g class="st1">
				<polygon class="st2" points="44,-467 46.4,-483.8 44,-587 44,-587 112.3,-584.9 148,-587 148,-587 150.4,-482.7 148,-467 
					148,-467 145.5,-464.9 				"/>
			</g>
			
				<linearGradient id="SVGID_4_" gradientUnits="userSpaceOnUse" x1="-700.3942" y1="177.8273" x2="-699.3942" y2="176.8273" gradientTransform="matrix(106.4 0 0 -122.08 74565.7969 21122.3184)">
				<stop  offset="0" style="stop-color:#FFFFFF"/>
				<stop  offset="1" style="stop-color:#DCDCDC"/>
			</linearGradient>
			<polygon class="st8" points="44,-467 46.4,-510.9 44,-587 44,-587 87.7,-584.9 148,-587 148,-587 150.4,-579.3 148,-467 
				148,-467 94.9,-464.9 			"/>
			<text transform="matrix(1 0 0 1 57.4697 -575.8)" class="st4 st5">CDBWrapper</text>
			<g class="st1">
				<line class="st2" x1="44" y1="-572" x2="148" y2="-572"/>
			</g>
			
				<linearGradient id="SVGID_5_" gradientUnits="userSpaceOnUse" x1="-699.9904" y1="36.25" x2="-698.9904" y2="35.25" gradientTransform="matrix(104 0 0 -1 72869 -536)">
				<stop  offset="0" style="stop-color:#FFFFFF"/>
				<stop  offset="1" style="stop-color:#FFFFFF"/>
			</linearGradient>
			<line class="st9" x1="44" y1="-572" x2="148" y2="-572"/>
			<text transform="matrix(1 0 0 1 82.9905 -560.8)" class="st4 st5">-pdb</text>
			<text transform="matrix(1 0 0 1 77.5759 -545.8)" class="st4 st5">-name</text>
			<text transform="matrix(1 0 0 1 90.5823 -530.8)" class="st4 st5">...</text>
			<g class="st1">
				<line class="st2" x1="44" y1="-527" x2="148" y2="-527"/>
			</g>
			
				<linearGradient id="SVGID_6_" gradientUnits="userSpaceOnUse" x1="-699.9904" y1="36.25" x2="-698.9904" y2="35.25" gradientTransform="matrix(104 0 0 -1 72869 -491)">
				<stop  offset="0" style="stop-color:#FFFFFF"/>
				<stop  offset="1" style="stop-color:#FFFFFF"/>
			</linearGradient>
			<line class="st10" x1="44" y1="-527" x2="148" y2="-527"/>
			<text transform="matrix(1 0 0 1 72.3359 -515.8)" class="st4 st5">+Read()</text>
			<text transform="matrix(1 0 0 1 72.8279 -500.8)" class="st4 st5">+Write()</text>
			<text transform="matrix(1 0 0 1 60.0024 -485.8)" class="st4 st5">WriteBatch()</text>
			<text transform="matrix(1 0 0 1 90.5823 -470.8)" class="st4 st5">...</text>
		</g>
		<g id="edge1">
			<path class="st11" d="M149.4-666.6c-8.2,21.3-18,46.7-26.9,69.9"/>
			<g class="st1">
				<path class="st11" d="M149.4-666.6c-8.2,21.3-18,46.7-26.9,69.9"/>
			</g>
			<g class="st1">
				<polygon class="st2" points="149.5,-666.9 152.1,-668.2 155.4,-671 155.4,-671 155.2,-672.6 153.8,-678.1 153.8,-678.1 
					153.9,-677.9 147.9,-673.9 147.9,-673.9 148.4,-672.3 				"/>
			</g>
			
				<linearGradient id="SVGID_7_" gradientUnits="userSpaceOnUse" x1="-612.839" y1="166.277" x2="-611.839" y2="165.277" gradientTransform="matrix(7.466 0 0 -11.2387 4723.3506 1190.6738)">
				<stop  offset="0" style="stop-color:#FFFFFF"/>
				<stop  offset="1" style="stop-color:#FFFFFF"/>
			</linearGradient>
			<polygon class="st12" points="149.5,-666.9 149.8,-666.8 155.4,-671 155.4,-671 155.1,-673.4 153.8,-678.1 153.8,-678.1 
				153,-677.1 147.9,-673.9 147.9,-673.9 148.2,-673.1 			"/>
			<g class="st1">
				<polygon class="st2" points="118.8,-587.3 125.1,-592.4 126.6,-595 126.6,-595 124.2,-593.3 120.6,-592 120.6,-592 122,-594.2 
					122.4,-596.7 122.4,-596.7 122.8,-596.4 122.4,-596.7 122.4,-596.7 122.7,-596.4 122.4,-596.7 122.4,-596.7 122.1,-595.1 
					120.6,-592 120.6,-592 120.4,-592.9 118.2,-598.3 118.2,-598.3 119,-592 118.8,-587.3 118.8,-587.3 119.1,-587.1 				"/>
			</g>
			
				<linearGradient id="SVGID_8_" gradientUnits="userSpaceOnUse" x1="-623.3539" y1="165.9437" x2="-622.3539" y2="164.9437" gradientTransform="matrix(8.399 0 0 -10.9984 5353.3276 1227.437)">
				<stop  offset="0" style="stop-color:#969696"/>
				<stop  offset="1" style="stop-color:#000000"/>
			</linearGradient>
			<polygon class="st13" points="118.8,-587.3 122.2,-589.9 126.6,-595 126.6,-595 123.6,-592.9 120.6,-592 120.6,-592 
				122.7,-595.5 122.4,-596.7 122.4,-596.7 122.5,-596.6 122.4,-596.7 122.4,-596.7 122.5,-596.6 122.4,-596.7 122.4,-596.7 
				122.2,-595.3 120.6,-592 120.6,-592 120.3,-593.3 118.2,-598.3 118.2,-598.3 118.7,-595.4 118.8,-587.3 118.8,-587.3 
				118.9,-587.3 			"/>
			<text transform="matrix(1 0 0 1 116.4282 -603.615)" class="st4 st14">1</text>
		</g>
		<g id="node3">
			<g class="st1">
				<polygon class="st2" points="309.2,-548.5 299.8,-545.7 166.8,-548.5 166.8,-548.5 167.7,-532.4 166.8,-505.5 166.8,-505.5 
					256.7,-502.5 315.2,-505.5 315.2,-505.5 316.3,-530.8 315.2,-542.5 315.2,-542.5 311.6,-546.1 				"/>
			</g>
			
				<linearGradient id="SVGID_9_" gradientUnits="userSpaceOnUse" x1="-702.289" y1="175.8939" x2="-701.289" y2="174.8939" gradientTransform="matrix(149.3727 0 0 -45.97 105070.2344 7537.1304)">
				<stop  offset="0" style="stop-color:#FFFFFF"/>
				<stop  offset="1" style="stop-color:#F5DEB3"/>
			</linearGradient>
			<polygon class="st15" points="309.2,-548.5 264.3,-545.7 166.8,-548.5 166.8,-548.5 167.7,-538.3 166.8,-505.5 166.8,-505.5 
				267.4,-502.5 315.2,-505.5 315.2,-505.5 316.1,-519.9 315.2,-542.5 315.2,-542.5 315.4,-542.4 			"/>
			<g class="st1">
				<line class="st2" x1="309.2" y1="-548.5" x2="309.2" y2="-542.5"/>
			</g>
			
				<linearGradient id="SVGID_10_" gradientUnits="userSpaceOnUse" x1="-4.25" y1="154.9167" x2="-3.25" y2="153.9167" gradientTransform="matrix(1 0 0 -6 313.25 382.5)">
				<stop  offset="0" style="stop-color:#FFFFFF"/>
				<stop  offset="1" style="stop-color:#FFFFFF"/>
			</linearGradient>
			<line class="st16" x1="309.2" y1="-548.5" x2="309.2" y2="-542.5"/>
			<g class="st1">
				<line class="st2" x1="315.2" y1="-542.5" x2="309.2" y2="-542.5"/>
			</g>
			
				<linearGradient id="SVGID_11_" gradientUnits="userSpaceOnUse" x1="-589.5833" y1="36.25" x2="-588.5833" y2="35.25" gradientTransform="matrix(6 0 0 -1 3848.25 -506.5)">
				<stop  offset="0" style="stop-color:#FFFFFF"/>
				<stop  offset="1" style="stop-color:#FFFFFF"/>
			</linearGradient>
			<line class="st17" x1="315.2" y1="-542.5" x2="309.2" y2="-542.5"/>
			<text transform="matrix(1 0 0 1 178.8596 -523.3)" class="st4 st5">chainstate/ (LevelDB)</text>
		</g>
		<g id="edge2">
			<path class="st18" d="M182.4-678.1c15.1,38.7,38.4,98.2,50.5,129.4"/>
			<g class="st1">
				<path class="st18" d="M182.4-678.1c15.1,38.7,38.4,98.2,50.5,129.4"/>
			</g>
			<text transform="matrix(1 0 0 1 200.8345 -559.973)" class="st4 st14">stores in</text>
		</g>
		<g id="node4">
			<g class="st1">
				<polygon class="st2" points="13,-308 14.2,-339.9 13,-368 13,-368 44,-365.3 149,-368 149,-368 150.2,-335.2 149,-308 149,-308 
					63.4,-305.3 				"/>
			</g>
			
				<linearGradient id="SVGID_12_" gradientUnits="userSpaceOnUse" x1="-701.8674" y1="176.7287" x2="-700.8674" y2="175.7287" gradientTransform="matrix(137.2 0 0 -62.72 96310.3984 10715.8799)">
				<stop  offset="0" style="stop-color:#FFFFFF"/>
				<stop  offset="1" style="stop-color:#DCDCDC"/>
			</linearGradient>
			<polygon class="st19" points="13,-308 14.2,-349 13,-368 13,-368 21.5,-365.3 149,-368 149,-368 150.2,-354.3 149,-308 149,-308 
				111.6,-305.3 			"/>
			<text transform="matrix(1 0 0 1 38.2581 -356.8)" class="st4 st5">CBlockTreeDB</text>
			<g class="st1">
				<line class="st2" x1="13" y1="-353" x2="149" y2="-353"/>
			</g>
			
				<linearGradient id="SVGID_13_" gradientUnits="userSpaceOnUse" x1="-701.5809" y1="36.25" x2="-700.5809" y2="35.25" gradientTransform="matrix(136 0 0 -1 95462 -317)">
				<stop  offset="0" style="stop-color:#FFFFFF"/>
				<stop  offset="1" style="stop-color:#FFFFFF"/>
			</linearGradient>
			<line class="st20" x1="13" y1="-353" x2="149" y2="-353"/>
			<text transform="matrix(1 0 0 1 75.5823 -341.8)" class="st4 st5">...</text>
			<g class="st1">
				<line class="st2" x1="13" y1="-338" x2="149" y2="-338"/>
			</g>
			
				<linearGradient id="SVGID_14_" gradientUnits="userSpaceOnUse" x1="-701.5809" y1="36.25" x2="-700.5809" y2="35.25" gradientTransform="matrix(136 0 0 -1 95462 -302)">
				<stop  offset="0" style="stop-color:#FFFFFF"/>
				<stop  offset="1" style="stop-color:#FFFFFF"/>
			</linearGradient>
			<line class="st21" x1="13" y1="-338" x2="149" y2="-338"/>
			<text transform="matrix(1 0 0 1 26.7561 -326.8)" class="st4 st5">+WriteBatchSync()</text>
			<text transform="matrix(1 0 0 1 75.5823 -311.8)" class="st4 st5">...</text>
		</g>
		<g id="edge3">
			<path class="st11" d="M90.4-456.6c-2.5,30.6-5.2,65-7.1,88.6"/>
			<g class="st1">
				<path class="st11" d="M90.4-456.6c-2.5,30.6-5.2,65-7.1,88.6"/>
			</g>
			<g class="st1">
				<polygon class="st2" points="87,-457.1 87.4,-457.4 91.3,-466.8 91.3,-466.8 92.5,-463.1 93.9,-456.6 93.9,-456.6 89.3,-456.7 
									"/>
			</g>
			
				<linearGradient id="SVGID_15_" gradientUnits="userSpaceOnUse" x1="-606.3273" y1="165.1449" x2="-605.3273" y2="164.1449" gradientTransform="matrix(6.9775 0 0 -10.3808 4317.0586 1248.3364)">
				<stop  offset="0" style="stop-color:#FFFFFF"/>
				<stop  offset="1" style="stop-color:#FFFFFF"/>
			</linearGradient>
			<polygon class="st22" points="87,-457.1 87.5,-457.6 91.3,-466.8 91.3,-466.8 93,-461.2 93.9,-456.6 93.9,-456.6 93.7,-456.5 			
				"/>
		</g>
		<g id="node6">
			<g class="st1">
				<polygon class="st2" points="169,-308 170.2,-334.6 169,-368 169,-368 187.4,-365.3 303,-368 303,-368 304.2,-357.6 303,-308 
					303,-308 210.9,-305.3 				"/>
			</g>
			
				<linearGradient id="SVGID_16_" gradientUnits="userSpaceOnUse" x1="-701.7918" y1="176.727" x2="-700.7918" y2="175.727" gradientTransform="matrix(135.2 0 0 -62.68 95052.4062 10708.7188)">
				<stop  offset="0" style="stop-color:#FFFFFF"/>
				<stop  offset="1" style="stop-color:#DCDCDC"/>
			</linearGradient>
			<polygon class="st23" points="169,-308 170.2,-342.8 169,-368 169,-368 212.6,-365.3 303,-368 303,-368 304.2,-333.7 303,-308 
				303,-308 267.2,-305.3 			"/>
			<text transform="matrix(1 0 0 1 192.6423 -356.8)" class="st4 st5">BaseIndex::DB</text>
			<g class="st1">
				<line class="st2" x1="169" y1="-353" x2="303" y2="-353"/>
			</g>
			
				<linearGradient id="SVGID_17_" gradientUnits="userSpaceOnUse" x1="-701.5037" y1="36.25" x2="-700.5037" y2="35.25" gradientTransform="matrix(134 0 0 -1 94204 -317)">
				<stop  offset="0" style="stop-color:#FFFFFF"/>
				<stop  offset="1" style="stop-color:#FFFFFF"/>
			</linearGradient>
			<line class="st24" x1="169" y1="-353" x2="303" y2="-353"/>
			<text transform="matrix(1 0 0 1 183.4351 -341.8)" class="st4 st5">+ReadBestBlock()</text>
			<text transform="matrix(1 0 0 1 183.927 -326.8)" class="st4 st5">+WriteBestBlock()</text>
			<text transform="matrix(1 0 0 1 230.5823 -311.8)" class="st4 st5">...</text>
		</g>
		<g id="edge5">
			<path class="st11" d="M146.5-458.6c23.3,31.1,49.7,66.4,67.8,90.6"/>
			<g class="st1">
				<path class="st11" d="M146.5-458.6c23.3,31.1,49.7,66.4,67.8,90.6"/>
			</g>
			<g class="st1">
				<polygon class="st2" points="143.5,-456.7 142.6,-460.5 140.3,-466.8 140.3,-466.8 146.5,-462.6 149.1,-460.9 149.1,-460.9 
					144.2,-456.5 				"/>
			</g>
			
				<linearGradient id="SVGID_18_" gradientUnits="userSpaceOnUse" x1="-627.1237" y1="164.7903" x2="-626.1237" y2="163.7903" gradientTransform="matrix(8.795 0 0 -10.103 5655.3608 1198.6045)">
				<stop  offset="0" style="stop-color:#FFFFFF"/>
				<stop  offset="1" style="stop-color:#FFFFFF"/>
			</linearGradient>
			<polygon class="st25" points="143.5,-456.7 143.2,-458.2 140.3,-466.8 140.3,-466.8 146.6,-462.5 149.1,-460.9 149.1,-460.9 
				148.7,-460.3 			"/>
		</g>
		<g id="node5">
			<g class="st1">
				<polygon class="st2" points="154,-193.5 145.5,-190.4 0,-193.5 0,-193.5 1,-177.4 0,-150.5 0,-150.5 21.4,-147.3 160,-150.5 
					160,-150.5 160.9,-165.8 160,-187.5 160,-187.5 157.8,-189.8 				"/>
			</g>
			
				<linearGradient id="SVGID_19_" gradientUnits="userSpaceOnUse" x1="-702.623" y1="175.9114" x2="-701.623" y2="174.9114" gradientTransform="matrix(160.8562 0 0 -46.2 113022.3203 7933.2993)">
				<stop  offset="0" style="stop-color:#FFFFFF"/>
				<stop  offset="1" style="stop-color:#F5DEB3"/>
			</linearGradient>
			<polygon class="st26" points="154,-193.5 50.9,-190.4 0,-193.5 0,-193.5 1,-183.8 0,-150.5 0,-150.5 13,-147.3 160,-150.5 
				160,-150.5 160.9,-165.1 160,-187.5 160,-187.5 159.9,-187.6 			"/>
			<g class="st1">
				<line class="st2" x1="154" y1="-193.5" x2="154" y2="-187.5"/>
			</g>
			
				<linearGradient id="SVGID_20_" gradientUnits="userSpaceOnUse" x1="-4.25" y1="154.9167" x2="-3.25" y2="153.9167" gradientTransform="matrix(1 0 0 -6 158 737.5)">
				<stop  offset="0" style="stop-color:#FFFFFF"/>
				<stop  offset="1" style="stop-color:#FFFFFF"/>
			</linearGradient>
			<line class="st27" x1="154" y1="-193.5" x2="154" y2="-187.5"/>
			<g class="st1">
				<line class="st2" x1="160" y1="-187.5" x2="154" y2="-187.5"/>
			</g>
			
				<linearGradient id="SVGID_21_" gradientUnits="userSpaceOnUse" x1="-589.5833" y1="36.25" x2="-588.5833" y2="35.25" gradientTransform="matrix(6 0 0 -1 3693 -151.5)">
				<stop  offset="0" style="stop-color:#FFFFFF"/>
				<stop  offset="1" style="stop-color:#FFFFFF"/>
			</linearGradient>
			<line class="st28" x1="160" y1="-187.5" x2="154" y2="-187.5"/>
			<text transform="matrix(1 0 0 1 13.5273 -168.3)" class="st4 st5">blocks/index (LevelDB)</text>
		</g>
		<g id="edge4">
			<path class="st18" d="M80.8-307.7c-0.2,32.8-0.5,85.1-0.7,113.9"/>
			<g class="st1">
				<path class="st18" d="M80.8-307.7c-0.2,32.8-0.5,85.1-0.7,113.9"/>
			</g>
			<text transform="matrix(1 0 0 1 54.5044 -208.89)" class="st4 st14">stores in</text>
		</g>
		<g id="node10">
			<g class="st1">
				<polygon class="st2" points="178.5,-134.5 180,-162.1 178.5,-209.5 178.5,-209.5 205,-207.2 293.5,-209.5 293.5,-209.5 
					295,-201.7 293.5,-134.5 293.5,-134.5 267.1,-132.2 				"/>
			</g>
			
				<linearGradient id="SVGID_22_" gradientUnits="userSpaceOnUse" x1="-700.9614" y1="177.1543" x2="-699.9614" y2="176.1543" gradientTransform="matrix(116.5 0 0 -77.3 81841 13484.2002)">
				<stop  offset="0" style="stop-color:#FFFFFF"/>
				<stop  offset="1" style="stop-color:#DCDCDC"/>
			</linearGradient>
			<polygon class="st29" points="178.5,-134.5 180,-171.8 178.5,-209.5 178.5,-209.5 243.7,-207.2 293.5,-209.5 293.5,-209.5 
				295,-207.1 293.5,-134.5 293.5,-134.5 217.9,-132.2 			"/>
			<text transform="matrix(1 0 0 1 200.2373 -198.3)" class="st4 st5">TxIndex::DB</text>
			<g class="st1">
				<line class="st2" x1="178.5" y1="-194.5" x2="293.5" y2="-194.5"/>
			</g>
			
				<linearGradient id="SVGID_23_" gradientUnits="userSpaceOnUse" x1="-700.637" y1="36.25" x2="-699.637" y2="35.25" gradientTransform="matrix(115 0 0 -1 80780.5 -158.5)">
				<stop  offset="0" style="stop-color:#FFFFFF"/>
				<stop  offset="1" style="stop-color:#FFFFFF"/>
			</linearGradient>
			<line class="st30" x1="178.5" y1="-194.5" x2="293.5" y2="-194.5"/>
			<text transform="matrix(1 0 0 1 193.915 -183.3)" class="st4 st5">+ReadTxPos()</text>
			<text transform="matrix(1 0 0 1 202.3574 -168.3)" class="st4 st5">+WriteTxs()</text>
			<text transform="matrix(1 0 0 1 192.4709 -153.3)" class="st4 st5">+MigrateData()</text>
			<text transform="matrix(1 0 0 1 230.5823 -138.3)" class="st4 st5">...</text>
		</g>
		<g id="edge9">
			<path class="st11" d="M236-297.5c0,26.8,0,61.9,0,88"/>
			<g class="st1">
				<path class="st11" d="M236-297.5c0,26.8,0,61.9,0,88"/>
			</g>
			<g class="st1">
				<polygon class="st2" points="232.5,-297.7 233.6,-299.7 236,-307.7 236,-307.7 236.3,-307.3 239.5,-297.7 239.5,-297.7 
					236.3,-297.3 				"/>
			</g>
			
				<linearGradient id="SVGID_24_" gradientUnits="userSpaceOnUse" x1="-606.6898" y1="164.8564" x2="-605.6898" y2="163.8564" gradientTransform="matrix(7 0 0 -10.1959 4478.5 1374.3793)">
				<stop  offset="0" style="stop-color:#FFFFFF"/>
				<stop  offset="1" style="stop-color:#FFFFFF"/>
			</linearGradient>
			<polygon class="st31" points="232.5,-297.7 233.8,-300.2 236,-307.7 236,-307.7 236.2,-307.4 239.5,-297.7 239.5,-297.7 
				238.9,-297.5 			"/>
		</g>
		<g id="node7">
			<g class="st1">
				<polygon class="st2" points="341,-497 342.2,-525.2 341,-557 341,-557 361.6,-554.8 449,-557 449,-557 450.2,-531.3 449,-497 
					449,-497 414.3,-494.8 				"/>
			</g>
			
				<linearGradient id="SVGID_25_" gradientUnits="userSpaceOnUse" x1="-700.5563" y1="176.7054" x2="-699.5563" y2="175.7054" gradientTransform="matrix(109.2 0 0 -62.16 76842.4062 10426.6406)">
				<stop  offset="0" style="stop-color:#FFFFFF"/>
				<stop  offset="1" style="stop-color:#DCDCDC"/>
			</linearGradient>
			<polygon class="st32" points="341,-497 342.2,-498.4 341,-557 341,-557 362.2,-554.8 449,-557 449,-557 450.2,-527 449,-497 
				449,-497 415.2,-494.8 			"/>
			<text transform="matrix(1 0 0 1 364.2837 -545.8)" class="st4 st5">BaseIndex</text>
			<g class="st1">
				<line class="st2" x1="341" y1="-542" x2="449" y2="-542"/>
			</g>
			
				<linearGradient id="SVGID_26_" gradientUnits="userSpaceOnUse" x1="-700.2407" y1="36.25" x2="-699.2407" y2="35.25" gradientTransform="matrix(108 0 0 -1 75994 -506)">
				<stop  offset="0" style="stop-color:#FFFFFF"/>
				<stop  offset="1" style="stop-color:#FFFFFF"/>
			</linearGradient>
			<line class="st33" x1="341" y1="-542" x2="449" y2="-542"/>
			<text transform="matrix(1 0 0 1 356.1143 -530.8)" class="st4 st5">#WriteBlock()</text>
			<text transform="matrix(1 0 0 1 373.1482 -515.8)" class="st4 st5">+Start()</text>
			<text transform="matrix(1 0 0 1 389.5823 -500.8)" class="st4 st5">...</text>
		</g>
		<g id="edge6">
			<path class="st11" d="M362-487.2c-27.8,32.7-67.4,79.2-94.7,111.4"/>
			<g class="st1">
				<path class="st11" d="M362-487.2c-27.8,32.7-67.4,79.2-94.7,111.4"/>
			</g>
			<g class="st1">
				<polygon class="st2" points="362.4,-487.6 362.6,-487.5 369.3,-489.6 369.3,-489.6 369.9,-492.2 370.2,-496.8 370.2,-496.8 
					366.1,-495.1 363.2,-494.8 363.2,-494.8 363.3,-493.9 				"/>
			</g>
			
				<linearGradient id="SVGID_27_" gradientUnits="userSpaceOnUse" x1="-616.5588" y1="163.3579" x2="-615.5588" y2="162.3579" gradientTransform="matrix(7.773 0 0 -9.142 5154.9014 996.6367)">
				<stop  offset="0" style="stop-color:#FFFFFF"/>
				<stop  offset="1" style="stop-color:#FFFFFF"/>
			</linearGradient>
			<polygon class="st34" points="362.4,-487.6 364.4,-487.9 369.3,-489.6 369.3,-489.6 369.9,-491.8 370.2,-496.8 370.2,-496.8 
				368.9,-496.1 363.2,-494.8 363.2,-494.8 363.3,-493.3 			"/>
			<g class="st1">
				<polygon class="st2" points="260.7,-368 267.3,-370.5 270.6,-372.7 270.6,-372.7 270.7,-372.6 263.9,-371.8 263.9,-371.8 
					267.2,-374.8 267.1,-375.6 267.1,-375.6 267.2,-375.6 267.1,-375.6 267.1,-375.6 267.3,-375.6 267.1,-375.6 267.1,-375.6 
					265.5,-373.1 263.9,-371.8 263.9,-371.8 264.1,-373.2 263.7,-378.5 263.7,-378.5 262.4,-372.1 260.7,-368 260.7,-368 
					261,-367.7 				"/>
			</g>
			
				<linearGradient id="SVGID_28_" gradientUnits="userSpaceOnUse" x1="-636.1672" y1="165.4652" x2="-635.1672" y2="164.4652" gradientTransform="matrix(9.906 0 0 -10.6713 6561.2153 1388.6094)">
				<stop  offset="0" style="stop-color:#969696"/>
				<stop  offset="1" style="stop-color:#000000"/>
			</linearGradient>
			<polygon class="st35" points="260.7,-368 263.8,-369 270.6,-372.7 270.6,-372.7 269.2,-372.3 263.9,-371.8 263.9,-371.8 
				265.6,-373.3 267.1,-375.6 267.1,-375.6 267.4,-375.4 267.1,-375.6 267.1,-375.6 267.1,-375.6 267.1,-375.6 267.1,-375.6 
				266.9,-375 263.9,-371.8 263.9,-371.8 264.1,-375.7 263.7,-378.5 263.7,-378.5 263.9,-378.2 260.7,-368 260.7,-368 260.8,-367.9 
							"/>
			<text transform="matrix(1 0 0 1 264.8512 -383.062)" class="st4 st14">1</text>
		</g>
		<g id="node8">
			<g class="st1">
				<polygon class="st2" points="327,-300.5 328.5,-361 327,-375.5 327,-375.5 470.7,-372.5 477,-375.5 477,-375.5 478.5,-355.8 
					477,-300.5 477,-300.5 461.8,-297.5 				"/>
			</g>
			
				<linearGradient id="SVGID_29_" gradientUnits="userSpaceOnUse" x1="-702.3526" y1="177.1738" x2="-701.3526" y2="176.1738" gradientTransform="matrix(151.5 0 0 -78 106734.5 13443.5)">
				<stop  offset="0" style="stop-color:#FFFFFF"/>
				<stop  offset="1" style="stop-color:#DCDCDC"/>
			</linearGradient>
			<polygon class="st36" points="327,-300.5 328.5,-359.3 327,-375.5 327,-375.5 346.8,-372.5 477,-375.5 477,-375.5 478.5,-369.5 
				477,-300.5 477,-300.5 459.9,-297.5 			"/>
			<text transform="matrix(1 0 0 1 355.7605 -364.3)" class="st4 st5">BlockFilterIndex</text>
			<g class="st1">
				<line class="st2" x1="327" y1="-360.5" x2="477" y2="-360.5"/>
			</g>
			
				<linearGradient id="SVGID_30_" gradientUnits="userSpaceOnUse" x1="-702.0634" y1="36.25" x2="-701.0634" y2="35.25" gradientTransform="matrix(150 0 0 -1 105674 -324.5)">
				<stop  offset="0" style="stop-color:#FFFFFF"/>
				<stop  offset="1" style="stop-color:#FFFFFF"/>
			</linearGradient>
			<line class="st37" x1="327" y1="-360.5" x2="477" y2="-360.5"/>
			<text transform="matrix(1 0 0 1 363.1143 -349.3)" class="st4 st5">#WriteBlock()</text>
			<text transform="matrix(1 0 0 1 339.885 -334.3)" class="st4 st5">ReadFilterFromDisk()</text>
			<text transform="matrix(1 0 0 1 348.6765 -319.3)" class="st4 st5">WriteFilterToDisk()</text>
			<text transform="matrix(1 0 0 1 396.5823 -304.3)" class="st4 st5">...</text>
		</g>
		<g id="edge7">
			<path class="st11" d="M396.5-486.7c1.2,32.7,3,79,4.2,110.9"/>
			<g class="st1">
				<path class="st11" d="M396.5-486.7c1.2,32.7,3,79,4.2,110.9"/>
			</g>
			<g class="st1">
				<polygon class="st2" points="393,-486.7 393.5,-487.2 396.1,-496.8 396.1,-496.8 397.3,-494 400,-486.9 400,-486.9 
					399.9,-486.8 				"/>
			</g>
			
				<linearGradient id="SVGID_31_" gradientUnits="userSpaceOnUse" x1="-606.6372" y1="164.7781" x2="-605.6372" y2="163.7781" gradientTransform="matrix(6.995 0 0 -10.1532 4635.4316 1177.636)">
				<stop  offset="0" style="stop-color:#FFFFFF"/>
				<stop  offset="1" style="stop-color:#FFFFFF"/>
			</linearGradient>
			<polygon class="st38" points="393,-486.7 394.3,-489.4 396.1,-496.8 396.1,-496.8 397.2,-494.3 400,-486.9 400,-486.9 
				398.7,-486.6 			"/>
		</g>
		<g id="node9">
			<g class="st1">
				<polygon class="st2" points="498,-193.5 401.2,-189.8 312,-193.5 312,-193.5 313,-171 312,-150.5 312,-150.5 396,-146.7 
					504,-150.5 504,-150.5 504.8,-152.5 504,-187.5 504,-187.5 502.6,-188.9 				"/>
			</g>
			
				<linearGradient id="SVGID_32_" gradientUnits="userSpaceOnUse" x1="-703.3466" y1="175.9585" x2="-702.3466" y2="174.9585" gradientTransform="matrix(193.0234 0 0 -46.84 136076.5312 8047.8594)">
				<stop  offset="0" style="stop-color:#FFFFFF"/>
				<stop  offset="1" style="stop-color:#F5DEB3"/>
			</linearGradient>
			<polygon class="st39" points="498,-193.5 373.5,-189.8 312,-193.5 312,-193.5 313.1,-164.5 312,-150.5 312,-150.5 411.7,-146.7 
				504,-150.5 504,-150.5 505,-173.4 504,-187.5 504,-187.5 499.4,-192.2 			"/>
			<g class="st1">
				<line class="st2" x1="498" y1="-193.5" x2="498" y2="-187.5"/>
			</g>
			
				<linearGradient id="SVGID_33_" gradientUnits="userSpaceOnUse" x1="-4.25" y1="154.9167" x2="-3.25" y2="153.9167" gradientTransform="matrix(1 0 0 -6 502 737.5)">
				<stop  offset="0" style="stop-color:#FFFFFF"/>
				<stop  offset="1" style="stop-color:#FFFFFF"/>
			</linearGradient>
			<line class="st40" x1="498" y1="-193.5" x2="498" y2="-187.5"/>
			<g class="st1">
				<line class="st2" x1="504" y1="-187.5" x2="498" y2="-187.5"/>
			</g>
			
				<linearGradient id="SVGID_34_" gradientUnits="userSpaceOnUse" x1="-589.5833" y1="36.25" x2="-588.5833" y2="35.25" gradientTransform="matrix(6 0 0 -1 4037 -151.5)">
				<stop  offset="0" style="stop-color:#FFFFFF"/>
				<stop  offset="1" style="stop-color:#FFFFFF"/>
			</linearGradient>
			<line class="st41" x1="504" y1="-187.5" x2="498" y2="-187.5"/>
			<text transform="matrix(1 0 0 1 325.6328 -168.3)" class="st4 st5">indexes/blockfilter (LevelDB)</text>
		</g>
		<g id="edge8">
			<path class="st18" d="M403.3-300.2c1.2,32.9,2.9,79.8,3.9,106.5"/>
			<g class="st1">
				<path class="st18" d="M403.3-300.2c1.2,32.9,2.9,79.8,3.9,106.5"/>
			</g>
			<text transform="matrix(1 0 0 1 380.8245 -208.506)" class="st4 st14">stores in</text>
		</g>
		<g id="node11">
			<g class="st1">
				<polygon class="st2" points="317.5,-43.5 285.5,-40.1 148.5,-43.5 148.5,-43.5 149.4,-40.7 148.5,-0.5 148.5,-0.5 164.7,3 
					323.5,-0.5 323.5,-0.5 324.4,-14.1 323.5,-37.5 323.5,-37.5 319.7,-41.3 				"/>
			</g>
			
				<linearGradient id="SVGID_35_" gradientUnits="userSpaceOnUse" x1="-702.9949" y1="175.9337" x2="-701.9949" y2="174.9337" gradientTransform="matrix(175.9231 0 0 -46.5 123823.1484 8137)">
				<stop  offset="0" style="stop-color:#FFFFFF"/>
				<stop  offset="1" style="stop-color:#F5DEB3"/>
			</linearGradient>
			<polygon class="st42" points="317.5,-43.5 310.3,-40.1 148.5,-43.5 148.5,-43.5 149.4,-38.5 148.5,-0.5 148.5,-0.5 215.7,3 
				323.5,-0.5 323.5,-0.5 324.4,-17.8 323.5,-37.5 323.5,-37.5 320.4,-40.7 			"/>
			<g class="st1">
				<line class="st2" x1="317.5" y1="-43.5" x2="317.5" y2="-37.5"/>
			</g>
			
				<linearGradient id="SVGID_36_" gradientUnits="userSpaceOnUse" x1="-4.25" y1="154.9167" x2="-3.25" y2="153.9167" gradientTransform="matrix(1 0 0 -6 321.5 887.5)">
				<stop  offset="0" style="stop-color:#FFFFFF"/>
				<stop  offset="1" style="stop-color:#FFFFFF"/>
			</linearGradient>
			<line class="st43" x1="317.5" y1="-43.5" x2="317.5" y2="-37.5"/>
			<g class="st1">
				<line class="st2" x1="323.5" y1="-37.5" x2="317.5" y2="-37.5"/>
			</g>
			
				<linearGradient id="SVGID_37_" gradientUnits="userSpaceOnUse" x1="-589.5833" y1="36.25" x2="-588.5833" y2="35.25" gradientTransform="matrix(6 0 0 -1 3856.5 -1.5)">
				<stop  offset="0" style="stop-color:#FFFFFF"/>
				<stop  offset="1" style="stop-color:#FFFFFF"/>
			</linearGradient>
			<line class="st44" x1="323.5" y1="-37.5" x2="317.5" y2="-37.5"/>
			<text transform="matrix(1 0 0 1 160.4915 -18.3)" class="st4 st5">indexes/txindex (LevelDB)</text>
		</g>
		<g id="edge10">
			<path class="st18" d="M236-134.4c0,28.6,0,67.3,0,90.7"/>
			<g class="st1">
				<path class="st18" d="M236-134.4c0,28.6,0,67.3,0,90.7"/>
			</g>
			<text transform="matrix(1 0 0 1 210.2635 -58.7627)" class="st4 st14">stores in</text>
		</g>
	</g>
</g>
</svg>
