<?xml version="1.0" encoding="utf-8"?>
<!-- Generator: Adobe Illustrator 25.2.3, SVG Export Plug-In . SVG Version: 6.00 Build 0)  -->
<svg version="1.1" xmlns="http://www.w3.org/2000/svg" xmlns:xlink="http://www.w3.org/1999/xlink" x="0px" y="0px"
	 viewBox="0 0 592 202" style="enable-background:new 0 0 592 202;" xml:space="preserve">
<style type="text/css">
	.st0{fill:#FFFFFF;}
	.st1{filter:url(#shadow);}
	.st2{opacity:0.2;}
	.st3{fill:url(#SVGID_1_);stroke:#000000;}
	.st4{font-family:'ArialMT';}
	.st5{font-size:13px;}
	.st6{fill:url(#SVGID_2_);stroke:#000000;}
	.st7{fill:url(#SVGID_3_);stroke:#000000;}
	.st8{fill:url(#SVGID_4_);stroke:#000000;}
	.st9{fill:url(#SVGID_5_);stroke:#000000;}
	.st10{fill:none;stroke:#000000;stroke-dasharray:5,2;}
	.st11{fill:url(#SVGID_6_);stroke:#000000;}
	.st12{fill:url(#SVGID_7_);stroke:#000000;}
	.st13{fill:url(#SVGID_8_);stroke:#000000;}
	.st14{fill:url(#SVGID_9_);stroke:#000000;}
	.st15{fill:url(#SVGID_10_);stroke:#000000;}
	.st16{fill:url(#SVGID_11_);stroke:#000000;}
	.st17{fill:url(#SVGID_12_);stroke:#000000;}
	.st18{fill:url(#SVGID_13_);stroke:#000000;}
	.st19{fill:url(#SVGID_14_);stroke:#000000;}
	.st20{fill:url(#SVGID_15_);stroke:#000000;}
</style>
<filter  filterRes="100" id="shadow" x="0" y="0">
	<feGaussianBlur  stdDeviation="2 2"></feGaussianBlur>
	<feOffset  dx="2" dy="2"></feOffset>
</filter>
<g id="Camada_2">
	<rect x="-6" y="-18" class="st0" width="613" height="230"/>
</g>
<g id="Camada_1" xmlns:svg="http://www.w3.org/2000/svg">
	<g id="graph0" transform="scale(1 1) rotate(0) translate(4 168)">
		<g id="node1">
			<g class="st1">
				<polygon class="st2" points="10.5,-3 11.4,-24.6 10.5,-39 10.5,-39 34.9,-36.9 117.5,-39 117.5,-39 118.5,-6.8 117.5,-3 
					117.5,-3 98.2,-0.9 				"/>
			</g>
			
				<linearGradient id="SVGID_1_" gradientUnits="userSpaceOnUse" x1="-660.839" y1="462.5281" x2="-659.839" y2="461.5281" gradientTransform="matrix(107.8245 0 0 -38.14 71266.4141 17601.3594)">
				<stop  offset="0" style="stop-color:#FFFFFF"/>
				<stop  offset="1" style="stop-color:#DCDCDC"/>
			</linearGradient>
			<polygon class="st3" points="10.5,-3 11.2,-4.5 10.5,-39 10.5,-39 38.2,-36.9 117.5,-39 117.5,-39 118.3,-30.5 117.5,-3 
				117.5,-3 84.2,-0.9 			"/>
			<text transform="matrix(1 0 0 1 37.6255 -26.3)" class="st4 st5">bitcoin-qt</text>
			<g class="st1">
				<line class="st2" x1="10.5" y1="-21" x2="117.5" y2="-21"/>
			</g>
			
				<linearGradient id="SVGID_2_" gradientUnits="userSpaceOnUse" x1="-660.5537" y1="36.25" x2="-659.5537" y2="35.25" gradientTransform="matrix(107 0 0 -1 70716.5 15)">
				<stop  offset="0" style="stop-color:#FFFFFF"/>
				<stop  offset="1" style="stop-color:#FFFFFF"/>
			</linearGradient>
			<line class="st6" x1="10.5" y1="-21" x2="117.5" y2="-21"/>
			<text transform="matrix(1 0 0 1 23.1782 -8.3)" class="st4 st5">sr/qt/main.cpp</text>
		</g>
		<g id="node2">
			<g class="st1">
				<polygon class="st2" points="458,-42.5 427.2,-40.1 338,-42.5 338,-42.5 338.9,-41.1 338,0.5 338,0.5 353.7,3 464,0.5 464,0.5 
					464.8,-9.1 464,-36.5 464,-36.5 462,-38.4 				"/>
			</g>
			
				<linearGradient id="SVGID_3_" gradientUnits="userSpaceOnUse" x1="-661.7709" y1="464.3783" x2="-660.7709" y2="463.3783" gradientTransform="matrix(126.801 0 0 -45.52 84251.2422 21095.9805)">
				<stop  offset="0" style="stop-color:#FFFFFF"/>
				<stop  offset="1" style="stop-color:#F5DEB3"/>
			</linearGradient>
			<polygon class="st7" points="458,-42.5 420,-40.1 338,-42.5 338,-42.5 339,-26.9 338,0.5 338,0.5 413.7,3 464,0.5 464,0.5 
				464.8,-4.3 464,-36.5 464,-36.5 463,-37.4 			"/>
			<g class="st1">
				<line class="st2" x1="458" y1="-42.5" x2="458" y2="-36.5"/>
			</g>
			
				<linearGradient id="SVGID_4_" gradientUnits="userSpaceOnUse" x1="-4.25" y1="400.75" x2="-3.25" y2="399.75" gradientTransform="matrix(1 0 0 -6 462 2363.5)">
				<stop  offset="0" style="stop-color:#FFFFFF"/>
				<stop  offset="1" style="stop-color:#FFFFFF"/>
			</linearGradient>
			<line class="st8" x1="458" y1="-42.5" x2="458" y2="-36.5"/>
			<g class="st1">
				<line class="st2" x1="464" y1="-36.5" x2="458" y2="-36.5"/>
			</g>
			
				<linearGradient id="SVGID_5_" gradientUnits="userSpaceOnUse" x1="-556.25" y1="36.25" x2="-555.25" y2="35.25" gradientTransform="matrix(6 0 0 -1 3797 -0.5)">
				<stop  offset="0" style="stop-color:#FFFFFF"/>
				<stop  offset="1" style="stop-color:#FFFFFF"/>
			</linearGradient>
			<line class="st9" x1="464" y1="-36.5" x2="458" y2="-36.5"/>
			<text transform="matrix(1 0 0 1 352.2341 -17.3)" class="st4 st5">Bitcoin Core GUI</text>
		</g>
		<g id="edge1">
			<path class="st10" d="M117.7-21c59.7,0,156.9,0,220.2,0"/>
			<g class="st1">
				<path class="st10" d="M117.7-21c59.7,0,156.9,0,220.2,0"/>
			</g>
		</g>
		<g id="node3">
			<g class="st1">
				<polygon class="st2" points="0.5,-64 1.6,-92.6 0.5,-100 0.5,-100 55.1,-97.5 127.5,-100 127.5,-100 128.4,-83.4 127.5,-64 
					127.5,-64 122,-61.5 				"/>
			</g>
			
				<linearGradient id="SVGID_6_" gradientUnits="userSpaceOnUse" x1="-661.8062" y1="462.6497" x2="-660.8062" y2="461.6497" gradientTransform="matrix(128.0105 0 0 -38.54 84720.5 17729.9609)">
				<stop  offset="0" style="stop-color:#FFFFFF"/>
				<stop  offset="1" style="stop-color:#DCDCDC"/>
			</linearGradient>
			<polygon class="st11" points="0.5,-64 1.2,-65.3 0.5,-100 0.5,-100 92.5,-97.5 127.5,-100 127.5,-100 128.5,-69.9 127.5,-64 
				127.5,-64 82.5,-61.5 			"/>
			<text transform="matrix(1 0 0 1 36.9082 -87.3)" class="st4 st5">bitcoin-cli</text>
			<g class="st1">
				<line class="st2" x1="0.5" y1="-82" x2="127.5" y2="-82"/>
			</g>
			
				<linearGradient id="SVGID_7_" gradientUnits="userSpaceOnUse" x1="-661.5295" y1="36.25" x2="-660.5295" y2="35.25" gradientTransform="matrix(127 0 0 -1 84046.5 -46)">
				<stop  offset="0" style="stop-color:#FFFFFF"/>
				<stop  offset="1" style="stop-color:#FFFFFF"/>
			</linearGradient>
			<line class="st12" x1="0.5" y1="-82" x2="127.5" y2="-82"/>
			<text transform="matrix(1 0 0 1 14.1519 -69.3)" class="st4 st5">src/bitcoin-cli.cpp</text>
		</g>
		<g id="node4">
			<g class="st1">
				<polygon class="st2" points="577.5,-103.5 575.3,-96.3 218.5,-103.5 218.5,-103.5 219.4,-98.5 218.5,-60.5 218.5,-60.5 
					337.8,-52.9 583.5,-60.5 583.5,-60.5 584.3,-70.9 583.5,-97.5 583.5,-97.5 583.3,-97.7 				"/>
			</g>
			
				<linearGradient id="SVGID_8_" gradientUnits="userSpaceOnUse" x1="-665.1537" y1="465.4222" x2="-664.1537" y2="464.4222" gradientTransform="matrix(365.8351 0 0 -50.8606 243567.5469 23566.4414)">
				<stop  offset="0" style="stop-color:#FFFFFF"/>
				<stop  offset="1" style="stop-color:#F5DEB3"/>
			</linearGradient>
			<polygon class="st13" points="577.5,-103.5 301.4,-95.5 218.5,-103.5 218.5,-103.5 219.5,-90.9 218.5,-60.5 218.5,-60.5 
				431,-52.6 583.5,-60.5 583.5,-60.5 584.3,-67 583.5,-97.5 583.5,-97.5 583.2,-97.8 			"/>
			<g class="st1">
				<line class="st2" x1="577.5" y1="-103.5" x2="577.5" y2="-97.5"/>
			</g>
			
				<linearGradient id="SVGID_9_" gradientUnits="userSpaceOnUse" x1="-4.25" y1="400.75" x2="-3.25" y2="399.75" gradientTransform="matrix(1 0 0 -6 581.5 2302.5)">
				<stop  offset="0" style="stop-color:#FFFFFF"/>
				<stop  offset="1" style="stop-color:#FFFFFF"/>
			</linearGradient>
			<line class="st14" x1="577.5" y1="-103.5" x2="577.5" y2="-97.5"/>
			<g class="st1">
				<line class="st2" x1="583.5" y1="-97.5" x2="577.5" y2="-97.5"/>
			</g>
			
				<linearGradient id="SVGID_10_" gradientUnits="userSpaceOnUse" x1="-556.25" y1="36.25" x2="-555.25" y2="35.25" gradientTransform="matrix(6 0 0 -1 3916.5 -61.5)">
				<stop  offset="0" style="stop-color:#FFFFFF"/>
				<stop  offset="1" style="stop-color:#FFFFFF"/>
			</linearGradient>
			<line class="st15" x1="583.5" y1="-97.5" x2="577.5" y2="-97.5"/>
			<text transform="matrix(1 0 0 1 227.2139 -78.3)" class="st4 st5">Bitcoin command line interface that interact with the daemon</text>
		</g>
		<g id="edge2">
			<path class="st10" d="M127.6-82c26.1,0,58,0,90.5,0"/>
			<g class="st1">
				<path class="st10" d="M127.6-82c26.1,0,58,0,90.5,0"/>
			</g>
		</g>
		<g id="node5">
			<g class="st1">
				<polygon class="st2" points="6,-125 6.8,-128.8 6,-161 6,-161 31.6,-158.7 122,-161 122,-161 122.9,-147.1 122,-125 122,-125 
					40.4,-122.7 				"/>
			</g>
			
				<linearGradient id="SVGID_11_" gradientUnits="userSpaceOnUse" x1="-661.31" y1="462.5834" x2="-660.31" y2="461.5834" gradientTransform="matrix(116.7958 0 0 -38.32 77245.8125 17564.6797)">
				<stop  offset="0" style="stop-color:#FFFFFF"/>
				<stop  offset="1" style="stop-color:#DCDCDC"/>
			</linearGradient>
			<polygon class="st16" points="6,-125 6.9,-136.8 6,-161 6,-161 49.7,-158.7 122,-161 122,-161 122.8,-153.9 122,-125 122,-125 
				49.1,-122.7 			"/>
			<text transform="matrix(1 0 0 1 41.5959 -148.3)" class="st4 st5">bitcoind</text>
			<g class="st1">
				<line class="st2" x1="6" y1="-143" x2="122" y2="-143"/>
			</g>
			
				<linearGradient id="SVGID_12_" gradientUnits="userSpaceOnUse" x1="-661.0345" y1="36.25" x2="-660.0345" y2="35.25" gradientTransform="matrix(116 0 0 -1 76715 -107)">
				<stop  offset="0" style="stop-color:#FFFFFF"/>
				<stop  offset="1" style="stop-color:#FFFFFF"/>
			</linearGradient>
			<line class="st17" x1="6" y1="-143" x2="122" y2="-143"/>
			<text transform="matrix(1 0 0 1 18.8396 -130.3)" class="st4 st5">src/bitcoind.cpp</text>
		</g>
		<g id="node6">
			<g class="st1">
				<polygon class="st2" points="516,-164.5 384.6,-159.2 280,-164.5 280,-164.5 281.1,-135.5 280,-121.5 280,-121.5 348.2,-116.7 
					522,-121.5 522,-121.5 522.8,-123.3 522,-158.5 522,-158.5 519.5,-160.9 				"/>
			</g>
			
				<linearGradient id="SVGID_13_" gradientUnits="userSpaceOnUse" x1="-664.2515" y1="464.8627" x2="-663.2515" y2="463.8627" gradientTransform="matrix(242.8391 0 0 -47.84 161590.6406 22073.6582)">
				<stop  offset="0" style="stop-color:#FFFFFF"/>
				<stop  offset="1" style="stop-color:#F5DEB3"/>
			</linearGradient>
			<polygon class="st18" points="516,-164.5 319,-159.8 280,-164.5 280,-164.5 280.9,-158.9 280,-121.5 280,-121.5 344.7,-116.7 
				522,-121.5 522,-121.5 522.8,-128.4 522,-158.5 522,-158.5 518.8,-161.7 			"/>
			<g class="st1">
				<line class="st2" x1="516" y1="-164.5" x2="516" y2="-158.5"/>
			</g>
			
				<linearGradient id="SVGID_14_" gradientUnits="userSpaceOnUse" x1="-4.25" y1="400.75" x2="-3.25" y2="399.75" gradientTransform="matrix(1 0 0 -6 520 2241.5)">
				<stop  offset="0" style="stop-color:#FFFFFF"/>
				<stop  offset="1" style="stop-color:#FFFFFF"/>
			</linearGradient>
			<line class="st19" x1="516" y1="-164.5" x2="516" y2="-158.5"/>
			<g class="st1">
				<line class="st2" x1="522" y1="-158.5" x2="516" y2="-158.5"/>
			</g>
			
				<linearGradient id="SVGID_15_" gradientUnits="userSpaceOnUse" x1="-556.25" y1="36.25" x2="-555.25" y2="35.25" gradientTransform="matrix(6 0 0 -1 3855 -122.5)">
				<stop  offset="0" style="stop-color:#FFFFFF"/>
				<stop  offset="1" style="stop-color:#FFFFFF"/>
			</linearGradient>
			<line class="st20" x1="522" y1="-158.5" x2="516" y2="-158.5"/>
			<text transform="matrix(1 0 0 1 288.2656 -139.3)" class="st4 st5">Bitcoin Core node that runs as daemon</text>
		</g>
		<g id="edge3">
			<path class="st10" d="M122.2-143c43.2,0,103.9,0,157.6,0"/>
			<g class="st1">
				<path class="st10" d="M122.2-143c43.2,0,103.9,0,157.6,0"/>
			</g>
		</g>
	</g>
</g>
</svg>
