<?xml version="1.0" encoding="utf-8"?>
<!-- Generator: Adobe Illustrator 25.2.3, SVG Export Plug-In . SVG Version: 6.00 Build 0)  -->
<svg version="1.1" xmlns="http://www.w3.org/2000/svg" xmlns:xlink="http://www.w3.org/1999/xlink" x="0px" y="0px"
	 viewBox="0 0 899 718" style="enable-background:new 0 0 899 718;" xml:space="preserve">
<style type="text/css">
	.st0{fill:#FFFFFF;}
	.st1{filter:url(#shadow);}
	.st2{opacity:0.2;}
	.st3{fill:url(#SVGID_1_);stroke:#000000;}
	.st4{font-family:'ArialMT';}
	.st5{font-size:13px;}
	.st6{fill:url(#SVGID_2_);stroke:#000000;}
	.st7{fill:url(#SVGID_3_);stroke:#000000;}
	.st8{fill:url(#SVGID_4_);stroke:#000000;}
	.st9{fill:url(#SVGID_5_);stroke:#000000;}
	.st10{fill:url(#SVGID_6_);stroke:#000000;}
	.st11{fill:none;stroke:#000000;}
	.st12{fill:url(#SVGID_7_);stroke:#000000;}
	.st13{fill:url(#SVGID_8_);stroke:#000000;}
	.st14{font-size:10px;}
	.st15{fill:url(#SVGID_9_);stroke:#000000;}
	.st16{fill:url(#SVGID_10_);stroke:#000000;}
	.st17{fill:url(#SVGID_11_);stroke:#000000;}
	.st18{fill:url(#SVGID_12_);stroke:#000000;}
	.st19{fill:url(#SVGID_13_);stroke:#000000;}
	.st20{fill:url(#SVGID_14_);stroke:#000000;}
	.st21{fill:url(#SVGID_15_);stroke:#000000;}
	.st22{fill:url(#SVGID_16_);stroke:#000000;}
	.st23{fill:url(#SVGID_17_);stroke:#000000;}
	.st24{fill:url(#SVGID_18_);stroke:#000000;}
	.st25{fill:url(#SVGID_19_);stroke:#000000;}
	.st26{fill:url(#SVGID_20_);stroke:#000000;}
	.st27{fill:url(#SVGID_21_);stroke:#000000;}
	.st28{fill:url(#SVGID_22_);stroke:#000000;}
	.st29{fill:url(#SVGID_23_);stroke:#000000;}
	.st30{fill:url(#SVGID_24_);stroke:#000000;}
	.st31{fill:url(#SVGID_25_);stroke:#000000;}
	.st32{fill:url(#SVGID_26_);stroke:#000000;}
	.st33{fill:url(#SVGID_27_);stroke:#000000;}
	.st34{fill:url(#SVGID_28_);stroke:#000000;}
	.st35{fill:url(#SVGID_29_);stroke:#000000;}
	.st36{fill:url(#SVGID_30_);stroke:#000000;}
	.st37{fill:url(#SVGID_31_);stroke:#000000;}
</style>
<filter  filterRes="100" id="shadow" x="0" y="0">
	<feGaussianBlur  stdDeviation="2 2"></feGaussianBlur>
	<feOffset  dx="2" dy="2"></feOffset>
</filter>
<g id="Camada_2">
	<rect x="-28.6" class="st0" width="939.6" height="730.2"/>
</g>
<g id="Camada_1" xmlns:svg="http://www.w3.org/2000/svg">
	<g id="graph0" transform="scale(1 1) rotate(0) translate(4 684)">
		<g id="node1">
			<g class="st1">
				<polygon class="st2" points="0,-189 1.8,-192.4 0,-279 0,-279 54.5,-274.9 206,-279 206,-279 207.8,-228.5 206,-189 206,-189 
					186.8,-184.9 				"/>
			</g>
			
				<linearGradient id="SVGID_1_" gradientUnits="userSpaceOnUse" x1="-511.5369" y1="214.0963" x2="-510.5369" y2="213.0963" gradientTransform="matrix(207.8 0 0 -94.12 106299.2031 19870.918)">
				<stop  offset="0" style="stop-color:#FFFFFF"/>
				<stop  offset="1" style="stop-color:#DCDCDC"/>
			</linearGradient>
			<polygon class="st3" points="0,-189 1.8,-195.3 0,-279 0,-279 38.6,-274.9 206,-279 206,-279 207.8,-229.7 206,-189 206,-189 
				172.8,-184.9 			"/>
			<text transform="matrix(1 0 0 1 11.2192 -267.8)" class="st4 st5">SingleThreadedSchedulerClient</text>
			<g class="st1">
				<line class="st2" x1="0" y1="-264" x2="206" y2="-264"/>
			</g>
			
				<linearGradient id="SVGID_2_" gradientUnits="userSpaceOnUse" x1="-511.2743" y1="36.25" x2="-510.2743" y2="35.25" gradientTransform="matrix(206 0 0 -1 105374 -228)">
				<stop  offset="0" style="stop-color:#FFFFFF"/>
				<stop  offset="1" style="stop-color:#FFFFFF"/>
			</linearGradient>
			<line class="st6" x1="0" y1="-264" x2="206" y2="-264"/>
			<text transform="matrix(1 0 0 1 60.0073 -252.8)" class="st4 st5">-m_pscheduler</text>
			<text transform="matrix(1 0 0 1 97.5823 -237.8)" class="st4 st5">...</text>
			<g class="st1">
				<line class="st2" x1="0" y1="-234" x2="206" y2="-234"/>
			</g>
			
				<linearGradient id="SVGID_3_" gradientUnits="userSpaceOnUse" x1="-511.2743" y1="36.25" x2="-510.2743" y2="35.25" gradientTransform="matrix(206 0 0 -1 105374 -198)">
				<stop  offset="0" style="stop-color:#FFFFFF"/>
				<stop  offset="1" style="stop-color:#FFFFFF"/>
			</linearGradient>
			<line class="st7" x1="0" y1="-234" x2="206" y2="-234"/>
			<text transform="matrix(1 0 0 1 35.0801 -222.8)" class="st4 st5">-AddToProcessQueue()</text>
			<text transform="matrix(1 0 0 1 6.8965 -207.8)" class="st4 st5">-MaybeScheduleProcessQueue()</text>
			<text transform="matrix(1 0 0 1 97.5823 -192.8)" class="st4 st5">...</text>
		</g>
		<g id="node2">
			<g class="st1">
				<polygon class="st2" points="34.5,-0.5 36,-25.7 34.5,-75.5 34.5,-75.5 52.1,-73.6 127.5,-75.5 127.5,-75.5 129,-35.6 
					127.5,-0.5 127.5,-0.5 121,1.4 				"/>
			</g>
			
				<linearGradient id="SVGID_4_" gradientUnits="userSpaceOnUse" x1="-508.6011" y1="213.6602" x2="-507.6011" y2="212.6602" gradientTransform="matrix(94.5 0 0 -76.86 48097.5 16346.2598)">
				<stop  offset="0" style="stop-color:#FFFFFF"/>
				<stop  offset="1" style="stop-color:#DCDCDC"/>
			</linearGradient>
			<polygon class="st8" points="34.5,-0.5 36,-13.2 34.5,-75.5 34.5,-75.5 53.6,-73.6 127.5,-75.5 127.5,-75.5 129,-69.4 
				127.5,-0.5 127.5,-0.5 59.1,1.4 			"/>
			<text transform="matrix(1 0 0 1 47.0369 -64.3)" class="st4 st5">CScheduler</text>
			<g class="st1">
				<line class="st2" x1="34.5" y1="-60.5" x2="127.5" y2="-60.5"/>
			</g>
			
				<linearGradient id="SVGID_5_" gradientUnits="userSpaceOnUse" x1="-508.2661" y1="36.25" x2="-507.2661" y2="35.25" gradientTransform="matrix(93 0 0 -1 47326.5 -24.5)">
				<stop  offset="0" style="stop-color:#FFFFFF"/>
				<stop  offset="1" style="stop-color:#FFFFFF"/>
			</linearGradient>
			<line class="st9" x1="34.5" y1="-60.5" x2="127.5" y2="-60.5"/>
			<text transform="matrix(1 0 0 1 47.3987 -49.3)" class="st4 st5">-taskQueue</text>
			<text transform="matrix(1 0 0 1 75.5823 -34.3)" class="st4 st5">...</text>
			<g class="st1">
				<line class="st2" x1="34.5" y1="-30.5" x2="127.5" y2="-30.5"/>
			</g>
			
				<linearGradient id="SVGID_6_" gradientUnits="userSpaceOnUse" x1="-508.2661" y1="36.25" x2="-507.2661" y2="35.25" gradientTransform="matrix(93 0 0 -1 47326.5 5.5)">
				<stop  offset="0" style="stop-color:#FFFFFF"/>
				<stop  offset="1" style="stop-color:#FFFFFF"/>
			</linearGradient>
			<line class="st10" x1="34.5" y1="-30.5" x2="127.5" y2="-30.5"/>
			<text transform="matrix(1 0 0 1 46.856 -19.3)" class="st4 st5">+schedule()</text>
			<text transform="matrix(1 0 0 1 75.5823 -4.3)" class="st4 st5">...</text>
		</g>
		<g id="edge1">
			<path class="st11" d="M96.6-176.9c-3.3,28.9-7.2,63.7-10.3,91.1"/>
			<g class="st1">
				<path class="st11" d="M96.6-176.9c-3.3,28.9-7.2,63.7-10.3,91.1"/>
			</g>
			<g class="st1">
				<polygon class="st2" points="96.7,-177.1 97.5,-177.6 101.3,-182.6 101.3,-182.6 100.9,-183.6 98,-189 98,-189 97.5,-188 
					93.4,-183.5 93.4,-183.5 95.7,-179.4 				"/>
			</g>
			
				<linearGradient id="SVGID_7_" gradientUnits="userSpaceOnUse" x1="-449.8394" y1="200.9031" x2="-448.8394" y2="199.9031" gradientTransform="matrix(7.9488 0 0 -11.923 3669.04 2206.3909)">
				<stop  offset="0" style="stop-color:#FFFFFF"/>
				<stop  offset="1" style="stop-color:#FFFFFF"/>
			</linearGradient>
			<polygon class="st12" points="96.7,-177.1 97.7,-177.8 101.3,-182.6 101.3,-182.6 99.8,-185.8 98,-189 98,-189 95.6,-185.3 
				93.4,-183.5 93.4,-183.5 94,-182.4 			"/>
			<g class="st1">
				<polygon class="st2" points="85.2,-75.7 86.7,-77.5 90.8,-85.1 90.8,-85.1 88.6,-82.6 85.7,-80.7 85.7,-80.7 86.1,-82 
					86.3,-85.6 86.3,-85.6 86.3,-85.6 86.3,-85.6 86.3,-85.6 86.5,-85.4 86.3,-85.6 86.3,-85.6 86.3,-83.9 85.7,-80.7 85.7,-80.7 
					85.5,-81 81.8,-86.1 81.8,-86.1 82.8,-83.6 85.2,-75.7 85.2,-75.7 85.2,-75.6 				"/>
			</g>
			
				<linearGradient id="SVGID_8_" gradientUnits="userSpaceOnUse" x1="-456.8997" y1="198.9195" x2="-455.8997" y2="197.9195" gradientTransform="matrix(8.9427 0 0 -10.495 4168.3613 2000.7897)">
				<stop  offset="0" style="stop-color:#969696"/>
				<stop  offset="1" style="stop-color:#000000"/>
			</linearGradient>
			<polygon class="st13" points="85.2,-75.7 86.1,-76.6 90.8,-85.1 90.8,-85.1 86.8,-80.9 85.7,-80.7 85.7,-80.7 85.9,-81.1 
				86.3,-85.6 86.3,-85.6 86.3,-85.6 86.3,-85.6 86.3,-85.6 86.4,-85.5 86.3,-85.6 86.3,-85.6 86.3,-84.2 85.7,-80.7 85.7,-80.7 
				84.9,-81.9 81.8,-86.1 81.8,-86.1 83.3,-82.3 85.2,-75.7 85.2,-75.7 85.2,-75.6 			"/>
			<text transform="matrix(1 0 0 1 77.7003 -91.4308)" class="st4 st14">1</text>
		</g>
		<g id="node3">
			<g class="st1">
				<polygon class="st2" points="163.5,-392.5 164.5,-402.8 163.5,-437.5 163.5,-437.5 246.9,-434.6 306.5,-437.5 306.5,-437.5 
					307.5,-418.3 306.5,-392.5 306.5,-392.5 253.3,-389.6 				"/>
			</g>
			
				<linearGradient id="SVGID_9_" gradientUnits="userSpaceOnUse" x1="-510.443" y1="212.2524" x2="-509.443" y2="211.2524" gradientTransform="matrix(143.9188 0 0 -47.86 73627.7578 9720.2568)">
				<stop  offset="0" style="stop-color:#FFFFFF"/>
				<stop  offset="1" style="stop-color:#DCDCDC"/>
			</linearGradient>
			<polygon class="st15" points="163.5,-392.5 164.6,-414.1 163.5,-437.5 163.5,-437.5 185.4,-434.6 306.5,-437.5 306.5,-437.5 
				307.4,-434.7 306.5,-392.5 306.5,-392.5 296.3,-389.6 			"/>
			<text transform="matrix(1 0 0 1 175.021 -426.3)" class="st4 st5">MainSignalsInstance</text>
			<g class="st1">
				<line class="st2" x1="163.5" y1="-422.5" x2="306.5" y2="-422.5"/>
			</g>
			
				<linearGradient id="SVGID_10_" gradientUnits="userSpaceOnUse" x1="-510.1836" y1="36.25" x2="-509.1836" y2="35.25" gradientTransform="matrix(143 0 0 -1 73155.5 -386.5)">
				<stop  offset="0" style="stop-color:#FFFFFF"/>
				<stop  offset="1" style="stop-color:#FFFFFF"/>
			</linearGradient>
			<line class="st16" x1="163.5" y1="-422.5" x2="306.5" y2="-422.5"/>
			<text transform="matrix(1 0 0 1 177.3728 -411.3)" class="st4 st5">+m_schedulerClient</text>
			<text transform="matrix(1 0 0 1 210.4441 -396.3)" class="st4 st5">-m_list...</text>
		</g>
		<g id="edge2">
			<path class="st11" d="M211.8-382.5c-19.4,26.3-47.4,64.3-70.2,95.2"/>
			<g class="st1">
				<path class="st11" d="M211.8-382.5c-19.4,26.3-47.4,64.3-70.2,95.2"/>
			</g>
			<g class="st1">
				<polygon class="st2" points="212,-382.8 213.6,-383 218.7,-385.2 218.7,-385.2 219.5,-389.9 219.1,-392.4 219.1,-392.4 
					214.9,-390.3 212.3,-390 212.3,-390 212.5,-383.3 				"/>
			</g>
			
				<linearGradient id="SVGID_11_" gradientUnits="userSpaceOnUse" x1="-443.7723" y1="197.3578" x2="-442.7723" y2="196.3578" gradientTransform="matrix(7.2616 0 0 -9.658 3434.4167 1513.7178)">
				<stop  offset="0" style="stop-color:#FFFFFF"/>
				<stop  offset="1" style="stop-color:#FFFFFF"/>
			</linearGradient>
			<polygon class="st17" points="212,-382.8 216.5,-383.9 218.7,-385.2 218.7,-385.2 219.2,-387.8 219.1,-392.4 219.1,-392.4 
				219,-392.2 212.3,-390 212.3,-390 212.5,-387.3 			"/>
			<g class="st1">
				<polygon class="st2" points="135.6,-279.3 136.9,-279.6 145.2,-284.6 145.2,-284.6 142.3,-283.7 138.6,-283.3 138.6,-283.3 
					138.8,-283.3 141.6,-287.3 141.6,-287.3 141.6,-287.3 141.6,-287.3 141.6,-287.3 141.7,-287.2 141.6,-287.3 141.6,-287.3 
					141.3,-286.6 138.6,-283.3 138.6,-283.3 138.6,-286.1 138,-290 138,-290 137.5,-286 135.6,-279.3 135.6,-279.3 135.8,-279.2 
									"/>
			</g>
			
				<linearGradient id="SVGID_12_" gradientUnits="userSpaceOnUse" x1="-460.7569" y1="199.2524" x2="-459.7569" y2="198.2524" gradientTransform="matrix(9.557 0 0 -10.8259 4537.9434 1868.4164)">
				<stop  offset="0" style="stop-color:#969696"/>
				<stop  offset="1" style="stop-color:#000000"/>
			</linearGradient>
			<polygon class="st18" points="135.6,-279.3 140.2,-281.2 145.2,-284.6 145.2,-284.6 143,-283.9 138.6,-283.3 138.6,-283.3 
				139.1,-283.6 141.6,-287.3 141.6,-287.3 141.8,-287.2 141.6,-287.3 141.6,-287.3 141.6,-287.2 141.6,-287.3 141.6,-287.3 
				141.5,-286.9 138.6,-283.3 138.6,-283.3 138.7,-284.1 138,-290 138,-290 136.7,-280.8 135.6,-279.3 135.6,-279.3 135.8,-279.2 
							"/>
			<text transform="matrix(1 0 0 1 138.5103 -294.751)" class="st4 st14">1</text>
		</g>
		<g id="node4">
			<g class="st1">
				<polygon class="st2" points="268.5,-166.5 271.2,-177.1 268.5,-301.5 268.5,-301.5 309.3,-295.6 555.5,-301.5 555.5,-301.5 
					558.2,-252.3 555.5,-166.5 555.5,-166.5 367.3,-160.8 				"/>
			</g>
			
				<linearGradient id="SVGID_13_" gradientUnits="userSpaceOnUse" x1="-512.2317" y1="214.7289" x2="-511.2317" y2="213.7289" gradientTransform="matrix(289.7 0 0 -140.74 148664.3125 29918.3418)">
				<stop  offset="0" style="stop-color:#FFFFFF"/>
				<stop  offset="1" style="stop-color:#DCDCDC"/>
			</linearGradient>
			<polygon class="st19" points="268.5,-166.5 271.2,-214.7 268.5,-301.5 268.5,-301.5 313.6,-295.8 555.5,-301.5 555.5,-301.5 
				558.2,-281.4 555.5,-166.5 555.5,-166.5 541.1,-160.8 			"/>
			<text transform="matrix(1 0 0 1 353.9475 -290.3)" class="st4 st5">CValidationInterface</text>
			<g class="st1">
				<line class="st2" x1="268.5" y1="-286.5" x2="555.5" y2="-286.5"/>
			</g>
			
				<linearGradient id="SVGID_14_" gradientUnits="userSpaceOnUse" x1="-511.973" y1="36.25" x2="-510.973" y2="35.25" gradientTransform="matrix(287 0 0 -1 147276.5 -250.5)">
				<stop  offset="0" style="stop-color:#FFFFFF"/>
				<stop  offset="1" style="stop-color:#FFFFFF"/>
			</linearGradient>
			<line class="st20" x1="268.5" y1="-286.5" x2="555.5" y2="-286.5"/>
			<text transform="matrix(1 0 0 1 335.6536 -275.3)" class="st4 st5">virtual #UpdatedBlockTip()</text>
			<text transform="matrix(1 0 0 1 298.7991 -260.3)" class="st4 st5">virtual #TransactionAddedToMempool()</text>
			<text transform="matrix(1 0 0 1 281.4763 -245.3)" class="st4 st5">virtual #TransactionRemovedFromMempool()</text>
			<text transform="matrix(1 0 0 1 337.5769 -230.3)" class="st4 st5">virtual #BlockConnected()</text>
			<text transform="matrix(1 0 0 1 329.6328 -215.3)" class="st4 st5">virtual #BlockDisconnected()</text>
			<text transform="matrix(1 0 0 1 329.6265 -200.3)" class="st4 st5">virtual #ChainStateFlushed()</text>
			<text transform="matrix(1 0 0 1 343.3628 -185.3)" class="st4 st5">virtual #BlockChecked()</text>
			<text transform="matrix(1 0 0 1 327.957 -170.3)" class="st4 st5">virtual #NewPoWValidBlock()</text>
		</g>
		<g id="edge3">
			<path class="st11" d="M265-383.7c20.2,20.5,47.9,48.4,73.8,74.6"/>
			<g class="st1">
				<path class="st11" d="M265-383.7c20.2,20.5,47.9,48.4,73.8,74.6"/>
			</g>
			<g class="st1">
				<polygon class="st2" points="264.8,-383.9 264.5,-386.3 263.4,-391 263.4,-391 261.2,-391.2 256.4,-392.4 256.4,-392.4 
					257.6,-387.3 257.7,-385.3 257.7,-385.3 260.4,-384.5 				"/>
			</g>
			
				<linearGradient id="SVGID_15_" gradientUnits="userSpaceOnUse" x1="-453.5591" y1="194.9029" x2="-452.5591" y2="193.9029" gradientTransform="matrix(8.438 0 0 -8.532 4083.4761 1270.5002)">
				<stop  offset="0" style="stop-color:#FFFFFF"/>
				<stop  offset="1" style="stop-color:#FFFFFF"/>
			</linearGradient>
			<polygon class="st21" points="264.8,-383.9 264.6,-386.6 263.4,-391 263.4,-391 262.4,-391 256.4,-392.4 256.4,-392.4 
				257.5,-388.1 257.7,-385.3 257.7,-385.3 259.8,-384.7 			"/>
			<g class="st1">
				<polygon class="st2" points="346,-301.8 344.4,-306.9 342.1,-312.1 342.1,-312.1 342.4,-311 342.5,-305.3 342.5,-305.3 
					342.3,-305.5 338.9,-308.9 338.9,-308.9 339,-308.9 338.9,-308.9 338.9,-308.9 339.1,-308.6 338.9,-308.9 338.9,-308.9 
					341.1,-306.8 342.5,-305.3 342.5,-305.3 341.4,-305.2 335.7,-305.7 335.7,-305.7 339.8,-303.9 346,-301.8 346,-301.8 
					346,-301.7 				"/>
			</g>
			
				<linearGradient id="SVGID_16_" gradientUnits="userSpaceOnUse" x1="-464.6889" y1="198.6879" x2="-463.6889" y2="197.6879" gradientTransform="matrix(10.343 0 0 -10.3958 5142.0469 1753.4482)">
				<stop  offset="0" style="stop-color:#969696"/>
				<stop  offset="1" style="stop-color:#000000"/>
			</linearGradient>
			<polygon class="st22" points="346,-301.8 345.8,-302.8 342.1,-312.1 342.1,-312.1 342.8,-307.4 342.5,-305.3 342.5,-305.3 
				341.2,-306.7 338.9,-308.9 338.9,-308.9 339,-308.9 338.9,-308.9 338.9,-308.9 338.9,-308.9 338.9,-308.9 338.9,-308.9 
				341.4,-306.4 342.5,-305.3 342.5,-305.3 340,-305.2 335.7,-305.7 335.7,-305.7 341.7,-303.2 346,-301.8 346,-301.8 346.1,-301.7 
							"/>
			<text transform="matrix(1 0 0 1 320.3842 -306.633)" class="st4 st14">0..*</text>
		</g>
		<g id="node6">
			<g class="st1">
				<polygon class="st2" points="145.5,-20 146.2,-20.7 145.5,-56 145.5,-56 224.6,-54 246.5,-56 246.5,-56 247.4,-36.9 246.5,-20 
					246.5,-20 230.3,-18 				"/>
			</g>
			
				<linearGradient id="SVGID_17_" gradientUnits="userSpaceOnUse" x1="-508.9766" y1="211.2771" x2="-507.9766" y2="210.2771" gradientTransform="matrix(101.756 0 0 -38.02 51938.082 7976.3203)">
				<stop  offset="0" style="stop-color:#FFFFFF"/>
				<stop  offset="1" style="stop-color:#DCDCDC"/>
			</linearGradient>
			<polygon class="st23" points="145.5,-20 146.4,-41.1 145.5,-56 145.5,-56 207.3,-54 246.5,-56 246.5,-56 247.3,-52.5 246.5,-20 
				246.5,-20 204,-18 			"/>
			<text transform="matrix(1 0 0 1 156.616 -34.3)" class="st4 st5">PeerManager</text>
		</g>
		<g id="edge5">
			<path class="st11" d="M330.2-159.5c-41.7,37.5-89.1,80-114.9,103.2"/>
			<g class="st1">
				<path class="st11" d="M330.2-159.5c-41.7,37.5-89.1,80-114.9,103.2"/>
			</g>
			<g class="st1">
				<polygon class="st2" points="327.9,-162.2 331.3,-163.1 337.7,-166.2 337.7,-166.2 335.5,-161.2 332.6,-156.9 332.6,-156.9 
					330.4,-159.5 				"/>
			</g>
			
				<linearGradient id="SVGID_18_" gradientUnits="userSpaceOnUse" x1="-461.7225" y1="196.7415" x2="-460.7225" y2="195.7415" gradientTransform="matrix(9.778 0 0 -9.2888 4843.7866 1660.1521)">
				<stop  offset="0" style="stop-color:#FFFFFF"/>
				<stop  offset="1" style="stop-color:#FFFFFF"/>
			</linearGradient>
			<polygon class="st24" points="327.9,-162.2 328.3,-162 337.7,-166.2 337.7,-166.2 333.4,-156.9 332.6,-156.9 332.6,-156.9 
				330.7,-159 			"/>
		</g>
		<g id="node7">
			<g class="st1">
				<polygon class="st2" points="265,-20 266,-42.9 265,-56 265,-56 309,-54.3 351,-56 351,-56 351.9,-38.6 351,-20 351,-20 
					352.4,-18.3 				"/>
			</g>
			
				<linearGradient id="SVGID_19_" gradientUnits="userSpaceOnUse" x1="-508.1284" y1="211.2366" x2="-507.1284" y2="210.2366" gradientTransform="matrix(86.9854 0 0 -37.72 44465.4688 7911.5205)">
				<stop  offset="0" style="stop-color:#FFFFFF"/>
				<stop  offset="1" style="stop-color:#DCDCDC"/>
			</linearGradient>
			<polygon class="st25" points="265,-20 265.7,-20.7 265,-56 265,-56 274.9,-54.3 351,-56 351,-56 352,-31.2 351,-20 351,-20 
				348.6,-18.3 			"/>
			<text transform="matrix(1 0 0 1 277.2837 -34.3)" class="st4 st5">BaseIndex</text>
		</g>
		<g id="edge6">
			<path class="st11" d="M371.2-157c-19.8,36.9-41.8,77.9-53.9,100.6"/>
			<g class="st1">
				<path class="st11" d="M371.2-157c-19.8,36.9-41.8,77.9-53.9,100.6"/>
			</g>
			<g class="st1">
				<polygon class="st2" points="368.4,-159.1 369.6,-159.7 376.2,-166.2 376.2,-166.2 376.1,-162.8 374.6,-155.8 374.6,-155.8 
					372.6,-156.7 				"/>
			</g>
			
				<linearGradient id="SVGID_20_" gradientUnits="userSpaceOnUse" x1="-448.6119" y1="198.8821" x2="-447.6119" y2="197.8821" gradientTransform="matrix(7.809 0 0 -10.467 3872.2368 1914.635)">
				<stop  offset="0" style="stop-color:#FFFFFF"/>
				<stop  offset="1" style="stop-color:#FFFFFF"/>
			</linearGradient>
			<polygon class="st26" points="368.4,-159.1 370.7,-160.6 376.2,-166.2 376.2,-166.2 376.2,-163.9 374.6,-155.8 374.6,-155.8 
				373.5,-156.3 			"/>
		</g>
		<g id="node8">
			<g class="st1">
				<polygon class="st2" points="369.5,-20 370.4,-32.5 369.5,-56 369.5,-56 406.7,-53.4 500.5,-56 500.5,-56 501.4,-35.3 
					500.5,-20 500.5,-20 497,-17.4 				"/>
			</g>
			
				<linearGradient id="SVGID_21_" gradientUnits="userSpaceOnUse" x1="-510.1153" y1="211.3546" x2="-509.1153" y2="210.3546" gradientTransform="matrix(131.8085 0 0 -38.62 67609.0547 8105.9204)">
				<stop  offset="0" style="stop-color:#FFFFFF"/>
				<stop  offset="1" style="stop-color:#DCDCDC"/>
			</linearGradient>
			<polygon class="st27" points="369.5,-20 370.3,-22.5 369.5,-56 369.5,-56 454.6,-53.4 500.5,-56 500.5,-56 501.3,-48.7 
				500.5,-20 500.5,-20 484.9,-17.4 			"/>
			<text transform="matrix(1 0 0 1 382.981 -34.3)" class="st4 st5">NotificationsProxy</text>
		</g>
		<g id="edge7">
			<path class="st11" d="M421.1-156c4.3,36.6,9.2,77.2,11.8,99.7"/>
			<g class="st1">
				<path class="st11" d="M421.1-156c4.3,36.6,9.2,77.2,11.8,99.7"/>
			</g>
			<g class="st1">
				<polygon class="st2" points="417.6,-155.9 419.1,-160.4 419.9,-166.2 419.9,-166.2 421.3,-163.8 424.6,-156.7 424.6,-156.7 
					423,-156.3 				"/>
			</g>
			
				<linearGradient id="SVGID_22_" gradientUnits="userSpaceOnUse" x1="-440.7965" y1="198.4279" x2="-439.7965" y2="197.4279" gradientTransform="matrix(6.951 0 0 -10.342 3480.4253 1887.635)">
				<stop  offset="0" style="stop-color:#FFFFFF"/>
				<stop  offset="1" style="stop-color:#FFFFFF"/>
			</linearGradient>
			<polygon class="st28" points="417.6,-155.9 418,-156.4 419.9,-166.2 419.9,-166.2 421.6,-163.1 424.6,-156.7 424.6,-156.7 
				423.6,-156.4 			"/>
		</g>
		<g id="node9">
			<g class="st1">
				<polygon class="st2" points="519,-20 519.7,-22.4 519,-56 519,-56 546.9,-52.6 691,-56 691,-56 691.9,-40.9 691,-20 691,-20 
					636.2,-16.6 				"/>
			</g>
			
				<linearGradient id="SVGID_23_" gradientUnits="userSpaceOnUse" x1="-511.0268" y1="211.4568" x2="-510.0268" y2="210.4568" gradientTransform="matrix(172.7357 0 0 -39.44 88795.125 8283.041)">
				<stop  offset="0" style="stop-color:#FFFFFF"/>
				<stop  offset="1" style="stop-color:#DCDCDC"/>
			</linearGradient>
			<polygon class="st29" points="519,-20 519.9,-34.7 519,-56 519,-56 651.2,-52.6 691,-56 691,-56 691.7,-53 691,-20 691,-20 
				673.8,-16.6 			"/>
			<text transform="matrix(1 0 0 1 529.1296 -34.3)" class="st4 st5">submitblock_StateCatcher</text>
		</g>
		<g id="edge8">
			<path class="st11" d="M485.8-158.8c37.1,37.3,79,79.4,101.9,102.5"/>
			<g class="st1">
				<path class="st11" d="M485.8-158.8c37.1,37.3,79,79.4,101.9,102.5"/>
			</g>
			<g class="st1">
				<polygon class="st2" points="483,-156.7 480.9,-161.5 478.4,-166.2 478.4,-166.2 483.2,-163.7 488,-161.6 488,-161.6 
					486.8,-160 				"/>
			</g>
			
				<linearGradient id="SVGID_24_" gradientUnits="userSpaceOnUse" x1="-460.5082" y1="197.1666" x2="-459.5082" y2="196.1666" gradientTransform="matrix(9.534 0 0 -9.558 4868.894 1718.2917)">
				<stop  offset="0" style="stop-color:#FFFFFF"/>
				<stop  offset="1" style="stop-color:#FFFFFF"/>
			</linearGradient>
			<polygon class="st30" points="483,-156.7 482.9,-157.1 478.4,-166.2 478.4,-166.2 484.3,-163.1 488,-161.6 488,-161.6 
				487.9,-161.3 			"/>
		</g>
		<g id="node10">
			<g class="st1">
				<polygon class="st2" points="709,-20 709.8,-25.2 709,-56 709,-56 735,-52.4 891,-56 891,-56 891.9,-43.5 891,-20 891,-20 
					717.4,-16.4 				"/>
			</g>
			
				<linearGradient id="SVGID_25_" gradientUnits="userSpaceOnUse" x1="-511.1882" y1="211.481" x2="-510.1882" y2="210.481" gradientTransform="matrix(182.7979 0 0 -39.64 94157.125 8326.2402)">
				<stop  offset="0" style="stop-color:#FFFFFF"/>
				<stop  offset="1" style="stop-color:#DCDCDC"/>
			</linearGradient>
			<polygon class="st31" points="709,-20 709.8,-24.1 709,-56 709,-56 720.5,-52.4 891,-56 891,-56 891.8,-47.7 891,-20 891,-20 
				767.5,-16.4 			"/>
			<text transform="matrix(1 0 0 1 723.4187 -34.3)" class="st4 st5">CZMQNotificationInterface</text>
		</g>
		<g id="edge9">
			<path class="st11" d="M554.5-161.8c76.2,38.1,163.9,82,211.1,105.6"/>
			<g class="st1">
				<path class="st11" d="M554.5-161.8c76.2,38.1,163.9,82,211.1,105.6"/>
			</g>
			<g class="st1">
				<polygon class="st2" points="552.6,-158.8 551.2,-160.2 545.3,-166.4 545.3,-166.4 548.2,-165.7 555.8,-165 555.8,-165 
					555.7,-164.4 				"/>
			</g>
			
				<linearGradient id="SVGID_26_" gradientUnits="userSpaceOnUse" x1="-465.7569" y1="192.4529" x2="-464.7569" y2="191.4529" gradientTransform="matrix(10.5995 0 0 -7.603 5483.4238 1295.8754)">
				<stop  offset="0" style="stop-color:#FFFFFF"/>
				<stop  offset="1" style="stop-color:#FFFFFF"/>
			</linearGradient>
			<polygon class="st32" points="552.6,-158.8 551.8,-159.6 545.3,-166.4 545.3,-166.4 552.1,-165.1 555.8,-165 555.8,-165 
				555.9,-164.8 			"/>
		</g>
		<g id="node5">
			<g class="st1">
				<polygon class="st2" points="111,-529 114,-529.6 111,-679 111,-679 203.4,-674 359,-679 359,-679 362,-654.4 359,-529 
					359,-529 257.7,-524 				"/>
			</g>
			
				<linearGradient id="SVGID_27_" gradientUnits="userSpaceOnUse" x1="-511.9631" y1="214.8434" x2="-510.9631" y2="213.8434" gradientTransform="matrix(251 0 0 -154.96 128615 32612.3652)">
				<stop  offset="0" style="stop-color:#FFFFFF"/>
				<stop  offset="1" style="stop-color:#DCDCDC"/>
			</linearGradient>
			<polygon class="st33" points="111,-529 114,-649.5 111,-679 111,-679 197.5,-673.7 359,-679 359,-679 362,-631.1 359,-529 
				359,-529 345.2,-524 			"/>
			<text transform="matrix(1 0 0 1 194.8987 -667.8)" class="st4 st5">CMainSignals</text>
			<g class="st1">
				<line class="st2" x1="111" y1="-664" x2="359" y2="-664"/>
			</g>
			
				<linearGradient id="SVGID_28_" gradientUnits="userSpaceOnUse" x1="-511.6935" y1="36.25" x2="-510.6935" y2="35.25" gradientTransform="matrix(248 0 0 -1 127073 -628)">
				<stop  offset="0" style="stop-color:#FFFFFF"/>
				<stop  offset="1" style="stop-color:#FFFFFF"/>
			</linearGradient>
			<line class="st34" x1="111" y1="-664" x2="359" y2="-664"/>
			<text transform="matrix(1 0 0 1 201.4019 -652.8)" class="st4 st5">m_internals</text>
			<g class="st1">
				<line class="st2" x1="111" y1="-649" x2="359" y2="-649"/>
			</g>
			
				<linearGradient id="SVGID_29_" gradientUnits="userSpaceOnUse" x1="-511.6935" y1="36.25" x2="-510.6935" y2="35.25" gradientTransform="matrix(248 0 0 -1 127073 -613)">
				<stop  offset="0" style="stop-color:#FFFFFF"/>
				<stop  offset="1" style="stop-color:#FFFFFF"/>
			</linearGradient>
			<line class="st35" x1="111" y1="-649" x2="359" y2="-649"/>
			<text transform="matrix(1 0 0 1 177.7981 -637.8)" class="st4 st5">#UpdatedBlockTip()</text>
			<text transform="matrix(1 0 0 1 140.9436 -622.8)" class="st4 st5">#TransactionAddedToMempool()</text>
			<text transform="matrix(1 0 0 1 123.6208 -607.8)" class="st4 st5">#TransactionRemovedFromMempool()</text>
			<text transform="matrix(1 0 0 1 179.7214 -592.8)" class="st4 st5">#BlockConnected()</text>
			<text transform="matrix(1 0 0 1 171.7773 -577.8)" class="st4 st5">#BlockDisconnected()</text>
			<text transform="matrix(1 0 0 1 171.771 -562.8)" class="st4 st5">#ChainStateFlushed()</text>
			<text transform="matrix(1 0 0 1 185.5073 -547.8)" class="st4 st5">#BlockChecked()</text>
			<text transform="matrix(1 0 0 1 170.1016 -532.8)" class="st4 st5">#NewPoWValidBlock()</text>
		</g>
		<g id="edge4">
			<path class="st11" d="M235-516.8c0,24.6,0,50,0,69.1"/>
			<g class="st1">
				<path class="st11" d="M235-516.8c0,24.6,0,50,0,69.1"/>
			</g>
			<g class="st1">
				<polygon class="st2" points="235,-516.8 236.8,-518.7 239,-522.8 239,-522.8 237.5,-525.2 235,-528.8 235,-528.8 234.1,-526.8 
					231,-522.8 231,-522.8 232.3,-521 				"/>
			</g>
			
				<linearGradient id="SVGID_30_" gradientUnits="userSpaceOnUse" x1="-450.2476" y1="201.0024" x2="-449.2476" y2="200.0024" gradientTransform="matrix(8 0 0 -12 3833 1883.176)">
				<stop  offset="0" style="stop-color:#FFFFFF"/>
				<stop  offset="1" style="stop-color:#FFFFFF"/>
			</linearGradient>
			<polygon class="st36" points="235,-516.8 236.8,-518.9 239,-522.8 239,-522.8 238.6,-523.5 235,-528.8 235,-528.8 234.8,-528 
				231,-522.8 231,-522.8 232.3,-521 			"/>
			<g class="st1">
				<polygon class="st2" points="235,-437.5 237.8,-442.4 239.5,-447.5 239.5,-447.5 237.9,-445.2 235,-442.5 235,-442.5 
					235.2,-443.2 235,-447.5 235,-447.5 235,-447.5 235,-447.5 235,-447.5 235.1,-447.4 235,-447.5 235,-447.5 235.4,-443.5 
					235,-442.5 235,-442.5 233.8,-443.8 230.5,-447.5 230.5,-447.5 235,-438.2 235,-437.5 235,-437.5 235,-437.5 				"/>
			</g>
			
				<linearGradient id="SVGID_31_" gradientUnits="userSpaceOnUse" x1="-457.2076" y1="198.1759" x2="-456.2076" y2="197.1759" gradientTransform="matrix(9 0 0 -10.028 4346.5 1538.5231)">
				<stop  offset="0" style="stop-color:#969696"/>
				<stop  offset="1" style="stop-color:#000000"/>
			</linearGradient>
			<polygon class="st37" points="235,-437.5 238.1,-443.1 239.5,-447.5 239.5,-447.5 239.5,-447.2 235,-442.5 235,-442.5 
				235.2,-443 235,-447.5 235,-447.5 235.1,-447.5 235,-447.5 235,-447.5 235,-447.5 235,-447.5 235,-447.5 235.2,-446.5 
				235,-442.5 235,-442.5 235,-442.5 230.5,-447.5 230.5,-447.5 233.6,-441.3 235,-437.5 235,-437.5 235,-437.5 			"/>
			<text transform="matrix(1 0 0 1 225.3793 -452.609)" class="st4 st14">1</text>
		</g>
	</g>
</g>
</svg>
