<?xml version="1.0" encoding="utf-8"?>
<!-- Generator: Adobe Illustrator 25.2.3, SVG Export Plug-In . SVG Version: 6.00 Build 0)  -->
<svg version="1.1" xmlns="http://www.w3.org/2000/svg" xmlns:xlink="http://www.w3.org/1999/xlink" x="0px" y="0px"
	 viewBox="0 0 495 528" style="enable-background:new 0 0 495 528;" xml:space="preserve">
<style type="text/css">
	.st0{fill:#FFFFFF;}
	.st1{filter:url(#shadow);}
	.st2{opacity:0.2;}
	.st3{fill:url(#SVGID_1_);stroke:#000000;}
	.st4{font-family:'ArialMT';}
	.st5{font-size:13px;}
	.st6{fill:url(#SVGID_2_);stroke:#000000;}
	.st7{fill:url(#SVGID_3_);stroke:#000000;}
	.st8{fill:url(#SVGID_4_);stroke:#000000;}
	.st9{fill:none;stroke:#000000;}
	.st10{fill:url(#SVGID_5_);stroke:#000000;}
	.st11{fill:url(#SVGID_6_);stroke:#000000;}
	.st12{fill:url(#SVGID_7_);stroke:#000000;}
	.st13{fill:url(#SVGID_8_);stroke:#000000;}
	.st14{fill:url(#SVGID_9_);stroke:#000000;}
	.st15{fill:url(#SVGID_10_);stroke:#000000;}
	.st16{fill:url(#SVGID_11_);stroke:#000000;}
</style>
<filter  filterRes="100" id="shadow" x="0" y="0">
	<feGaussianBlur  stdDeviation="2 2"></feGaussianBlur>
	<feOffset  dx="2" dy="2"></feOffset>
</filter>
<g id="Camada_2">
	<rect x="-10" y="-7" class="st0" width="514" height="550"/>
</g>
<g id="Camada_1" xmlns:svg="http://www.w3.org/2000/svg">
	<g id="graph0" transform="scale(1 1) rotate(0) translate(4 494)">
		<g id="node1">
			<g class="st1">
				<polygon class="st2" points="-0.5,-354.5 2.2,-383.2 -0.5,-489.5 -0.5,-489.5 113.4,-483.8 286.5,-489.5 286.5,-489.5 
					289.2,-436.6 286.5,-354.5 286.5,-354.5 213,-348.8 				"/>
			</g>
			
				<linearGradient id="SVGID_1_" gradientUnits="userSpaceOnUse" x1="-713.5343" y1="309.0551" x2="-712.5343" y2="308.0551" gradientTransform="matrix(289.7 0 0 -140.8142 206712.7031 43028.7109)">
				<stop  offset="0" style="stop-color:#FFFFFF"/>
				<stop  offset="1" style="stop-color:#DCDCDC"/>
			</linearGradient>
			<polygon class="st3" points="-0.5,-354.5 2.2,-381.3 -0.5,-489.5 -0.5,-489.5 46.3,-483.6 286.5,-489.5 286.5,-489.5 
				289.2,-460.8 286.5,-354.5 286.5,-354.5 271,-348.7 			"/>
			<text transform="matrix(1 0 0 1 84.9475 -478.3)" class="st4 st5">CValidationInterface</text>
			<g class="st1">
				<line class="st2" x1="-0.5" y1="-474.5" x2="286.5" y2="-474.5"/>
			</g>
			
				<linearGradient id="SVGID_2_" gradientUnits="userSpaceOnUse" x1="-713.2692" y1="36.25" x2="-712.2692" y2="35.25" gradientTransform="matrix(287 0 0 -1 204779.5 -438.5)">
				<stop  offset="0" style="stop-color:#FFFFFF"/>
				<stop  offset="1" style="stop-color:#FFFFFF"/>
			</linearGradient>
			<line class="st6" x1="-0.5" y1="-474.5" x2="286.5" y2="-474.5"/>
			<text transform="matrix(1 0 0 1 66.6536 -463.3)" class="st4 st5">virtual #UpdatedBlockTip()</text>
			<text transform="matrix(1 0 0 1 29.7991 -448.3)" class="st4 st5">virtual #TransactionAddedToMempool()</text>
			<text transform="matrix(1 0 0 1 12.4763 -433.3)" class="st4 st5">virtual #TransactionRemovedFromMempool()</text>
			<text transform="matrix(1 0 0 1 68.5769 -418.3)" class="st4 st5">virtual #BlockConnected()</text>
			<text transform="matrix(1 0 0 1 60.6328 -403.3)" class="st4 st5">virtual #BlockDisconnected()</text>
			<text transform="matrix(1 0 0 1 60.6265 -388.3)" class="st4 st5">virtual #ChainStateFlushed()</text>
			<text transform="matrix(1 0 0 1 74.3628 -373.3)" class="st4 st5">virtual #BlockChecked()</text>
			<text transform="matrix(1 0 0 1 58.957 -358.3)" class="st4 st5">virtual #NewPoWValidBlock()</text>
		</g>
		<g id="node3">
			<g class="st1">
				<polygon class="st2" points="134.5,-128.5 137.2,-139.7 134.5,-263.5 134.5,-263.5 273.9,-257.6 403.5,-263.5 403.5,-263.5 
					406.2,-232 403.5,-128.5 403.5,-128.5 325.1,-123.1 				"/>
			</g>
			
				<linearGradient id="SVGID_3_" gradientUnits="userSpaceOnUse" x1="-713.3724" y1="309.0481" x2="-712.3724" y2="308.0481" gradientTransform="matrix(271.7 0 0 -140.38 193959.7031 43119.6797)">
				<stop  offset="0" style="stop-color:#FFFFFF"/>
				<stop  offset="1" style="stop-color:#DCDCDC"/>
			</linearGradient>
			<polygon class="st7" points="134.5,-128.5 137.2,-128.9 134.5,-263.5 134.5,-263.5 276.9,-258.1 403.5,-263.5 403.5,-263.5 
				406.2,-171.4 403.5,-128.5 403.5,-128.5 253.9,-123.1 			"/>
			<text transform="matrix(1 0 0 1 229.616 -252.3)" class="st4 st5">PeerManager</text>
			<g class="st1">
				<line class="st2" x1="134.5" y1="-248.5" x2="403.5" y2="-248.5"/>
			</g>
			
				<linearGradient id="SVGID_4_" gradientUnits="userSpaceOnUse" x1="-713.1031" y1="36.25" x2="-712.1031" y2="35.25" gradientTransform="matrix(269 0 0 -1 192026.5 -212.5)">
				<stop  offset="0" style="stop-color:#FFFFFF"/>
				<stop  offset="1" style="stop-color:#FFFFFF"/>
			</linearGradient>
			<line class="st8" x1="134.5" y1="-248.5" x2="403.5" y2="-248.5"/>
			<text transform="matrix(1 0 0 1 185.7251 -237.3)" class="st4 st5">virtual +GetNodeStateStats()</text>
			<text transform="matrix(1 0 0 1 183.2051 -222.3)" class="st4 st5">virtual +IgnoresIncomingTxs()</text>
			<text transform="matrix(1 0 0 1 191.3936 -207.3)" class="st4 st5">virtual +RelayTransaction()</text>
			<text transform="matrix(1 0 0 1 210.2905 -192.3)" class="st4 st5">virtual +SendPings()</text>
			<text transform="matrix(1 0 0 1 200.1787 -177.3)" class="st4 st5">virtual +SetBestHeight()</text>
			<text transform="matrix(1 0 0 1 205.2378 -162.3)" class="st4 st5">virtual +Misbehaving()</text>
			<text transform="matrix(1 0 0 1 147.3218 -147.3)" class="st4 st5">virtual +CheckForStaleTipAndEvictPeers()</text>
			<text transform="matrix(1 0 0 1 191.876 -132.3)" class="st4 st5">virtual +ProcessMessage()</text>
		</g>
		<g id="edge1">
			<path class="st9" d="M185.4-345.5c14.9,26.5,31.5,56.1,46,81.8"/>
			<g class="st1">
				<path class="st9" d="M185.4-345.5c14.9,26.5,31.5,56.1,46,81.8"/>
			</g>
			<g class="st1">
				<polygon class="st2" points="182.3,-344 182.5,-343.9 180.5,-354.4 180.5,-354.4 182,-353 188.4,-347.4 188.4,-347.4 
					188.4,-347.1 				"/>
			</g>
			
				<linearGradient id="SVGID_5_" gradientUnits="userSpaceOnUse" x1="-626.5836" y1="284.5292" x2="-625.5836" y2="283.5292" gradientTransform="matrix(7.953 0 0 -10.432 5162.813 2614.9456)">
				<stop  offset="0" style="stop-color:#FFFFFF"/>
				<stop  offset="1" style="stop-color:#FFFFFF"/>
			</linearGradient>
			<polygon class="st10" points="182.3,-344 181.6,-349.8 180.5,-354.4 180.5,-354.4 181.2,-353.7 188.4,-347.4 188.4,-347.4 
				186.7,-346 			"/>
		</g>
		<g id="node2">
			<g class="st1">
				<polygon class="st2" points="304.5,-384.5 306,-407.1 304.5,-459.5 304.5,-459.5 336.6,-455.8 487.5,-459.5 487.5,-459.5 
					489,-433.8 487.5,-384.5 487.5,-384.5 405.1,-380.8 				"/>
			</g>
			
				<linearGradient id="SVGID_6_" gradientUnits="userSpaceOnUse" x1="-712.1313" y1="307.5135" x2="-711.1313" y2="306.5135" gradientTransform="matrix(184.5 0 0 -78.66 131694.5 23728.7617)">
				<stop  offset="0" style="stop-color:#FFFFFF"/>
				<stop  offset="1" style="stop-color:#DCDCDC"/>
			</linearGradient>
			<polygon class="st11" points="304.5,-384.5 306,-433.8 304.5,-459.5 304.5,-459.5 344.9,-455.8 487.5,-459.5 487.5,-459.5 
				489,-399.9 487.5,-384.5 487.5,-384.5 398.1,-380.8 			"/>
			<text transform="matrix(1 0 0 1 340.7214 -448.3)" class="st4 st5">NetEventsInterface</text>
			<g class="st1">
				<line class="st2" x1="304.5" y1="-444.5" x2="487.5" y2="-444.5"/>
			</g>
			
				<linearGradient id="SVGID_7_" gradientUnits="userSpaceOnUse" x1="-711.8593" y1="36.25" x2="-710.8593" y2="35.25" gradientTransform="matrix(183 0 0 -1 130620.5 -408.5)">
				<stop  offset="0" style="stop-color:#FFFFFF"/>
				<stop  offset="1" style="stop-color:#FFFFFF"/>
			</linearGradient>
			<line class="st12" x1="304.5" y1="-444.5" x2="487.5" y2="-444.5"/>
			<text transform="matrix(1 0 0 1 329.7083 -433.3)" class="st4 st5">virtual +InitializeNode()</text>
			<text transform="matrix(1 0 0 1 330.7937 -418.3)" class="st4 st5">virtual +FinalizeNode()</text>
			<text transform="matrix(1 0 0 1 315.626 -403.3)" class="st4 st5">virtual +ProcessMessages()</text>
			<text transform="matrix(1 0 0 1 323.9255 -388.3)" class="st4 st5">virtual +SendMessages()</text>
		</g>
		<g id="edge2">
			<path class="st9" d="M370.1-375.3c-18.2,32.1-42.8,75.4-63.1,111.4"/>
			<g class="st1">
				<path class="st9" d="M370.1-375.3c-18.2,32.1-42.8,75.4-63.1,111.4"/>
			</g>
			<g class="st1">
				<polygon class="st2" points="367.1,-377 370.4,-379.3 375,-384 375,-384 374.9,-381 373.1,-373.6 373.1,-373.6 373.1,-373.6 
									"/>
			</g>
			
				<linearGradient id="SVGID_8_" gradientUnits="userSpaceOnUse" x1="-626.6605" y1="284.7039" x2="-625.6605" y2="283.7039" gradientTransform="matrix(7.977 0 0 -10.425 5366.5767 2583.1602)">
				<stop  offset="0" style="stop-color:#FFFFFF"/>
				<stop  offset="1" style="stop-color:#FFFFFF"/>
			</linearGradient>
			<polygon class="st13" points="367.1,-377 372.5,-380.9 375,-384 375,-384 374.6,-379.1 373.1,-373.6 373.1,-373.6 372.7,-373.7 
							"/>
		</g>
		<g id="node4">
			<g class="st1">
				<polygon class="st2" points="205,-1 205.8,-5.5 205,-37 205,-37 251.1,-34.4 333,-37 333,-37 333.8,-32 333,-1 333,-1 270,1.6 
									"/>
			</g>
			
				<linearGradient id="SVGID_9_" gradientUnits="userSpaceOnUse" x1="-710.4535" y1="303.8835" x2="-709.4535" y2="302.8835" gradientTransform="matrix(128.7211 0 0 -38.56 91657.3047 11680.1602)">
				<stop  offset="0" style="stop-color:#FFFFFF"/>
				<stop  offset="1" style="stop-color:#DCDCDC"/>
			</linearGradient>
			<polygon class="st14" points="205,-1 206,-33.3 205,-37 205,-37 312.4,-34.4 333,-37 333,-37 333.7,-36.1 333,-1 333,-1 
				251.3,1.6 			"/>
			<text transform="matrix(1 0 0 1 217.3364 -24.3)" class="st4 st5">PeerManagerImpl</text>
			<g class="st1">
				<line class="st2" x1="205" y1="-19" x2="333" y2="-19"/>
			</g>
			
				<linearGradient id="SVGID_10_" gradientUnits="userSpaceOnUse" x1="-710.1875" y1="36.25" x2="-709.1875" y2="35.25" gradientTransform="matrix(128 0 0 -1 91141 17)">
				<stop  offset="0" style="stop-color:#FFFFFF"/>
				<stop  offset="1" style="stop-color:#FFFFFF"/>
			</linearGradient>
			<line class="st15" x1="205" y1="-19" x2="333" y2="-19"/>
			<text transform="matrix(1 0 0 1 263.5823 -6.3)" class="st4 st5">...</text>
		</g>
		<g id="edge3">
			<path class="st9" d="M269-118.2c0,30.1,0,61.9,0,80.9"/>
			<g class="st1">
				<path class="st9" d="M269-118.2c0,30.1,0,61.9,0,80.9"/>
			</g>
			<g class="st1">
				<polygon class="st2" points="265.5,-118.3 266.9,-121.1 269,-128.3 269,-128.3 270.8,-124.1 272.5,-118.3 272.5,-118.3 
					272.2,-118.2 				"/>
			</g>
			
				<linearGradient id="SVGID_11_" gradientUnits="userSpaceOnUse" x1="-614.4045" y1="284.0694" x2="-613.4045" y2="283.0694" gradientTransform="matrix(7 0 0 -10.2567 4565.5 2786.478)">
				<stop  offset="0" style="stop-color:#FFFFFF"/>
				<stop  offset="1" style="stop-color:#FFFFFF"/>
			</linearGradient>
			<polygon class="st16" points="265.5,-118.3 265.8,-118.4 269,-128.3 269,-128.3 270,-126.1 272.5,-118.3 272.5,-118.3 
				270.6,-118.1 			"/>
		</g>
	</g>
</g>
</svg>
