<?xml version="1.0" encoding="utf-8"?>
<!-- Generator: Adobe Illustrator 25.2.3, SVG Export Plug-In . SVG Version: 6.00 Build 0)  -->
<svg version="1.1" xmlns="http://www.w3.org/2000/svg" xmlns:xlink="http://www.w3.org/1999/xlink" x="0px" y="0px"
	 viewBox="0 0 519 302" style="enable-background:new 0 0 519 302;" xml:space="preserve">
<style type="text/css">
	.st0{fill:#FFFFFF;}
	.st1{filter:url(#shadow);}
	.st2{opacity:0.2;}
	.st3{fill:url(#SVGID_1_);stroke:#000000;}
	.st4{font-family:'ArialMT';}
	.st5{font-size:13px;}
	.st6{fill:url(#SVGID_2_);stroke:#000000;}
	.st7{fill:url(#SVGID_3_);stroke:#000000;}
	.st8{fill:none;stroke:#000000;}
	.st9{fill:url(#SVGID_4_);stroke:#000000;}
	.st10{fill:url(#SVGID_5_);stroke:#000000;}
	.st11{fill:url(#SVGID_6_);stroke:#000000;}
	.st12{fill:url(#SVGID_7_);stroke:#000000;}
	.st13{fill:url(#SVGID_8_);stroke:#000000;}
	.st14{fill:url(#SVGID_9_);stroke:#000000;}
	.st15{fill:url(#SVGID_10_);stroke:#000000;}
</style>
<filter  filterRes="100" id="shadow" x="0" y="0">
	<feGaussianBlur  stdDeviation="2 2"></feGaussianBlur>
	<feOffset  dx="2" dy="2"></feOffset>
</filter>
<g id="Camada_2">
	<rect x="-9" y="-10" class="st0" width="536" height="321"/>
</g>
<g id="Camada_1" xmlns:svg="http://www.w3.org/2000/svg">
	<g id="graph0" transform="scale(1 1) rotate(0) translate(4 268)">
		<g id="node1">
			<g class="st1">
				<polygon class="st2" points="191,-128.5 193.7,-243.1 191,-263.5 191,-263.5 251.4,-260.9 319,-263.5 319,-263.5 321.7,-233.6 
					319,-128.5 319,-128.5 317,-125.9 				"/>
			</g>
			
				<linearGradient id="SVGID_1_" gradientUnits="userSpaceOnUse" x1="-698.6447" y1="421.1789" x2="-697.6447" y2="420.1789" gradientTransform="matrix(130.7 0 0 -137.56 91503.8125 57673.9375)">
				<stop  offset="0" style="stop-color:#FFFFFF"/>
				<stop  offset="1" style="stop-color:#DCDCDC"/>
			</linearGradient>
			<polygon class="st3" points="191,-128.5 193.7,-182.4 191,-263.5 191,-263.5 242.8,-260.9 319,-263.5 319,-263.5 321.7,-176.8 
				319,-128.5 319,-128.5 246,-125.9 			"/>
			<text transform="matrix(1 0 0 1 210.9282 -252.3)" class="st4 st5">CChainParams</text>
			<g class="st1">
				<line class="st2" x1="191" y1="-248.5" x2="319" y2="-248.5"/>
			</g>
			
				<linearGradient id="SVGID_2_" gradientUnits="userSpaceOnUse" x1="-698.2812" y1="36.25" x2="-697.2812" y2="35.25" gradientTransform="matrix(128 0 0 -1 89603 -212.5)">
				<stop  offset="0" style="stop-color:#FFFFFF"/>
				<stop  offset="1" style="stop-color:#FFFFFF"/>
			</linearGradient>
			<line class="st6" x1="191" y1="-248.5" x2="319" y2="-248.5"/>
			<text transform="matrix(1 0 0 1 220.3101 -237.3)" class="st4 st5">#consensus</text>
			<text transform="matrix(1 0 0 1 200.8037 -222.3)" class="st4 st5">#pchMessageStart</text>
			<text transform="matrix(1 0 0 1 215.2542 -207.3)" class="st4 st5">#nDefaultPort</text>
			<text transform="matrix(1 0 0 1 229.7046 -192.3)" class="st4 st5">#vSeeds</text>
			<text transform="matrix(1 0 0 1 217.0505 -177.3)" class="st4 st5">#bech32_hrp</text>
			<text transform="matrix(1 0 0 1 213.8259 -162.3)" class="st4 st5">#strNetworkID</text>
			<text transform="matrix(1 0 0 1 228.981 -147.3)" class="st4 st5">#genesis</text>
			<text transform="matrix(1 0 0 1 249.5823 -132.3)" class="st4 st5">...</text>
		</g>
		<g id="node2">
			<g class="st1">
				<polygon class="st2" points="-0.5,-1 0.4,-16.3 -0.5,-37 -0.5,-37 47.9,-34.9 106.5,-37 106.5,-37 107.3,-32.2 106.5,-1 
					106.5,-1 67.6,1.1 				"/>
			</g>
			
				<linearGradient id="SVGID_3_" gradientUnits="userSpaceOnUse" x1="-697.4894" y1="413.8393" x2="-696.4894" y2="412.8393" gradientTransform="matrix(107.7216 0 0 -38.14 75135.5156 15746.3594)">
				<stop  offset="0" style="stop-color:#FFFFFF"/>
				<stop  offset="1" style="stop-color:#DCDCDC"/>
			</linearGradient>
			<polygon class="st7" points="-0.5,-1 0.3,-14.2 -0.5,-37 -0.5,-37 104.2,-34.9 106.5,-37 106.5,-37 107.2,-36.1 106.5,-1 
				106.5,-1 54.1,1.1 			"/>
			<text transform="matrix(1 0 0 1 11.8228 -15.3)" class="st4 st5">CMainParams</text>
		</g>
		<g id="edge1">
			<path class="st8" d="M183.1-132.7C144-98.8,98.6-59.5,73-37.4"/>
			<g class="st1">
				<path class="st8" d="M183.1-132.7C144-98.8,98.6-59.5,73-37.4"/>
			</g>
			<g class="st1">
				<polygon class="st2" points="181,-135.5 185.8,-136.8 190.8,-139.4 190.8,-139.4 189.2,-135.7 185.5,-130.2 185.5,-130.2 
					183.5,-132.6 				"/>
			</g>
			
				<linearGradient id="SVGID_4_" gradientUnits="userSpaceOnUse" x1="-632.8177" y1="381.9103" x2="-631.8177" y2="380.9103" gradientTransform="matrix(9.85 0 0 -9.193 6415.3623 3370.4412)">
				<stop  offset="0" style="stop-color:#FFFFFF"/>
				<stop  offset="1" style="stop-color:#FFFFFF"/>
			</linearGradient>
			<polygon class="st9" points="181,-135.5 184.8,-136.6 190.8,-139.4 190.8,-139.4 186.6,-130.4 185.5,-130.2 185.5,-130.2 
				185.5,-130.2 			"/>
		</g>
		<g id="node3">
			<g class="st1">
				<polygon class="st2" points="124.5,-1 125.4,-11.9 124.5,-37 124.5,-37 160.6,-34.6 245.5,-37 245.5,-37 246.4,-21.1 245.5,-1 
					245.5,-1 179.5,1.4 				"/>
			</g>
			
				<linearGradient id="SVGID_5_" gradientUnits="userSpaceOnUse" x1="-698.2352" y1="413.9153" x2="-697.2352" y2="412.9153" gradientTransform="matrix(121.7277 0 0 -38.42 85120.7734 15865.0791)">
				<stop  offset="0" style="stop-color:#FFFFFF"/>
				<stop  offset="1" style="stop-color:#DCDCDC"/>
			</linearGradient>
			<polygon class="st10" points="124.5,-1 125.3,-16 124.5,-37 124.5,-37 230.6,-34.6 245.5,-37 245.5,-37 246.2,-35.6 245.5,-1 
				245.5,-1 211.3,1.4 			"/>
			<text transform="matrix(1 0 0 1 135.8755 -15.3)" class="st4 st5">CTestNetParams</text>
		</g>
		<g id="edge2">
			<path class="st8" d="M224.6-119c-12.1,30.3-25,62.5-32.7,81.7"/>
			<g class="st1">
				<path class="st8" d="M224.6-119c-12.1,30.3-25,62.5-32.7,81.7"/>
			</g>
			<g class="st1">
				<polygon class="st2" points="221.4,-120.4 227,-125.7 228.3,-128.3 228.3,-128.3 228.5,-123.1 227.9,-117.8 227.9,-117.8 
					226.4,-118.2 				"/>
			</g>
			
				<linearGradient id="SVGID_6_" gradientUnits="userSpaceOnUse" x1="-606.291" y1="387.3986" x2="-605.291" y2="386.3986" gradientTransform="matrix(7.1681 0 0 -10.585 4567.7197 3971.7019)">
				<stop  offset="0" style="stop-color:#FFFFFF"/>
				<stop  offset="1" style="stop-color:#FFFFFF"/>
			</linearGradient>
			<polygon class="st11" points="221.4,-120.4 225.6,-124.4 228.3,-128.3 228.3,-128.3 228.5,-122.6 227.9,-117.8 227.9,-117.8 
				226.2,-118.3 			"/>
		</g>
		<g id="node4">
			<g class="st1">
				<polygon class="st2" points="263.5,-1 264.4,-16.6 263.5,-37 263.5,-37 327.3,-34.5 386.5,-37 386.5,-37 387.4,-20.6 386.5,-1 
					386.5,-1 387.3,1.5 				"/>
			</g>
			
				<linearGradient id="SVGID_7_" gradientUnits="userSpaceOnUse" x1="-698.3282" y1="413.9261" x2="-697.3282" y2="412.9261" gradientTransform="matrix(123.7342 0 0 -38.46 86672.375 15882.04)">
				<stop  offset="0" style="stop-color:#FFFFFF"/>
				<stop  offset="1" style="stop-color:#DCDCDC"/>
			</linearGradient>
			<polygon class="st12" points="263.5,-1 264.3,-7.2 263.5,-37 263.5,-37 288.1,-34.5 386.5,-37 386.5,-37 387.2,-34.7 386.5,-1 
				386.5,-1 301.9,1.5 			"/>
			<text transform="matrix(1 0 0 1 274.0664 -15.3)" class="st4 st5">CRegTestParams</text>
		</g>
		<g id="edge3">
			<path class="st8" d="M285.4-119c12.1,30.3,25,62.5,32.7,81.7"/>
			<g class="st1">
				<path class="st8" d="M285.4-119c12.1,30.3,25,62.5,32.7,81.7"/>
			</g>
			<g class="st1">
				<polygon class="st2" points="282.1,-117.8 282.3,-117.9 281.7,-128.3 281.7,-128.3 283,-126.8 288.6,-120.4 288.6,-120.4 
					285.7,-118.7 				"/>
			</g>
			
				<linearGradient id="SVGID_8_" gradientUnits="userSpaceOnUse" x1="-603.6407" y1="387.1725" x2="-602.6407" y2="386.1725" gradientTransform="matrix(6.963 0 0 -10.585 4483.625 3971.7019)">
				<stop  offset="0" style="stop-color:#FFFFFF"/>
				<stop  offset="1" style="stop-color:#FFFFFF"/>
			</linearGradient>
			<polygon class="st13" points="282.1,-117.8 282.2,-125.8 281.7,-128.3 281.7,-128.3 282,-128 288.6,-120.4 288.6,-120.4 
				286.8,-119.2 			"/>
		</g>
		<g id="node5">
			<g class="st1">
				<polygon class="st2" points="404.5,-1 405.3,-4.7 404.5,-37 404.5,-37 435,-34.9 511.5,-37 511.5,-37 512.3,-32.6 511.5,-1 
					511.5,-1 502.5,1.1 				"/>
			</g>
			
				<linearGradient id="SVGID_9_" gradientUnits="userSpaceOnUse" x1="-697.4914" y1="413.8392" x2="-696.4914" y2="412.8392" gradientTransform="matrix(107.7532 0 0 -38.14 75562.7344 15746.3594)">
				<stop  offset="0" style="stop-color:#FFFFFF"/>
				<stop  offset="1" style="stop-color:#DCDCDC"/>
			</linearGradient>
			<polygon class="st14" points="404.5,-1 405.3,-6.6 404.5,-37 404.5,-37 447.5,-34.9 511.5,-37 511.5,-37 512.3,-33 511.5,-1 
				511.5,-1 499.5,1.1 			"/>
			<text transform="matrix(1 0 0 1 416.0959 -15.3)" class="st4 st5">SigNetParams</text>
		</g>
		<g id="edge4">
			<path class="st8" d="M327-132.9c39.5,34.1,85.6,73.8,111.2,95.9"/>
			<g class="st1">
				<path class="st8" d="M327-132.9c39.5,34.1,85.6,73.8,111.2,95.9"/>
			</g>
			<g class="st1">
				<polygon class="st2" points="324.5,-130.4 324.7,-130.4 319.2,-139.6 319.2,-139.6 319.6,-139.4 329.1,-135.8 329.1,-135.8 
					328.8,-135 				"/>
			</g>
			
				<linearGradient id="SVGID_10_" gradientUnits="userSpaceOnUse" x1="-632.9775" y1="381.7626" x2="-631.9775" y2="380.7626" gradientTransform="matrix(9.86 0 0 -9.18 6560.6597 3364.688)">
				<stop  offset="0" style="stop-color:#FFFFFF"/>
				<stop  offset="1" style="stop-color:#FFFFFF"/>
			</linearGradient>
			<polygon class="st15" points="324.5,-130.4 323.7,-132.2 319.2,-139.6 319.2,-139.6 320.7,-138.9 329.1,-135.8 329.1,-135.8 
				329,-135.3 			"/>
		</g>
	</g>
</g>
</svg>
