<?xml version="1.0" encoding="utf-8"?>
<!-- Generator: Adobe Illustrator 25.2.3, SVG Export Plug-In . SVG Version: 6.00 Build 0)  -->
<svg version="1.1" xmlns="http://www.w3.org/2000/svg" xmlns:xlink="http://www.w3.org/1999/xlink" x="0px" y="0px"
	 viewBox="0 0 486 163" style="enable-background:new 0 0 486 163;" xml:space="preserve">
<style type="text/css">
	.st0{fill:#FFFFFF;}
	.st1{filter:url(#shadow);}
	.st2{opacity:0.2;}
	.st3{fill:url(#SVGID_1_);stroke:#000000;}
	.st4{font-family:'ArialMT';}
	.st5{font-size:13px;}
	.st6{fill:url(#SVGID_2_);stroke:#000000;}
	.st7{fill:url(#SVGID_3_);stroke:#000000;}
	.st8{fill:url(#SVGID_4_);stroke:#000000;}
	.st9{fill:none;stroke:#000000;}
	.st10{fill:url(#SVGID_5_);stroke:#000000;}
	.st11{font-size:10px;}
	.st12{fill:url(#SVGID_6_);stroke:#000000;}
	.st13{fill:url(#SVGID_7_);stroke:#000000;}
	.st14{fill:url(#SVGID_8_);stroke:#000000;}
	.st15{fill:url(#SVGID_9_);stroke:#000000;}
	.st16{fill:url(#SVGID_10_);stroke:#000000;}
	.st17{fill:url(#SVGID_11_);stroke:#000000;}
</style>
<filter  filterRes="100" id="shadow" x="0" y="0">
	<feGaussianBlur  stdDeviation="2 2"></feGaussianBlur>
	<feOffset  dx="2" dy="2"></feOffset>
</filter>
<g id="Camada_2">
	<rect x="-9" y="-6" class="st0" width="500" height="177"/>
</g>
<g id="Camada_1" xmlns:svg="http://www.w3.org/2000/svg">
	<g id="graph0" transform="scale(1 1) rotate(0) translate(4 129)">
		<g id="node1">
			<g class="st1">
				<polygon class="st2" points="0.5,-14 2.3,-51 0.5,-104 0.5,-104 60.1,-102 101.5,-104 101.5,-104 103.3,-47.2 101.5,-14 
					101.5,-14 97.5,-12 				"/>
			</g>
			
				<linearGradient id="SVGID_1_" gradientUnits="userSpaceOnUse" x1="-713.0339" y1="488.0239" x2="-712.0339" y2="487.0239" gradientTransform="matrix(102.8 0 0 -92.02 73300.5 44803.8633)">
				<stop  offset="0" style="stop-color:#FFFFFF"/>
				<stop  offset="1" style="stop-color:#DCDCDC"/>
			</linearGradient>
			<polygon class="st3" points="0.5,-14 2.3,-16.3 0.5,-104 0.5,-104 3.6,-102 101.5,-104 101.5,-104 103.3,-89.9 101.5,-14 
				101.5,-14 52.9,-12 			"/>
			<text transform="matrix(1 0 0 1 12.5872 -92.8)" class="st4 st5">CTransaction</text>
			<g class="st1">
				<line class="st2" x1="0.5" y1="-89" x2="101.5" y2="-89"/>
			</g>
			
				<linearGradient id="SVGID_2_" gradientUnits="userSpaceOnUse" x1="-712.6609" y1="35.25" x2="-711.6609" y2="34.25" gradientTransform="matrix(101 0 0 -1 72004.5 -54)">
				<stop  offset="0" style="stop-color:#FFFFFF"/>
				<stop  offset="1" style="stop-color:#FFFFFF"/>
			</linearGradient>
			<line class="st6" x1="0.5" y1="-89" x2="101.5" y2="-89"/>
			<text transform="matrix(1 0 0 1 34.7405 -77.8)" class="st4 st5">-hash</text>
			<text transform="matrix(1 0 0 1 21.9087 -62.8)" class="st4 st5">+nVersion</text>
			<text transform="matrix(1 0 0 1 38.895 -47.8)" class="st4 st5">+vin</text>
			<text transform="matrix(1 0 0 1 34.9182 -32.8)" class="st4 st5">+vout</text>
			<text transform="matrix(1 0 0 1 15.6562 -17.8)" class="st4 st5">+nLockTime</text>
		</g>
		<g id="node2">
			<g class="st1">
				<polygon class="st2" points="199.5,-65 200.7,-89.7 199.5,-125 199.5,-125 251.5,-123.1 294.5,-125 294.5,-125 295.7,-99.4 
					294.5,-65 294.5,-65 293.7,-63.1 				"/>
			</g>
			
				<linearGradient id="SVGID_3_" gradientUnits="userSpaceOnUse" x1="-712.5526" y1="485.6055" x2="-711.5526" y2="484.6055" gradientTransform="matrix(96.2 0 0 -61.9 68747.5078 29933.7012)">
				<stop  offset="0" style="stop-color:#FFFFFF"/>
				<stop  offset="1" style="stop-color:#DCDCDC"/>
			</linearGradient>
			<polygon class="st7" points="199.5,-65 200.7,-108 199.5,-125 199.5,-125 251.6,-123.1 294.5,-125 294.5,-125 295.7,-68.7 
				294.5,-65 294.5,-65 293.9,-63.1 			"/>
			<text transform="matrix(1 0 0 1 229.6646 -113.8)" class="st4 st5">CTxIn</text>
			<g class="st1">
				<line class="st2" x1="199.5" y1="-110" x2="294.5" y2="-110"/>
			</g>
			
				<linearGradient id="SVGID_4_" gradientUnits="userSpaceOnUse" x1="-712.2131" y1="35.25" x2="-711.2131" y2="34.25" gradientTransform="matrix(95 0 0 -1 67883.5 -75)">
				<stop  offset="0" style="stop-color:#FFFFFF"/>
				<stop  offset="1" style="stop-color:#FFFFFF"/>
			</linearGradient>
			<line class="st8" x1="199.5" y1="-110" x2="294.5" y2="-110"/>
			<text transform="matrix(1 0 0 1 221.5237 -98.8)" class="st4 st5">+prevout</text>
			<text transform="matrix(1 0 0 1 218.28 -83.8)" class="st4 st5">+scriptSig</text>
			<text transform="matrix(1 0 0 1 210.3137 -68.8)" class="st4 st5">+nSequence</text>
		</g>
		<g id="edge1">
			<path class="st9" d="M101.7-68.2c26.8-5,60-11.1,87.7-16.3"/>
			<g class="st1">
				<path class="st9" d="M101.7-68.2c26.8-5,60-11.1,87.7-16.3"/>
			</g>
			<g class="st1">
				<polygon class="st2" points="199.4,-86.4 195.7,-87 188.8,-89 188.8,-89 189.2,-88.6 194.5,-85.4 194.5,-85.4 191.6,-84.5 
					189.6,-84.5 189.6,-84.5 189.7,-84.4 189.6,-84.5 189.6,-84.5 189.7,-84.4 189.6,-84.5 189.6,-84.5 191.3,-84.6 194.5,-85.4 
					194.5,-85.4 194,-84.3 190.4,-80.1 190.4,-80.1 198.6,-84.8 199.4,-86.4 199.4,-86.4 199.6,-86.1 				"/>
			</g>
			
				<linearGradient id="SVGID_5_" gradientUnits="userSpaceOnUse" x1="-653.527" y1="441.2052" x2="-652.527" y2="440.2052" gradientTransform="matrix(10.7652 0 0 -8.849 7223.7222 3815.5999)">
				<stop  offset="0" style="stop-color:#969696"/>
				<stop  offset="1" style="stop-color:#000000"/>
			</linearGradient>
			<polygon class="st10" points="199.4,-86.4 197.7,-86.6 188.8,-89 188.8,-89 190.4,-87.8 194.5,-85.4 194.5,-85.4 194.5,-85.3 
				189.6,-84.5 189.6,-84.5 189.9,-84.3 189.6,-84.5 189.6,-84.5 189.7,-84.4 189.6,-84.5 189.6,-84.5 193.5,-84.9 194.5,-85.4 
				194.5,-85.4 193.4,-83.4 190.4,-80.1 190.4,-80.1 191.8,-80.6 199.4,-86.4 199.4,-86.4 199.5,-86.3 			"/>
			<text transform="matrix(1 0 0 1 180.2462 -72.5021)" class="st4 st11">*</text>
		</g>
		<g id="node4">
			<g class="st1">
				<polygon class="st2" points="192,-0.5 193,-16.8 192,-45.5 192,-45.5 226.4,-43.3 302,-45.5 302,-45.5 303,-26.5 302,-0.5 
					302,-0.5 273.2,1.7 				"/>
			</g>
			
				<linearGradient id="SVGID_6_" gradientUnits="userSpaceOnUse" x1="-713.5416" y1="483.306" x2="-712.5416" y2="482.306" gradientTransform="matrix(111.0239 0 0 -47.2 79413.1797 22766.0996)">
				<stop  offset="0" style="stop-color:#FFFFFF"/>
				<stop  offset="1" style="stop-color:#DCDCDC"/>
			</linearGradient>
			<polygon class="st12" points="192,-0.5 193.1,-25 192,-45.5 192,-45.5 203.9,-43.3 302,-45.5 302,-45.5 303,-28.6 302,-0.5 
				302,-0.5 290.5,1.7 			"/>
			<text transform="matrix(1 0 0 1 224.6086 -34.3)" class="st4 st5">CTxOut</text>
			<g class="st1">
				<line class="st2" x1="192" y1="-30.5" x2="302" y2="-30.5"/>
			</g>
			
				<linearGradient id="SVGID_7_" gradientUnits="userSpaceOnUse" x1="-713.2409" y1="35.25" x2="-712.2409" y2="34.25" gradientTransform="matrix(110 0 0 -1 78676 4.5)">
				<stop  offset="0" style="stop-color:#FFFFFF"/>
				<stop  offset="1" style="stop-color:#FFFFFF"/>
			</linearGradient>
			<line class="st13" x1="192" y1="-30.5" x2="302" y2="-30.5"/>
			<text transform="matrix(1 0 0 1 223.447 -19.3)" class="st4 st5">+nValue</text>
			<text transform="matrix(1 0 0 1 204.9087 -4.3)" class="st4 st5">+scriptPubKey</text>
		</g>
		<g id="edge3">
			<path class="st9" d="M101.7-49.8c24.4,4.5,54,10,80.1,14.9"/>
			<g class="st1">
				<path class="st9" d="M101.7-49.8c24.4,4.5,54,10,80.1,14.9"/>
			</g>
			<g class="st1">
				<polygon class="st2" points="192,-33 188.4,-35.4 183,-39.3 183,-39.3 186.9,-34.2 187.1,-33.9 187.1,-33.9 185.8,-34 
					182.2,-34.8 182.2,-34.8 182.3,-34.7 182.2,-34.8 182.2,-34.8 182.5,-34.5 182.2,-34.8 182.2,-34.8 184.7,-34.2 187.1,-33.9 
					187.1,-33.9 185.7,-32.8 181.3,-30.4 181.3,-30.4 185.6,-31 192,-33 192,-33 192.1,-32.9 				"/>
			</g>
			
				<linearGradient id="SVGID_8_" gradientUnits="userSpaceOnUse" x1="-653.9599" y1="441.0625" x2="-652.9599" y2="440.0625" gradientTransform="matrix(10.8124 0 0 -8.849 7250.2612 3865.2861)">
				<stop  offset="0" style="stop-color:#969696"/>
				<stop  offset="1" style="stop-color:#000000"/>
			</linearGradient>
			<polygon class="st14" points="192,-33 190.6,-33.9 183,-39.3 183,-39.3 186.4,-35 187.1,-33.9 187.1,-33.9 185.9,-34 
				182.2,-34.8 182.2,-34.8 182.3,-34.7 182.2,-34.8 182.2,-34.8 182.3,-34.6 182.2,-34.8 182.2,-34.8 183.3,-34.5 187.1,-33.9 
				187.1,-33.9 183.9,-31.4 181.3,-30.4 181.3,-30.4 182.8,-30.5 192,-33 192,-33 192.2,-32.7 			"/>
			<text transform="matrix(1 0 0 1 170.3192 -26.0256)" class="st4 st11">*</text>
		</g>
		<g id="node3">
			<g class="st1">
				<polygon class="st2" points="392,-72.5 392.9,-73.4 392,-117.5 392,-117.5 452.8,-115.8 478,-117.5 478,-117.5 479,-105.5 
					478,-72.5 478,-72.5 425.6,-70.8 				"/>
			</g>
			
				<linearGradient id="SVGID_9_" gradientUnits="userSpaceOnUse" x1="-711.7551" y1="483.2035" x2="-710.7551" y2="482.2035" gradientTransform="matrix(86.911 0 0 -46.72 62251.9492 22457.4609)">
				<stop  offset="0" style="stop-color:#FFFFFF"/>
				<stop  offset="1" style="stop-color:#DCDCDC"/>
			</linearGradient>
			<polygon class="st15" points="392,-72.5 392.9,-75.7 392,-117.5 392,-117.5 396.4,-115.8 478,-117.5 478,-117.5 478.9,-114.9 
				478,-72.5 478,-72.5 456.9,-70.8 			"/>
			<text transform="matrix(1 0 0 1 405.0137 -106.3)" class="st4 st5">COutPoint</text>
			<g class="st1">
				<line class="st2" x1="392" y1="-102.5" x2="478" y2="-102.5"/>
			</g>
			
				<linearGradient id="SVGID_10_" gradientUnits="userSpaceOnUse" x1="-711.4244" y1="35.25" x2="-710.4244" y2="34.25" gradientTransform="matrix(86 0 0 -1 61596 -67.5)">
				<stop  offset="0" style="stop-color:#FFFFFF"/>
				<stop  offset="1" style="stop-color:#FFFFFF"/>
			</linearGradient>
			<line class="st16" x1="392" y1="-102.5" x2="478" y2="-102.5"/>
			<text transform="matrix(1 0 0 1 417.1091 -91.3)" class="st4 st5">+hash</text>
			<text transform="matrix(1 0 0 1 427.5891 -76.3)" class="st4 st5">+n</text>
		</g>
		<g id="edge2">
			<path class="st9" d="M294.9-95c26.4,0,59.5,0,86.8,0"/>
			<g class="st1">
				<path class="st9" d="M294.9-95c26.4,0,59.5,0,86.8,0"/>
			</g>
			<g class="st1">
				<polygon class="st2" points="391.8,-95 390.8,-95.3 381.8,-99.5 381.8,-99.5 382.5,-98.9 386.8,-95 386.8,-95 385.5,-94.8 
					381.8,-95 381.8,-95 381.9,-94.9 381.8,-95 381.8,-95 382,-94.9 381.8,-95 381.8,-95 384,-94.7 386.8,-95 386.8,-95 
					386.2,-94.1 381.8,-90.5 381.8,-90.5 389,-93 391.8,-95 391.8,-95 392,-94.8 				"/>
			</g>
			
				<linearGradient id="SVGID_11_" gradientUnits="userSpaceOnUse" x1="-649.0366" y1="441.9843" x2="-648.0366" y2="440.9843" gradientTransform="matrix(10.0717 0 0 -9 6917.481 3879.5)">
				<stop  offset="0" style="stop-color:#969696"/>
				<stop  offset="1" style="stop-color:#000000"/>
			</linearGradient>
			<polygon class="st17" points="391.8,-95 391.4,-95.1 381.8,-99.5 381.8,-99.5 384.9,-96.6 386.8,-95 386.8,-95 383.7,-94.6 
				381.8,-95 381.8,-95 382.1,-94.8 381.8,-95 381.8,-95 382.2,-94.8 381.8,-95 381.8,-95 382.7,-94.9 386.8,-95 386.8,-95 
				386.2,-94.1 381.8,-90.5 381.8,-90.5 386.8,-92.1 391.8,-95 391.8,-95 391.9,-94.9 			"/>
			<text transform="matrix(1 0 0 1 370.2703 -84.4596)" class="st4 st11">1</text>
		</g>
	</g>
</g>
</svg>
